<?xml version="1.0" encoding="UTF-8"?>
<svg xmlns="http://www.w3.org/2000/svg" style="stroke-dasharray:none; shape-rendering:auto; font-family:'Arial'; text-rendering:auto; fill-opacity:1; color-interpolation:auto; color-rendering:auto; font-size:12; fill:black; stroke:black; image-rendering:auto; stroke-miterlimit:10; stroke-linecap:square; stroke-linejoin:miter; font-style:normal; stroke-width:1; stroke-dashoffset:0; font-weight:normal; stroke-opacity:1;" contentScriptType="text/ecmascript" preserveAspectRatio="xMidYMid meet" zoomAndPan="magnify" version="1.0" contentStyleType="text/css" xml:xlink="http://www.w3.org/1999/xlink" width="1041" height="546"><rect x="5" y="401" width="1026" height="145" ry="0" rx="0" style="stroke:#000000; fill:#D0DAAE" /><g componentSequence="4"><text x="-473" y="12" transform="rotate(270)" text-anchor="middle" style="font-weight:bold;font-size:10px;stroke:none; fill:#434343"><tspan dy="14" x="-473">Aguardando Compleme...</tspan></text></g><rect x="5" y="278" width="1036" height="124" ry="0" rx="0" style="stroke:#000000; fill:#82B0B7" /><g componentSequence="3"><text x="-340" y="12" transform="rotate(270)" text-anchor="middle" style="font-weight:bold;font-size:10px;stroke:none; fill:#434343"><tspan dy="14" x="-340">Inteligência de Merc...</tspan></text></g><rect x="5" y="145" width="1036" height="134" ry="0" rx="0" style="stroke:#000000; fill:#ADC9AC" /><g componentSequence="1"><text x="-212" y="12" transform="rotate(270)" text-anchor="middle" style="font-weight:bold;font-size:10px;stroke:none; fill:#434343"><tspan dy="14" x="-212">Atendimento a Clientes</tspan></text></g><rect x="5" y="10" width="1036" height="136" ry="0" rx="0" style="stroke:#000000; fill:#BA9FC4" /><g componentSequence="2"><text x="-78" y="12" transform="rotate(270)" text-anchor="middle" style="font-weight:bold;font-size:10px;stroke:none; fill:#434343"><tspan dy="14" x="-78">Licitações</tspan></text></g><g sequence="1"><ellipse cx="267" cy="84" rx="17" ry="17" stroke-width="1" style="fill:url(#linearGradient66FF6696FF96B6FFB6_738241156);" stroke="336633" /></g><g sequence="3"><rect x="390" y="170" width="106" height="98" ry="5" rx="5" style="fill:url(#linearGradientF8FBFEEDF5FCDEEDFAD4E7F8E2E5E9_583487860);" stroke="191970" /></g><g componentSequence="3"><text x="443" y="185" text-anchor="middle" style="font-weight:bold;font-size:10px;stroke:none; fill:#333399"><tspan dy="14" x="443">Validação e</tspan><tspan dy="14" x="443">Atualização do</tspan><tspan dy="14" x="443">Atendimento a</tspan><tspan dy="14" x="443">Clientes</tspan></text></g><g sequence="14"><rect x="390" y="50" width="106" height="70" ry="5" rx="5" style="fill:url(#linearGradientF8FBFEEDF5FCDEEDFAD4E7F8E2E5E9_653836788);" stroke="191970" /></g><g componentSequence="14"><text x="443" y="65" text-anchor="middle" style="font-weight:bold;font-size:10px;stroke:none; fill:#333399"><tspan dy="14" x="443">Aprovação da</tspan><tspan dy="14" x="443">Gestão</tspan></text></g><g sequence="21"><rect x="620" y="300" width="106" height="84" ry="5" rx="5" style="fill:url(#linearGradientF8FBFEEDF5FCDEEDFAD4E7F8E2E5E9_1677351759);" stroke="191970" /></g><g componentSequence="21"><text x="673" y="315" text-anchor="middle" style="font-weight:bold;font-size:10px;stroke:none; fill:#333399"><tspan dy="14" x="673">Notificação</tspan><tspan dy="14" x="673">Inteligência de</tspan><tspan dy="14" x="673">Mercado</tspan></text></g><g sequence="23"><ellipse cx="972" cy="382" rx="17" ry="17" stroke-width="3" style="fill:url(#linearGradientFF6666FF9696FFB6B6_1250400574);" stroke="993333" /></g><g sequence="25"><ellipse cx="57" cy="87" rx="17" ry="17" stroke-width="1" style="fill:url(#linearGradientFFFF66FFFF96FFFFB6_1381187051);" stroke="999900" /></g><g sequence="25"><polygon points=" 43 80 58 80 58 73 73 88 58 103 58 96 43 96" style="stroke:#999900; fill:none" /></g><g sequence="26"><ellipse cx="677" cy="87" rx="17" ry="17" stroke-width="1" style="fill:url(#linearGradientFFFF66FFFF96FFFFB6_851747124);" stroke="999900" /></g><g sequence="26"><polygon points=" 663 80 678 80 678 73 693 88 678 103 678 96 663 96" style="stroke:#999900; fill:none" /></g><g sequence="27"><ellipse cx="667" cy="167" rx="17" ry="17" stroke-width="1" style="fill:url(#linearGradientFFFF66FFFF96FFFFB6_64332800);" stroke="999900" /></g><g sequence="27"><polygon points=" 653 160 668 160 668 153 683 168 668 183 668 176 653 176" style="stroke:#999900; fill:none" /></g><g sequence="33"><ellipse cx="852" cy="302" rx="17" ry="17" stroke-width="1" style="fill:url(#linearGradientFFFF66FFFF96FFFFB6_1970111277);" stroke="999900" /></g><g sequence="33"><polygon points=" 838 295 853 295 853 288 868 303 853 318 853 311 838 311" style="stroke:none; fill:#999900" /></g><g sequence="34"><ellipse cx="972" cy="302" rx="17" ry="17" stroke-width="1" style="fill:url(#linearGradientFFFF66FFFF96FFFFB6_1041908750);" stroke="999900" /></g><g sequence="34"><polygon points=" 958 295 973 295 973 288 988 303 973 318 973 311 958 311" style="stroke:none; fill:#999900" /></g><g sequence="35"><ellipse cx="852" cy="382" rx="17" ry="17" stroke-width="1" style="fill:url(#linearGradientFFFF66FFFF96FFFFB6_700485624);" stroke="999900" /></g><g sequence="35"><polygon points=" 838 375 853 375 853 368 868 383 853 398 853 391 838 391" style="stroke:none; fill:#999900" /></g><g sequence="40"><rect x="430" y="458" width="106" height="70" ry="5" rx="5" style="fill:url(#linearGradientF8FBFEEDF5FCDEEDFAD4E7F8E2E5E9_127654756);" stroke="191970" /></g><g componentSequence="40"><text x="483" y="473" text-anchor="middle" style="font-weight:bold;font-size:10px;stroke:none; fill:#333399"><tspan dy="14" x="483">Aguardando</tspan><tspan dy="14" x="483">Complemento</tspan></text></g><g sequence="42"><ellipse cx="627" cy="492" rx="17" ry="17" stroke-width="1" style="fill:url(#linearGradientFFFF66FFFF96FFFFB6_511071313);" stroke="999900" /></g><g sequence="42"><polygon points=" 613 485 628 485 628 478 643 493 628 508 628 501 613 501" style="stroke:none; fill:#999900" /></g><g sequence="44"><polygon points=" 237 205 267 175 297 205 267 235 237 205" style="fill:url(#linearGradientFAFBFCFFFFCC_1923111333);" stroke="000000" /></g><g componentSequence="44"><text x="267" y="238" text-anchor="middle" style="font-weight:bold;font-size:10px;stroke:none; fill:#333399"><tspan dy="14" x="267">Retorno</tspan></text></g><g sequence="49"><ellipse cx="317" cy="492" rx="17" ry="17" stroke-width="1" style="fill:url(#linearGradientFFFF66FFFF96FFFFB6_1597159238);" stroke="999900" /></g><g sequence="49"><polygon points=" 303 485 318 485 318 478 333 493 318 508 318 501 303 501" style="stroke:#999900; fill:none" /></g><g sequence="51"><ellipse cx="327" cy="132" rx="17" ry="17" stroke-width="1" style="fill:url(#linearGradientFFFF66FFFF96FFFFB6_103487295);" stroke="999900" /></g><g sequence="51"><polygon points=" 313 125 328 125 328 118 343 133 328 148 328 141 313 141" style="stroke:none; fill:#999900" /></g><g sequence="53"><rect x="620" y="191" width="106" height="56" ry="5" rx="5" style="fill:url(#linearGradientF8FBFEEDF5FCDEEDFAD4E7F8E2E5E9_710086519);" stroke="191970" /></g><g componentSequence="53"><text x="673" y="208" text-anchor="middle" style="font-weight:bold;font-size:10px;stroke:none; fill:#333399"><tspan dy="14" x="673">Validar Fluxo</tspan></text></g><g sequence="55"><polygon points=" 810 198 840 168 870 198 840 228 810 198" style="fill:url(#linearGradientFAFBFCFFFFCC_1523455721);" stroke="000000" /></g><g componentSequence="55"><text x="840" y="238" text-anchor="middle" style="font-weight:bold;font-size:10px;stroke:none; fill:#333399"><tspan dy="14" x="840">Validado</tspan><tspan dy="14" x="840">?</tspan></text></g><g sequence="58"><ellipse cx="987" cy="173" rx="17" ry="17" stroke-width="1" style="fill:url(#linearGradientFFFF66FFFF96FFFFB6_269222513);" stroke="999900" /></g><g sequence="58"><polygon points=" 973 166 988 166 988 159 1003 174 988 189 988 182 973 182" style="stroke:none; fill:#999900" /></g><g sequence="59"><ellipse cx="987" cy="253" rx="17" ry="17" stroke-width="1" style="fill:url(#linearGradientFFFF66FFFF96FFFFB6_1312845216);" stroke="999900" /></g><g sequence="59"><polygon points=" 973 246 988 246 988 239 1003 254 988 269 988 262 973 262" style="stroke:none; fill:#999900" /></g><g sequence="66"><polygon points=" 120 70 150 40 180 70 150 100 120 70" style="fill:url(#linearGradientFAFBFCFFFFCC_2094726056);" stroke="000000" /></g><g componentSequence="66"><text x="150" y="103" text-anchor="middle" style="font-weight:bold;font-size:10px;stroke:none; fill:#333399"><tspan dy="14" x="150">Início</tspan></text></g><g sequence="69"><polygon points=" 540 170 570 140 600 170 570 200 540 170" style="fill:url(#linearGradientFAFBFCFFFFCC_1443480452);" stroke="000000" /></g><g componentSequence="69"><text x="570" y="210" text-anchor="middle" style="font-weight:bold;font-size:10px;stroke:none; fill:#333399"><tspan dy="14" x="570">Validaçã</tspan><tspan dy="14" x="570">o e</tspan><tspan dy="14" x="570">Atual...</tspan></text></g><g sequence="72"><polygon points=" 550 60 580 30 610 60 580 90 550 60" style="fill:url(#linearGradientFAFBFCFFFFCC_652631230);" stroke="000000" /></g><g componentSequence="72"><text x="580" y="100" text-anchor="middle" style="font-weight:bold;font-size:10px;stroke:none; fill:#333399"><tspan dy="14" x="580">Aprovaç</tspan><tspan dy="14" x="580">ão da</tspan><tspan dy="14" x="580">Gestão</tspan></text></g><g componentSequence="15"><text x="347" y="84" style="font-size:10px;font-weight:none;stroke:none; fill:#333399" text-anchor="left" /></g><g componentSequence="19"><text x="453" y="145" style="font-size:10px;font-weight:none;stroke:none; fill:#333399" text-anchor="left" /></g><g componentSequence="43"><text x="583" y="492" style="font-size:10px;font-weight:none;stroke:none; fill:#333399" text-anchor="left" /></g><g componentSequence="45"><text x="353" y="219" style="font-size:10px;font-weight:none;stroke:none; fill:#333399" text-anchor="left" /></g><g componentSequence="46"><text x="277" y="138" style="font-size:10px;font-weight:none;stroke:none; fill:#333399" text-anchor="left" /></g><g componentSequence="50"><text x="392" y="492" style="font-size:10px;font-weight:none;stroke:none; fill:#333399" text-anchor="left" /></g><g componentSequence="52"><text x="307" y="108" style="font-size:10px;font-weight:none;stroke:none; fill:#333399" text-anchor="left" /></g><g componentSequence="54"><text x="568" y="219" style="font-size:10px;font-weight:none;stroke:none; fill:#333399" text-anchor="left" /></g><g componentSequence="56"><text x="778" y="219" style="font-size:10px;font-weight:none;stroke:none; fill:#333399" text-anchor="left" /></g><g componentSequence="57"><text x="778" y="272" style="font-size:10px;font-weight:none;stroke:none; fill:#333399" text-anchor="left" /></g><g componentSequence="60"><text x="930" y="194" style="font-size:10px;font-weight:none;stroke:none; fill:#333399" text-anchor="left" /></g><g componentSequence="61"><text x="930" y="238" style="font-size:10px;font-weight:none;stroke:none; fill:#333399" text-anchor="left" /></g><g componentSequence="62"><text x="871" y="341" style="font-size:10px;font-weight:none;stroke:none; fill:#333399" text-anchor="left"><tspan dy="14" x="871">Fim</tspan></text></g><g componentSequence="63"><text x="811" y="341" style="font-size:10px;font-weight:none;stroke:none; fill:#333399" text-anchor="left"><tspan dy="14" x="811">Voltar para Início</tspan></text></g><g componentSequence="64"><text x="870" y="341" style="font-size:10px;font-weight:none;stroke:none; fill:#333399" text-anchor="left"><tspan dy="14" x="870">Aprovação da Gestão</tspan></text></g><g componentSequence="65"><text x="810" y="341" style="font-size:10px;font-weight:none;stroke:none; fill:#333399" text-anchor="left"><tspan dy="14" x="810">Validação e Atualização</tspan></text></g><g componentSequence="67"><text x="107" y="86" style="font-size:10px;font-weight:none;stroke:none; fill:#333399" text-anchor="left" /></g><g componentSequence="68"><text x="225" y="84" style="font-size:10px;font-weight:none;stroke:none; fill:#333399" text-anchor="left" /></g><g componentSequence="70"><text x="635" y="181" style="font-size:10px;font-weight:none;stroke:none; fill:#333399" text-anchor="left" /></g><g componentSequence="71"><text x="528" y="207" style="font-size:10px;font-weight:none;stroke:none; fill:#333399" text-anchor="left" /></g><g componentSequence="73"><text x="645" y="87" style="font-size:10px;font-weight:none;stroke:none; fill:#333399" text-anchor="left" /></g><g componentSequence="74"><text x="533" y="87" style="font-size:10px;font-weight:none;stroke:none; fill:#333399" text-anchor="left" /></g><path style="fill:none; stroke:#F00000;stroke-width:1" d="M284.0 84.0 L389.0 84.0" /><polygon style="fill:#F00000; stroke:#F00000;" points=" 379 79 389 84 379 89 381 84" /><polygon style="fill:#F00000; stroke:#F00000;" points=" 294 89 284 84 294 79 292 84" /><path style="fill:none; stroke:#000000;stroke-width:1" d="M281.0 95.0 L313.0 121.0" /><polygon style="fill:#000000; stroke:#000000;" points=" 308 111 313 121 302 119 307 116" /><path style="fill:none; stroke:#000000;stroke-width:1" d="M267.0 174.0 L267.0 102.0" /><polygon style="fill:#000000; stroke:#000000;" points=" 262 112 267 102 272 112 267 110" /><path style="fill:none; stroke:#000000;stroke-width:1" d="M180.0 84.0 L249.0 84.0" /><polygon style="fill:#000000; stroke:#000000;" points=" 239 79 249 84 239 89 241 84" /><path style="fill:none; stroke:#000000;stroke-width:1" d="M389.0 219.0 L297.0 219.0" /><polygon style="fill:#000000; stroke:#000000;" points=" 307 224 297 219 307 214 305 219" /><path style="fill:none; stroke:#000000;stroke-width:1" d="M496.0 219.0 L619.0 219.0" /><polygon style="fill:#000000; stroke:#000000;" points=" 609 214 619 219 609 224 611 219" /><path style="fill:none; stroke:#000000;stroke-width:1" d="M443.0 120.0 L443.0 169.0" /><polygon style="fill:#000000; stroke:#000000;" points=" 448 159 443 169 438 159 443 161" /><path style="fill:none; stroke:#000000;stroke-width:1" d="M539.0 203.0 L496.0 210.0" /><polygon style="fill:#000000; stroke:#000000;" points=" 507 213 496 210 505 203 504 209" /><path style="fill:none; stroke:#000000;stroke-width:1" d="M549.0 87.0 L496.0 86.0" /><polygon style="fill:#000000; stroke:#000000;" points=" 506 91 496 86 506 81 504 86" /><path style="fill:none; stroke:#000000;stroke-width:1" d="M726.0 341.0 L972.0 341.0 L972.0 364.0" /><polygon style="fill:#000000; stroke:#000000;" points=" 977 354 972 364 967 354 972 356" /><path style="fill:none; stroke:#000000;stroke-width:1" d="M726.0 341.0 L852.0 341.0 L852.0 364.0" /><polygon style="fill:#000000; stroke:#000000;" points=" 857 354 852 364 847 354 852 356" /><path style="fill:none; stroke:#000000;stroke-width:1" d="M726.0 341.0 L972.0 341.0 L972.0 320.0" /><polygon style="fill:#000000; stroke:#000000;" points=" 967 330 972 320 977 330 972 328" /><path style="fill:none; stroke:#000000;stroke-width:1" d="M726.0 341.0 L852.0 341.0 L852.0 320.0" /><polygon style="fill:#000000; stroke:#000000;" points=" 847 330 852 320 857 330 852 328" /><path style="fill:none; stroke:#000000;stroke-width:1" d="M809.0 241.0 L726.0 302.0" /><polygon style="fill:#000000; stroke:#000000;" points=" 737 300 726 302 731 292 732 297" /><path style="fill:none; stroke:#000000;stroke-width:1" d="M74.0 87.0 L119.0 85.0" /><polygon style="fill:#000000; stroke:#000000;" points=" 109 80 119 85 109 90 111 85" /><path style="fill:none; stroke:#000000;stroke-width:1" d="M660.0 87.0 L610.0 87.0" /><polygon style="fill:#000000; stroke:#000000;" points=" 620 92 610 87 620 82 618 87" /><path style="fill:none; stroke:#000000;stroke-width:1" d="M650.0 172.0 L600.0 188.0" /><polygon style="fill:#000000; stroke:#000000;" points=" 611 190 600 188 608 180 608 186" /><path style="fill:none; stroke:#000000;stroke-width:1" d="M536.0 492.0 L610.0 492.0" /><polygon style="fill:#000000; stroke:#000000;" points=" 600 487 610 492 600 497 602 492" /><path style="fill:none; stroke:#000000;stroke-width:1" d="M334.0 492.0 L429.0 492.0" /><polygon style="fill:#000000; stroke:#000000;" points=" 419 487 429 492 419 497 421 492" /><path style="fill:none; stroke:#000000;stroke-width:1" d="M726.0 219.0 L809.0 219.0" /><polygon style="fill:#000000; stroke:#000000;" points=" 799 214 809 219 799 224 801 219" /><path style="fill:none; stroke:#000000;stroke-width:1" d="M870.0 209.0 L970.0 178.0" /><polygon style="fill:#000000; stroke:#000000;" points=" 959 176 970 178 962 186 962 180" /><path style="fill:none; stroke:#000000;stroke-width:1" d="M870.0 226.0 L970.0 249.0" /><polygon style="fill:#000000; stroke:#000000;" points=" 961 242 970 249 959 252 962 247" /><defs><linearGradient xmlns:xlink="http://www.w3.org/1999/xlink" xlink:href="#linearGradient66FF6696FF96B6FFB6" id="linearGradient66FF6696FF96B6FFB6_738241156" x1="0" y1="67.0" x2="0" y2="102.0" gradientUnits="userSpaceOnUse" xlink:type="simple" xlink:actuate="onLoad" xlink:show="other" /><linearGradient id="linearGradient66FF6696FF96B6FFB6"><stop style="stop-color:#66FF66;stop-opacity:1;" offset="0.0" id="stop66FF66" /><stop style="stop-color:#96FF96;stop-opacity:1;" offset="0.5" id="stop96FF96" /><stop style="stop-color:#B6FFB6;stop-opacity:1;" offset="1.0" id="stopB6FFB6" /></linearGradient><linearGradient xmlns:xlink="http://www.w3.org/1999/xlink" xlink:href="#linearGradientF8FBFEEDF5FCDEEDFAD4E7F8E2E5E9" id="linearGradientF8FBFEEDF5FCDEEDFAD4E7F8E2E5E9_583487860" x1="0" y1="170.0" x2="0" y2="276.0" gradientUnits="userSpaceOnUse" xlink:type="simple" xlink:actuate="onLoad" xlink:show="other" /><linearGradient id="linearGradientF8FBFEEDF5FCDEEDFAD4E7F8E2E5E9"><stop style="stop-color:#F8FBFE;stop-opacity:1;" offset="0.0" id="stopF8FBFE" /><stop style="stop-color:#EDF5FC;stop-opacity:1;" offset="0.25" id="stopEDF5FC" /><stop style="stop-color:#DEEDFA;stop-opacity:1;" offset="0.5" id="stopDEEDFA" /><stop style="stop-color:#D4E7F8;stop-opacity:1;" offset="0.75" id="stopD4E7F8" /><stop style="stop-color:#E2E5E9;stop-opacity:1;" offset="1.0" id="stopE2E5E9" /></linearGradient><linearGradient xmlns:xlink="http://www.w3.org/1999/xlink" xlink:href="#linearGradientF8FBFEEDF5FCDEEDFAD4E7F8E2E5E9" id="linearGradientF8FBFEEDF5FCDEEDFAD4E7F8E2E5E9_653836788" x1="0" y1="50.0" x2="0" y2="156.0" gradientUnits="userSpaceOnUse" xlink:type="simple" xlink:actuate="onLoad" xlink:show="other" /><linearGradient xmlns:xlink="http://www.w3.org/1999/xlink" xlink:href="#linearGradientF8FBFEEDF5FCDEEDFAD4E7F8E2E5E9" id="linearGradientF8FBFEEDF5FCDEEDFAD4E7F8E2E5E9_1677351759" x1="0" y1="300.0" x2="0" y2="406.0" gradientUnits="userSpaceOnUse" xlink:type="simple" xlink:actuate="onLoad" xlink:show="other" /><linearGradient xmlns:xlink="http://www.w3.org/1999/xlink" xlink:href="#linearGradientFF6666FF9696FFB6B6" id="linearGradientFF6666FF9696FFB6B6_1250400574" x1="0" y1="365.0" x2="0" y2="400.0" gradientUnits="userSpaceOnUse" xlink:type="simple" xlink:actuate="onLoad" xlink:show="other" /><linearGradient id="linearGradientFF6666FF9696FFB6B6"><stop style="stop-color:#FF6666;stop-opacity:1;" offset="0.0" id="stopFF6666" /><stop style="stop-color:#FF9696;stop-opacity:1;" offset="0.5" id="stopFF9696" /><stop style="stop-color:#FFB6B6;stop-opacity:1;" offset="1.0" id="stopFFB6B6" /></linearGradient><linearGradient xmlns:xlink="http://www.w3.org/1999/xlink" xlink:href="#linearGradientFFFF66FFFF96FFFFB6" id="linearGradientFFFF66FFFF96FFFFB6_1381187051" x1="0" y1="70.0" x2="0" y2="105.0" gradientUnits="userSpaceOnUse" xlink:type="simple" xlink:actuate="onLoad" xlink:show="other" /><linearGradient id="linearGradientFFFF66FFFF96FFFFB6"><stop style="stop-color:#FFFF66;stop-opacity:1;" offset="0.0" id="stopFFFF66" /><stop style="stop-color:#FFFF96;stop-opacity:1;" offset="0.5" id="stopFFFF96" /><stop style="stop-color:#FFFFB6;stop-opacity:1;" offset="1.0" id="stopFFFFB6" /></linearGradient><linearGradient xmlns:xlink="http://www.w3.org/1999/xlink" xlink:href="#linearGradientFFFF66FFFF96FFFFB6" id="linearGradientFFFF66FFFF96FFFFB6_851747124" x1="0" y1="70.0" x2="0" y2="105.0" gradientUnits="userSpaceOnUse" xlink:type="simple" xlink:actuate="onLoad" xlink:show="other" /><linearGradient xmlns:xlink="http://www.w3.org/1999/xlink" xlink:href="#linearGradientFFFF66FFFF96FFFFB6" id="linearGradientFFFF66FFFF96FFFFB6_64332800" x1="0" y1="150.0" x2="0" y2="185.0" gradientUnits="userSpaceOnUse" xlink:type="simple" xlink:actuate="onLoad" xlink:show="other" /><linearGradient xmlns:xlink="http://www.w3.org/1999/xlink" xlink:href="#linearGradientFFFF66FFFF96FFFFB6" id="linearGradientFFFF66FFFF96FFFFB6_1970111277" x1="0" y1="285.0" x2="0" y2="320.0" gradientUnits="userSpaceOnUse" xlink:type="simple" xlink:actuate="onLoad" xlink:show="other" /><linearGradient xmlns:xlink="http://www.w3.org/1999/xlink" xlink:href="#linearGradientFFFF66FFFF96FFFFB6" id="linearGradientFFFF66FFFF96FFFFB6_1041908750" x1="0" y1="285.0" x2="0" y2="320.0" gradientUnits="userSpaceOnUse" xlink:type="simple" xlink:actuate="onLoad" xlink:show="other" /><linearGradient xmlns:xlink="http://www.w3.org/1999/xlink" xlink:href="#linearGradientFFFF66FFFF96FFFFB6" id="linearGradientFFFF66FFFF96FFFFB6_700485624" x1="0" y1="365.0" x2="0" y2="400.0" gradientUnits="userSpaceOnUse" xlink:type="simple" xlink:actuate="onLoad" xlink:show="other" /><linearGradient xmlns:xlink="http://www.w3.org/1999/xlink" xlink:href="#linearGradientF8FBFEEDF5FCDEEDFAD4E7F8E2E5E9" id="linearGradientF8FBFEEDF5FCDEEDFAD4E7F8E2E5E9_127654756" x1="0" y1="458.0" x2="0" y2="564.0" gradientUnits="userSpaceOnUse" xlink:type="simple" xlink:actuate="onLoad" xlink:show="other" /><linearGradient xmlns:xlink="http://www.w3.org/1999/xlink" xlink:href="#linearGradientFFFF66FFFF96FFFFB6" id="linearGradientFFFF66FFFF96FFFFB6_511071313" x1="0" y1="475.0" x2="0" y2="510.0" gradientUnits="userSpaceOnUse" xlink:type="simple" xlink:actuate="onLoad" xlink:show="other" /><linearGradient xmlns:xlink="http://www.w3.org/1999/xlink" xlink:href="#linearGradientFAFBFCFFFFCC" id="linearGradientFAFBFCFFFFCC_1923111333" x1="0" y1="175.0" x2="0" y2="235.0" gradientUnits="userSpaceOnUse" xlink:type="simple" xlink:actuate="onLoad" xlink:show="other" /><linearGradient id="linearGradientFAFBFCFFFFCC"><stop style="stop-color:#FAFBFC;stop-opacity:1;" offset="0.0" id="stopFAFBFC" /><stop style="stop-color:#FFFFCC;stop-opacity:1;" offset="1.0" id="stopFFFFCC" /></linearGradient><linearGradient xmlns:xlink="http://www.w3.org/1999/xlink" xlink:href="#linearGradientFFFF66FFFF96FFFFB6" id="linearGradientFFFF66FFFF96FFFFB6_1597159238" x1="0" y1="475.0" x2="0" y2="510.0" gradientUnits="userSpaceOnUse" xlink:type="simple" xlink:actuate="onLoad" xlink:show="other" /><linearGradient xmlns:xlink="http://www.w3.org/1999/xlink" xlink:href="#linearGradientFFFF66FFFF96FFFFB6" id="linearGradientFFFF66FFFF96FFFFB6_103487295" x1="0" y1="115.0" x2="0" y2="150.0" gradientUnits="userSpaceOnUse" xlink:type="simple" xlink:actuate="onLoad" xlink:show="other" /><linearGradient xmlns:xlink="http://www.w3.org/1999/xlink" xlink:href="#linearGradientF8FBFEEDF5FCDEEDFAD4E7F8E2E5E9" id="linearGradientF8FBFEEDF5FCDEEDFAD4E7F8E2E5E9_710086519" x1="0" y1="191.0" x2="0" y2="297.0" gradientUnits="userSpaceOnUse" xlink:type="simple" xlink:actuate="onLoad" xlink:show="other" /><linearGradient xmlns:xlink="http://www.w3.org/1999/xlink" xlink:href="#linearGradientFAFBFCFFFFCC" id="linearGradientFAFBFCFFFFCC_1523455721" x1="0" y1="168.0" x2="0" y2="228.0" gradientUnits="userSpaceOnUse" xlink:type="simple" xlink:actuate="onLoad" xlink:show="other" /><linearGradient xmlns:xlink="http://www.w3.org/1999/xlink" xlink:href="#linearGradientFFFF66FFFF96FFFFB6" id="linearGradientFFFF66FFFF96FFFFB6_269222513" x1="0" y1="156.0" x2="0" y2="191.0" gradientUnits="userSpaceOnUse" xlink:type="simple" xlink:actuate="onLoad" xlink:show="other" /><linearGradient xmlns:xlink="http://www.w3.org/1999/xlink" xlink:href="#linearGradientFFFF66FFFF96FFFFB6" id="linearGradientFFFF66FFFF96FFFFB6_1312845216" x1="0" y1="236.0" x2="0" y2="271.0" gradientUnits="userSpaceOnUse" xlink:type="simple" xlink:actuate="onLoad" xlink:show="other" /><linearGradient xmlns:xlink="http://www.w3.org/1999/xlink" xlink:href="#linearGradientFAFBFCFFFFCC" id="linearGradientFAFBFCFFFFCC_2094726056" x1="0" y1="40.0" x2="0" y2="100.0" gradientUnits="userSpaceOnUse" xlink:type="simple" xlink:actuate="onLoad" xlink:show="other" /><linearGradient xmlns:xlink="http://www.w3.org/1999/xlink" xlink:href="#linearGradientFAFBFCFFFFCC" id="linearGradientFAFBFCFFFFCC_1443480452" x1="0" y1="140.0" x2="0" y2="200.0" gradientUnits="userSpaceOnUse" xlink:type="simple" xlink:actuate="onLoad" xlink:show="other" /><linearGradient xmlns:xlink="http://www.w3.org/1999/xlink" xlink:href="#linearGradientFAFBFCFFFFCC" id="linearGradientFAFBFCFFFFCC_652631230" x1="0" y1="30.0" x2="0" y2="90.0" gradientUnits="userSpaceOnUse" xlink:type="simple" xlink:actuate="onLoad" xlink:show="other" /></defs></svg>
