<?xml version="1.0" encoding="UTF-8"?>
<svg xmlns="http://www.w3.org/2000/svg" style="stroke-dasharray:none; shape-rendering:auto; font-family:'Arial'; text-rendering:auto; fill-opacity:1; color-interpolation:auto; color-rendering:auto; font-size:12; fill:black; stroke:black; image-rendering:auto; stroke-miterlimit:10; stroke-linecap:square; stroke-linejoin:miter; font-style:normal; stroke-width:1; stroke-dashoffset:0; font-weight:normal; stroke-opacity:1;" contentScriptType="text/ecmascript" preserveAspectRatio="xMidYMid meet" zoomAndPan="magnify" version="1.0" contentStyleType="text/css" xml:xlink="http://www.w3.org/1999/xlink" width="1051" height="531"><rect x="0" y="330" width="1051" height="201" ry="0" rx="0" style="stroke:#000000; fill:#82B0B7" /><g componentSequence="3"><text x="-430" y="7" transform="rotate(270)" text-anchor="middle" style="font-weight:bold;font-size:10px;stroke:none; fill:#434343"><tspan dy="14" x="-430">Inteligencia de Mercado</tspan></text></g><rect x="0" y="26" width="1051" height="128" ry="0" rx="0" style="stroke:#000000; fill:#9FC1C6" /><g componentSequence="2"><text x="-90" y="7" transform="rotate(270)" text-anchor="middle" style="font-weight:bold;font-size:10px;stroke:none; fill:#434343"><tspan dy="14" x="-90">Licitações</tspan></text></g><rect x="0" y="156" width="1051" height="175" ry="0" rx="0" style="stroke:#000000; fill:#ADC9AC" /><g componentSequence="1"><text x="-243" y="7" transform="rotate(270)" text-anchor="middle" style="font-weight:bold;font-size:10px;stroke:none; fill:#434343"><tspan dy="14" x="-243">Atendimento a Clientes</tspan></text></g><g sequence="4"><ellipse cx="97" cy="245" rx="17" ry="17" stroke-width="1" style="fill:url(#linearGradient66FF6696FF96B6FFB6_1898995605);" stroke="336633" /></g><g sequence="5"><rect x="280" y="57" width="106" height="70" ry="5" rx="5" style="fill:url(#linearGradientF8FBFEEDF5FCDEEDFAD4E7F8E2E5E9_2146938819);" stroke="191970" /></g><g componentSequence="5"><text x="333" y="72" text-anchor="middle" style="font-weight:bold;font-size:10px;stroke:none; fill:#333399"><tspan dy="14" x="333">Aprovação da</tspan><tspan dy="14" x="333">Gestão</tspan></text></g><g sequence="7"><rect x="280" y="197" width="106" height="98" ry="5" rx="5" style="fill:url(#linearGradientF8FBFEEDF5FCDEEDFAD4E7F8E2E5E9_2076718309);" stroke="191970" /></g><g componentSequence="7"><text x="333" y="212" text-anchor="middle" style="font-weight:bold;font-size:10px;stroke:none; fill:#333399"><tspan dy="14" x="333">Validação e</tspan><tspan dy="14" x="333">Atualização do</tspan><tspan dy="14" x="333">Atendimento a</tspan><tspan dy="14" x="333">Clientes</tspan></text></g><g sequence="15"><rect x="637" y="391" width="106" height="84" ry="5" rx="5" style="fill:url(#linearGradientF8FBFEEDF5FCDEEDFAD4E7F8E2E5E9_1053468152);" stroke="191970" /></g><g componentSequence="15"><text x="690" y="406" text-anchor="middle" style="font-weight:bold;font-size:10px;stroke:none; fill:#333399"><tspan dy="14" x="690">Notificação</tspan><tspan dy="14" x="690">Inteligência de</tspan><tspan dy="14" x="690">Mercado</tspan></text></g><g sequence="17"><ellipse cx="897" cy="357" rx="17" ry="17" stroke-width="3" style="fill:url(#linearGradientFF6666FF9696FFB6B6_1307937091);" stroke="993333" /></g><g sequence="21"><ellipse cx="577" cy="91" rx="17" ry="17" stroke-width="1" style="fill:url(#linearGradientFFFF66FFFF96FFFFB6_255770249);" stroke="999900" /></g><g sequence="21"><polygon points=" 563 84 578 84 578 77 593 92 578 107 578 100 563 100" style="stroke:#999900; fill:none" /></g><g sequence="23"><ellipse cx="97" cy="73" rx="17" ry="17" stroke-width="1" style="fill:url(#linearGradientFFFF66FFFF96FFFFB6_904645783);" stroke="999900" /></g><g sequence="23"><polygon points=" 83 66 98 66 98 59 113 74 98 89 98 82 83 82" style="stroke:#999900; fill:none" /></g><g sequence="27"><ellipse cx="536" cy="170" rx="17" ry="17" stroke-width="1" style="fill:url(#linearGradientFFFF66FFFF96FFFFB6_1592089271);" stroke="999900" /></g><g sequence="27"><polygon points=" 522 163 537 163 537 156 552 171 537 186 537 179 522 179" style="stroke:#999900; fill:none" /></g><g sequence="29"><ellipse cx="897" cy="457" rx="17" ry="17" stroke-width="1" style="fill:url(#linearGradientFFFF66FFFF96FFFFB6_1069252537);" stroke="999900" /></g><g sequence="29"><polygon points=" 883 450 898 450 898 443 913 458 898 473 898 466 883 466" style="stroke:none; fill:#999900" /></g><g sequence="30"><ellipse cx="897" cy="407" rx="17" ry="17" stroke-width="1" style="fill:url(#linearGradientFFFF66FFFF96FFFFB6_1166758961);" stroke="999900" /></g><g sequence="30"><polygon points=" 883 400 898 400 898 393 913 408 898 423 898 416 883 416" style="stroke:none; fill:#999900" /></g><g sequence="31"><ellipse cx="897" cy="507" rx="17" ry="17" stroke-width="1" style="fill:url(#linearGradientFFFF66FFFF96FFFFB6_787457891);" stroke="999900" /></g><g sequence="31"><polygon points=" 883 500 898 500 898 493 913 508 898 523 898 516 883 516" style="stroke:none; fill:#999900" /></g><g sequence="37"><rect x="490" y="218" width="106" height="56" ry="5" rx="5" style="fill:url(#linearGradientF8FBFEEDF5FCDEEDFAD4E7F8E2E5E9_1521180907);" stroke="191970" /></g><g componentSequence="37"><text x="543" y="235" text-anchor="middle" style="font-weight:bold;font-size:10px;stroke:none; fill:#333399"><tspan dy="14" x="543">Validar fluxo</tspan></text></g><g sequence="39"><polygon points=" 660 225 690 195 720 225 690 255 660 225" style="fill:url(#linearGradientFAFBFCFFFFCC_1049201328);" stroke="000000" /></g><g componentSequence="39"><text x="690" y="265" text-anchor="middle" style="font-weight:bold;font-size:10px;stroke:none; fill:#333399"><tspan dy="14" x="690">Validado</tspan><tspan dy="14" x="690">?</tspan></text></g><g sequence="42"><ellipse cx="797" cy="177" rx="17" ry="17" stroke-width="1" style="fill:url(#linearGradientFFFF66FFFF96FFFFB6_565996428);" stroke="999900" /></g><g sequence="42"><polygon points=" 783 170 798 170 798 163 813 178 798 193 798 186 783 186" style="stroke:none; fill:#999900" /></g><g sequence="47"><ellipse cx="797" cy="287" rx="17" ry="17" stroke-width="1" style="fill:url(#linearGradientFFFF66FFFF96FFFFB6_1924863079);" stroke="999900" /></g><g sequence="47"><polygon points=" 783 280 798 280 798 273 813 288 798 303 798 296 783 296" style="stroke:none; fill:#999900" /></g><g sequence="49"><polygon points=" 170 232 200 202 230 232 200 262 170 232" style="fill:url(#linearGradientFAFBFCFFFFCC_1939246819);" stroke="000000" /></g><g componentSequence="49"><text x="200" y="265" text-anchor="middle" style="font-weight:bold;font-size:10px;stroke:none; fill:#333399"><tspan dy="14" x="200">Retorno</tspan></text></g><g sequence="56"><polygon points=" 67 150 97 120 127 150 97 180 67 150" style="fill:url(#linearGradientFAFBFCFFFFCC_28853803);" stroke="000000" /></g><g componentSequence="56"><text x="97" y="183" text-anchor="middle" style="font-weight:bold;font-size:10px;stroke:none; fill:#333399"><tspan dy="14" x="97">Início</tspan></text></g><g sequence="59"><polygon points=" 410 150 440 120 470 150 440 180 410 150" style="fill:url(#linearGradientFAFBFCFFFFCC_1125821851);" stroke="000000" /></g><g componentSequence="59"><text x="440" y="190" text-anchor="middle" style="font-weight:bold;font-size:10px;stroke:none; fill:#333399"><tspan dy="14" x="440">Validaçã</tspan><tspan dy="14" x="440">o e</tspan><tspan dy="14" x="440">Atual...</tspan></text></g><g sequence="62"><polygon points=" 450 70 480 40 510 70 480 100 450 70" style="fill:url(#linearGradientFAFBFCFFFFCC_1772655027);" stroke="000000" /></g><g componentSequence="62"><text x="480" y="110" text-anchor="middle" style="font-weight:bold;font-size:10px;stroke:none; fill:#333399"><tspan dy="14" x="480">Aprovaç</tspan><tspan dy="14" x="480">ão da</tspan><tspan dy="14" x="480">Gestão</tspan></text></g><g componentSequence="6"><text x="207" y="180" style="font-size:10px;font-weight:none;stroke:none; fill:#333399" text-anchor="left" /></g><g componentSequence="8"><text x="343" y="162" style="font-size:10px;font-weight:none;stroke:none; fill:#333399" text-anchor="left" /></g><g componentSequence="40"><text x="638" y="246" style="font-size:10px;font-weight:none;stroke:none; fill:#333399" text-anchor="left" /></g><g componentSequence="43"><text x="760" y="207" style="font-size:10px;font-weight:none;stroke:none; fill:#333399" text-anchor="left"><tspan dy="14" x="760">Devolver ao Solicitante</tspan></text></g><g componentSequence="44"><text x="448" y="246" style="font-size:10px;font-weight:none;stroke:none; fill:#333399" text-anchor="left" /></g><g componentSequence="46"><text x="700" y="344" style="font-size:10px;font-weight:none;stroke:none; fill:#333399" text-anchor="left" /></g><g componentSequence="48"><text x="760" y="269" style="font-size:10px;font-weight:none;stroke:none; fill:#333399" text-anchor="left"><tspan dy="14" x="760">Devolver ao Atendimento</tspan></text></g><g componentSequence="50"><text x="265" y="246" style="font-size:10px;font-weight:none;stroke:none; fill:#333399" text-anchor="left" /></g><g componentSequence="51"><text x="152" y="245" style="font-size:10px;font-weight:none;stroke:none; fill:#333399" text-anchor="left" /></g><g componentSequence="52"><text x="821" y="477" style="font-size:10px;font-weight:none;stroke:none; fill:#333399" text-anchor="left" /></g><g componentSequence="53"><text x="821" y="447" style="font-size:10px;font-weight:none;stroke:none; fill:#333399" text-anchor="left" /></g><g componentSequence="54"><text x="821" y="418" style="font-size:10px;font-weight:none;stroke:none; fill:#333399" text-anchor="left" /></g><g componentSequence="55"><text x="821" y="389" style="font-size:10px;font-weight:none;stroke:none; fill:#333399" text-anchor="left" /></g><g componentSequence="57"><text x="107" y="105" style="font-size:10px;font-weight:none;stroke:none; fill:#333399" text-anchor="left" /></g><g componentSequence="58"><text x="107" y="218" style="font-size:10px;font-weight:none;stroke:none; fill:#333399" text-anchor="left" /></g><g componentSequence="60"><text x="504" y="174" style="font-size:10px;font-weight:none;stroke:none; fill:#333399" text-anchor="left" /></g><g componentSequence="61"><text x="369" y="175" style="font-size:10px;font-weight:none;stroke:none; fill:#333399" text-anchor="left" /></g><g componentSequence="63"><text x="545" y="94" style="font-size:10px;font-weight:none;stroke:none; fill:#333399" text-anchor="left" /></g><g componentSequence="64"><text x="428" y="95" style="font-size:10px;font-weight:none;stroke:none; fill:#333399" text-anchor="left" /></g><path style="fill:none; stroke:#F00000;stroke-width:1" d="M112.0 236.0 L279.0 126.0" /><polygon style="fill:#F00000; stroke:#F00000;" points=" 268 127 279 126 273 136 272 130" /><polygon style="fill:#F00000; stroke:#F00000;" points=" 123 235 112 236 118 226 119 232" /><path style="fill:none; stroke:#000000;stroke-width:1" d="M169.0 245.0 L114.0 245.0" /><polygon style="fill:#000000; stroke:#000000;" points=" 124 250 114 245 124 240 122 245" /><polygon style="fill:#000000; stroke:#000000;" points=" 164 250 154 240" /><path style="fill:none; stroke:#000000;stroke-width:1" d="M97.0 208.0 L97.0 227.0" /><polygon style="fill:#000000; stroke:#000000;" points=" 102 217 97 227 92 217 97 219" /><path style="fill:none; stroke:#000000;stroke-width:1" d="M333.0 127.0 L333.0 196.0" /><polygon style="fill:#000000; stroke:#000000;" points=" 338 186 333 196 328 186 333 188" /><path style="fill:none; stroke:#000000;stroke-width:1" d="M449.0 96.0 L386.0 94.0" /><polygon style="fill:#000000; stroke:#000000;" points=" 396 99 386 94 396 89 394 94" /><path style="fill:none; stroke:#000000;stroke-width:1" d="M386.0 246.0 L489.0 246.0" /><polygon style="fill:#000000; stroke:#000000;" points=" 479 241 489 246 479 251 481 246" /><path style="fill:none; stroke:#000000;stroke-width:1" d="M279.0 246.0 L230.0 246.0" /><polygon style="fill:#000000; stroke:#000000;" points=" 240 251 230 246 240 241 238 246" /><path style="fill:none; stroke:#000000;stroke-width:1" d="M409.0 177.0 L331.0 174.0 L331.0 196.0" /><polygon style="fill:#000000; stroke:#000000;" points=" 336 186 331 196 326 186 331 188" /><path style="fill:none; stroke:#000000;stroke-width:1" d="M743.0 452.0 L881.0 501.0" /><polygon style="fill:#000000; stroke:#000000;" points=" 873 493 881 501 870 502 873 498" /><path style="fill:none; stroke:#000000;stroke-width:1" d="M743.0 439.0 L880.0 455.0" /><polygon style="fill:#000000; stroke:#000000;" points=" 871 449 880 455 869 459 872 454" /><path style="fill:none; stroke:#000000;stroke-width:1" d="M743.0 426.0 L880.0 409.0" /><polygon style="fill:#000000; stroke:#000000;" points=" 869 405 880 409 871 415 872 410" /><path style="fill:none; stroke:#000000;stroke-width:1" d="M743.0 413.0 L881.0 363.0" /><polygon style="fill:#000000; stroke:#000000;" points=" 870 362 881 363 873 371 873 366" /><path style="fill:none; stroke:#000000;stroke-width:1" d="M690.0 297.0 L690.0 390.0" /><polygon style="fill:#000000; stroke:#000000;" points=" 695 380 690 390 685 380 690 382" /><path style="fill:none; stroke:#000000;stroke-width:1" d="M560.0 92.0 L510.0 95.0" /><polygon style="fill:#000000; stroke:#000000;" points=" 520 99 510 95 520 89 518 95" /><path style="fill:none; stroke:#000000;stroke-width:1" d="M97.0 91.0 L97.0 119.0" /><polygon style="fill:#000000; stroke:#000000;" points=" 102 109 97 119 92 109 97 111" /><path style="fill:none; stroke:#000000;stroke-width:1" d="M519.0 171.0 L470.0 175.0" /><polygon style="fill:#000000; stroke:#000000;" points=" 480 179 470 175 480 169 478 174" /><path style="fill:none; stroke:#000000;stroke-width:1" d="M596.0 246.0 L659.0 246.0" /><polygon style="fill:#000000; stroke:#000000;" points=" 649 241 659 246 649 251 651 246" /><path style="fill:none; stroke:#000000;stroke-width:1" d="M720.0 226.0 L782.0 186.0" /><polygon style="fill:#000000; stroke:#000000;" points=" 771 187 782 186 776 196 775 190" /><path style="fill:none; stroke:#000000;stroke-width:1" d="M720.0 257.0 L781.0 281.0" /><polygon style="fill:#000000; stroke:#000000;" points=" 774 273 781 281 770 282 774 278" /><defs><linearGradient xmlns:xlink="http://www.w3.org/1999/xlink" xlink:href="#linearGradient66FF6696FF96B6FFB6" id="linearGradient66FF6696FF96B6FFB6_1898995605" x1="0" y1="228.0" x2="0" y2="263.0" gradientUnits="userSpaceOnUse" xlink:type="simple" xlink:actuate="onLoad" xlink:show="other" /><linearGradient id="linearGradient66FF6696FF96B6FFB6"><stop style="stop-color:#66FF66;stop-opacity:1;" offset="0.0" id="stop66FF66" /><stop style="stop-color:#96FF96;stop-opacity:1;" offset="0.5" id="stop96FF96" /><stop style="stop-color:#B6FFB6;stop-opacity:1;" offset="1.0" id="stopB6FFB6" /></linearGradient><linearGradient xmlns:xlink="http://www.w3.org/1999/xlink" xlink:href="#linearGradientF8FBFEEDF5FCDEEDFAD4E7F8E2E5E9" id="linearGradientF8FBFEEDF5FCDEEDFAD4E7F8E2E5E9_2146938819" x1="0" y1="57.0" x2="0" y2="163.0" gradientUnits="userSpaceOnUse" xlink:type="simple" xlink:actuate="onLoad" xlink:show="other" /><linearGradient id="linearGradientF8FBFEEDF5FCDEEDFAD4E7F8E2E5E9"><stop style="stop-color:#F8FBFE;stop-opacity:1;" offset="0.0" id="stopF8FBFE" /><stop style="stop-color:#EDF5FC;stop-opacity:1;" offset="0.25" id="stopEDF5FC" /><stop style="stop-color:#DEEDFA;stop-opacity:1;" offset="0.5" id="stopDEEDFA" /><stop style="stop-color:#D4E7F8;stop-opacity:1;" offset="0.75" id="stopD4E7F8" /><stop style="stop-color:#E2E5E9;stop-opacity:1;" offset="1.0" id="stopE2E5E9" /></linearGradient><linearGradient xmlns:xlink="http://www.w3.org/1999/xlink" xlink:href="#linearGradientF8FBFEEDF5FCDEEDFAD4E7F8E2E5E9" id="linearGradientF8FBFEEDF5FCDEEDFAD4E7F8E2E5E9_2076718309" x1="0" y1="197.0" x2="0" y2="303.0" gradientUnits="userSpaceOnUse" xlink:type="simple" xlink:actuate="onLoad" xlink:show="other" /><linearGradient xmlns:xlink="http://www.w3.org/1999/xlink" xlink:href="#linearGradientF8FBFEEDF5FCDEEDFAD4E7F8E2E5E9" id="linearGradientF8FBFEEDF5FCDEEDFAD4E7F8E2E5E9_1053468152" x1="0" y1="391.0" x2="0" y2="497.0" gradientUnits="userSpaceOnUse" xlink:type="simple" xlink:actuate="onLoad" xlink:show="other" /><linearGradient xmlns:xlink="http://www.w3.org/1999/xlink" xlink:href="#linearGradientFF6666FF9696FFB6B6" id="linearGradientFF6666FF9696FFB6B6_1307937091" x1="0" y1="340.0" x2="0" y2="375.0" gradientUnits="userSpaceOnUse" xlink:type="simple" xlink:actuate="onLoad" xlink:show="other" /><linearGradient id="linearGradientFF6666FF9696FFB6B6"><stop style="stop-color:#FF6666;stop-opacity:1;" offset="0.0" id="stopFF6666" /><stop style="stop-color:#FF9696;stop-opacity:1;" offset="0.5" id="stopFF9696" /><stop style="stop-color:#FFB6B6;stop-opacity:1;" offset="1.0" id="stopFFB6B6" /></linearGradient><linearGradient xmlns:xlink="http://www.w3.org/1999/xlink" xlink:href="#linearGradientFFFF66FFFF96FFFFB6" id="linearGradientFFFF66FFFF96FFFFB6_255770249" x1="0" y1="74.0" x2="0" y2="109.0" gradientUnits="userSpaceOnUse" xlink:type="simple" xlink:actuate="onLoad" xlink:show="other" /><linearGradient id="linearGradientFFFF66FFFF96FFFFB6"><stop style="stop-color:#FFFF66;stop-opacity:1;" offset="0.0" id="stopFFFF66" /><stop style="stop-color:#FFFF96;stop-opacity:1;" offset="0.5" id="stopFFFF96" /><stop style="stop-color:#FFFFB6;stop-opacity:1;" offset="1.0" id="stopFFFFB6" /></linearGradient><linearGradient xmlns:xlink="http://www.w3.org/1999/xlink" xlink:href="#linearGradientFFFF66FFFF96FFFFB6" id="linearGradientFFFF66FFFF96FFFFB6_904645783" x1="0" y1="56.0" x2="0" y2="91.0" gradientUnits="userSpaceOnUse" xlink:type="simple" xlink:actuate="onLoad" xlink:show="other" /><linearGradient xmlns:xlink="http://www.w3.org/1999/xlink" xlink:href="#linearGradientFFFF66FFFF96FFFFB6" id="linearGradientFFFF66FFFF96FFFFB6_1592089271" x1="0" y1="153.0" x2="0" y2="188.0" gradientUnits="userSpaceOnUse" xlink:type="simple" xlink:actuate="onLoad" xlink:show="other" /><linearGradient xmlns:xlink="http://www.w3.org/1999/xlink" xlink:href="#linearGradientFFFF66FFFF96FFFFB6" id="linearGradientFFFF66FFFF96FFFFB6_1069252537" x1="0" y1="440.0" x2="0" y2="475.0" gradientUnits="userSpaceOnUse" xlink:type="simple" xlink:actuate="onLoad" xlink:show="other" /><linearGradient xmlns:xlink="http://www.w3.org/1999/xlink" xlink:href="#linearGradientFFFF66FFFF96FFFFB6" id="linearGradientFFFF66FFFF96FFFFB6_1166758961" x1="0" y1="390.0" x2="0" y2="425.0" gradientUnits="userSpaceOnUse" xlink:type="simple" xlink:actuate="onLoad" xlink:show="other" /><linearGradient xmlns:xlink="http://www.w3.org/1999/xlink" xlink:href="#linearGradientFFFF66FFFF96FFFFB6" id="linearGradientFFFF66FFFF96FFFFB6_787457891" x1="0" y1="490.0" x2="0" y2="525.0" gradientUnits="userSpaceOnUse" xlink:type="simple" xlink:actuate="onLoad" xlink:show="other" /><linearGradient xmlns:xlink="http://www.w3.org/1999/xlink" xlink:href="#linearGradientF8FBFEEDF5FCDEEDFAD4E7F8E2E5E9" id="linearGradientF8FBFEEDF5FCDEEDFAD4E7F8E2E5E9_1521180907" x1="0" y1="218.0" x2="0" y2="324.0" gradientUnits="userSpaceOnUse" xlink:type="simple" xlink:actuate="onLoad" xlink:show="other" /><linearGradient xmlns:xlink="http://www.w3.org/1999/xlink" xlink:href="#linearGradientFAFBFCFFFFCC" id="linearGradientFAFBFCFFFFCC_1049201328" x1="0" y1="195.0" x2="0" y2="255.0" gradientUnits="userSpaceOnUse" xlink:type="simple" xlink:actuate="onLoad" xlink:show="other" /><linearGradient id="linearGradientFAFBFCFFFFCC"><stop style="stop-color:#FAFBFC;stop-opacity:1;" offset="0.0" id="stopFAFBFC" /><stop style="stop-color:#FFFFCC;stop-opacity:1;" offset="1.0" id="stopFFFFCC" /></linearGradient><linearGradient xmlns:xlink="http://www.w3.org/1999/xlink" xlink:href="#linearGradientFFFF66FFFF96FFFFB6" id="linearGradientFFFF66FFFF96FFFFB6_565996428" x1="0" y1="160.0" x2="0" y2="195.0" gradientUnits="userSpaceOnUse" xlink:type="simple" xlink:actuate="onLoad" xlink:show="other" /><linearGradient xmlns:xlink="http://www.w3.org/1999/xlink" xlink:href="#linearGradientFFFF66FFFF96FFFFB6" id="linearGradientFFFF66FFFF96FFFFB6_1924863079" x1="0" y1="270.0" x2="0" y2="305.0" gradientUnits="userSpaceOnUse" xlink:type="simple" xlink:actuate="onLoad" xlink:show="other" /><linearGradient xmlns:xlink="http://www.w3.org/1999/xlink" xlink:href="#linearGradientFAFBFCFFFFCC" id="linearGradientFAFBFCFFFFCC_1939246819" x1="0" y1="202.0" x2="0" y2="262.0" gradientUnits="userSpaceOnUse" xlink:type="simple" xlink:actuate="onLoad" xlink:show="other" /><linearGradient xmlns:xlink="http://www.w3.org/1999/xlink" xlink:href="#linearGradientFAFBFCFFFFCC" id="linearGradientFAFBFCFFFFCC_28853803" x1="0" y1="120.0" x2="0" y2="180.0" gradientUnits="userSpaceOnUse" xlink:type="simple" xlink:actuate="onLoad" xlink:show="other" /><linearGradient xmlns:xlink="http://www.w3.org/1999/xlink" xlink:href="#linearGradientFAFBFCFFFFCC" id="linearGradientFAFBFCFFFFCC_1125821851" x1="0" y1="120.0" x2="0" y2="180.0" gradientUnits="userSpaceOnUse" xlink:type="simple" xlink:actuate="onLoad" xlink:show="other" /><linearGradient xmlns:xlink="http://www.w3.org/1999/xlink" xlink:href="#linearGradientFAFBFCFFFFCC" id="linearGradientFAFBFCFFFFCC_1772655027" x1="0" y1="40.0" x2="0" y2="100.0" gradientUnits="userSpaceOnUse" xlink:type="simple" xlink:actuate="onLoad" xlink:show="other" /></defs></svg>
