<?xml version="1.0" encoding="UTF-8"?>
<svg xmlns="http://www.w3.org/2000/svg" style="stroke-dasharray:none; shape-rendering:auto; font-family:'Arial'; text-rendering:auto; fill-opacity:1; color-interpolation:auto; color-rendering:auto; font-size:12; fill:black; stroke:black; image-rendering:auto; stroke-miterlimit:10; stroke-linecap:square; stroke-linejoin:miter; font-style:normal; stroke-width:1; stroke-dashoffset:0; font-weight:normal; stroke-opacity:1;" contentScriptType="text/ecmascript" preserveAspectRatio="xMidYMid meet" zoomAndPan="magnify" version="1.0" contentStyleType="text/css" xml:xlink="http://www.w3.org/1999/xlink" width="1301" height="871"><rect x="20" y="20" width="1281" height="851" ry="0" rx="0" style="stroke:#000000; fill:#FFFFFF" /><rect x="50" y="302" width="1251" height="141" ry="0" rx="0" style="stroke:#000000; fill:#9FC1C6" /><g componentSequence="53"><text x="-372" y="57" transform="rotate(270)" text-anchor="middle" style="font-weight:bold;font-size:10px;stroke:none; fill:#434343"><tspan dy="14" x="-372">Diretoria</tspan></text></g><rect x="50" y="161" width="1251" height="141" ry="0" rx="0" style="stroke:#000000; fill:#ADC9AC" /><g componentSequence="6"><text x="-231" y="57" transform="rotate(270)" text-anchor="middle" style="font-weight:bold;font-size:10px;stroke:none; fill:#434343"><tspan dy="14" x="-231">Gerente</tspan></text></g><rect x="50" y="725" width="1251" height="146" ry="0" rx="0" style="stroke:#000000; fill:#C9C3AC" /><g componentSequence="5"><text x="-798" y="57" transform="rotate(270)" text-anchor="middle" style="font-weight:bold;font-size:10px;stroke:none; fill:#434343"><tspan dy="14" x="-798">TI</tspan></text></g><rect x="50" y="584" width="1251" height="141" ry="0" rx="0" style="stroke:#000000; fill:#D6E0D0" /><g componentSequence="4"><text x="-654" y="57" transform="rotate(270)" text-anchor="middle" style="font-weight:bold;font-size:10px;stroke:none; fill:#434343"><tspan dy="14" x="-654">DP</tspan></text></g><rect x="50" y="443" width="1251" height="141" ry="0" rx="0" style="stroke:#000000; fill:#D0DAAE" /><g componentSequence="3"><text x="-513" y="57" transform="rotate(270)" text-anchor="middle" style="font-weight:bold;font-size:10px;stroke:none; fill:#434343"><tspan dy="14" x="-513">RH</tspan></text></g><rect x="50" y="20" width="1251" height="141" ry="0" rx="0" style="stroke:#000000; fill:#82B0B7" /><g componentSequence="2"><text x="-90" y="57" transform="rotate(270)" text-anchor="middle" style="font-weight:bold;font-size:10px;stroke:none; fill:#434343"><tspan dy="14" x="-90">Gerente</tspan></text></g><g componentSequence="1"><text x="-445" y="27" transform="rotate(270)" text-anchor="middle" style="font-weight:bold;font-size:10px;stroke:none; fill:#434343"><tspan dy="14" x="-445">Férias</tspan></text></g><g sequence="1"><ellipse cx="217" cy="107" rx="17" ry="17" stroke-width="1" style="fill:url(#linearGradient66FF6696FF96B6FFB6_355167060);" stroke="336633" /></g><g sequence="2"><rect x="270" y="199" width="106" height="56" ry="5" rx="5" style="fill:url(#linearGradientF8FBFEEDF5FCDEEDFAD4E7F8E2E5E9_468490113);" stroke="191970" /></g><g componentSequence="2"><text x="323" y="216" text-anchor="middle" style="font-weight:bold;font-size:10px;stroke:none; fill:#333399"><tspan dy="14" x="323">Gerente</tspan></text></g><g sequence="3"><rect x="460" y="480" width="106" height="56" ry="5" rx="5" style="fill:url(#linearGradientF8FBFEEDF5FCDEEDFAD4E7F8E2E5E9_533921828);" stroke="191970" /></g><g componentSequence="3"><text x="513" y="497" text-anchor="middle" style="font-weight:bold;font-size:10px;stroke:none; fill:#333399"><tspan dy="14" x="513">RH</tspan></text></g><g sequence="4"><rect x="650" y="640" width="106" height="56" ry="5" rx="5" style="fill:url(#linearGradientF8FBFEEDF5FCDEEDFAD4E7F8E2E5E9_1523686842);" stroke="191970" /></g><g componentSequence="4"><text x="703" y="657" text-anchor="middle" style="font-weight:bold;font-size:10px;stroke:none; fill:#333399"><tspan dy="14" x="703">DP</tspan></text></g><g sequence="5"><rect x="830" y="772" width="106" height="56" ry="5" rx="5" style="fill:url(#linearGradientF8FBFEEDF5FCDEEDFAD4E7F8E2E5E9_351157375);" stroke="191970" /></g><g componentSequence="5"><text x="883" y="789" text-anchor="middle" style="font-weight:bold;font-size:10px;stroke:none; fill:#333399"><tspan dy="14" x="883">TI</tspan></text></g><g sequence="13"><ellipse cx="117" cy="107" rx="17" ry="17" stroke-width="1" style="fill:url(#linearGradientFFFF66FFFF96FFFFB6_1799479804);" stroke="999900" /></g><g sequence="13"><polygon points=" 103 100 118 100 118 93 133 108 118 123 118 116 103 116" style="stroke:#999900; fill:none" /></g><g sequence="15"><polygon points=" 480 206 510 176 540 206 510 236 480 206" style="fill:url(#linearGradientFAFBFCFFFFCC_1821646480);" stroke="000000" /></g><g componentSequence="15"><text x="510" y="246" text-anchor="middle" style="font-weight:bold;font-size:10px;stroke:none; fill:#333399"><tspan dy="14" x="510">Exclusiv</tspan><tspan dy="14" x="510">o</tspan></text></g><g sequence="18"><ellipse cx="717" cy="277" rx="17" ry="17" stroke-width="3" style="fill:url(#linearGradientFF6666FF9696FFB6B6_989750005);" stroke="993333" /></g><g sequence="20"><ellipse cx="717" cy="177" rx="17" ry="17" stroke-width="1" style="fill:url(#linearGradientFFFF66FFFF96FFFFB6_1595321361);" stroke="999900" /></g><g sequence="20"><polygon points=" 703 170 718 170 718 163 733 178 718 193 718 186 703 186" style="stroke:none; fill:#999900" /></g><g sequence="22"><polygon points=" 673 487 703 457 733 487 703 517 673 487" style="fill:url(#linearGradientFAFBFCFFFFCC_993851406);" stroke="000000" /></g><g componentSequence="22"><text x="703" y="527" text-anchor="middle" style="font-weight:bold;font-size:10px;stroke:none; fill:#333399"><tspan dy="14" x="703">Exclusiv</tspan><tspan dy="14" x="703">o</tspan></text></g><g sequence="28"><polygon points=" 853 647 883 617 913 647 883 677 853 647" style="fill:url(#linearGradientFAFBFCFFFFCC_2005930343);" stroke="000000" /></g><g componentSequence="28"><text x="883" y="687" text-anchor="middle" style="font-weight:bold;font-size:10px;stroke:none; fill:#333399"><tspan dy="14" x="883">Exclusiv</tspan><tspan dy="14" x="883">o</tspan></text></g><g sequence="31"><polygon points=" 1023 779 1053 749 1083 779 1053 809 1023 779" style="fill:url(#linearGradientFAFBFCFFFFCC_1051737258);" stroke="000000" /></g><g componentSequence="31"><text x="1053" y="819" text-anchor="middle" style="font-weight:bold;font-size:10px;stroke:none; fill:#333399"><tspan dy="14" x="1053">Exclusiv</tspan><tspan dy="14" x="1053">o</tspan></text></g><g sequence="33"><ellipse cx="1227" cy="847" rx="17" ry="17" stroke-width="3" style="fill:url(#linearGradientFF6666FF9696FFB6B6_1420589385);" stroke="993333" /></g><g sequence="35"><ellipse cx="1040" cy="608" rx="17" ry="17" stroke-width="1" style="fill:url(#linearGradientFFFF66FFFF96FFFFB6_135010138);" stroke="999900" /></g><g sequence="35"><polygon points=" 1026 601 1041 601 1041 594 1056 609 1041 624 1041 617 1026 617" style="stroke:none; fill:#999900" /></g><g sequence="36"><ellipse cx="1227" cy="747" rx="17" ry="17" stroke-width="1" style="fill:url(#linearGradientFFFF66FFFF96FFFFB6_2145399829);" stroke="999900" /></g><g sequence="36"><polygon points=" 1213 740 1228 740 1228 733 1243 748 1228 763 1228 756 1213 756" style="stroke:none; fill:#999900" /></g><g sequence="37"><ellipse cx="877" cy="467" rx="17" ry="17" stroke-width="1" style="fill:url(#linearGradientFFFF66FFFF96FFFFB6_1082786351);" stroke="999900" /></g><g sequence="37"><polygon points=" 863 460 878 460 878 453 893 468 878 483 878 476 863 476" style="stroke:none; fill:#999900" /></g><g sequence="38"><ellipse cx="167" cy="226" rx="17" ry="17" stroke-width="1" style="fill:url(#linearGradientFFFF66FFFF96FFFFB6_2002476358);" stroke="999900" /></g><g sequence="38"><polygon points=" 153 219 168 219 168 212 183 227 168 242 168 235 153 235" style="stroke:#999900; fill:none" /></g><g sequence="40"><ellipse cx="380" cy="507" rx="17" ry="17" stroke-width="1" style="fill:url(#linearGradientFFFF66FFFF96FFFFB6_520434224);" stroke="999900" /></g><g sequence="40"><polygon points=" 366 500 381 500 381 493 396 508 381 523 381 516 366 516" style="stroke:#999900; fill:none" /></g><g sequence="41"><ellipse cx="560" cy="667" rx="17" ry="17" stroke-width="1" style="fill:url(#linearGradientFFFF66FFFF96FFFFB6_1631317337);" stroke="999900" /></g><g sequence="41"><polygon points=" 546 660 561 660 561 653 576 668 561 683 561 676 546 676" style="stroke:#999900; fill:none" /></g><g sequence="47"><ellipse cx="877" cy="547" rx="17" ry="17" stroke-width="1" style="fill:url(#linearGradientFFFF66FFFF96FFFFB6_1907359787);" stroke="999900" /></g><g sequence="47"><polygon points=" 863 540 878 540 878 533 893 548 878 563 878 556 863 556" style="stroke:none; fill:#999900" /></g><g sequence="49"><ellipse cx="1047" cy="697" rx="17" ry="17" stroke-width="1" style="fill:url(#linearGradientFFFF66FFFF96FFFFB6_1546441270);" stroke="999900" /></g><g sequence="49"><polygon points=" 1033 690 1048 690 1048 683 1063 698 1048 713 1048 706 1033 706" style="stroke:none; fill:#999900" /></g><g sequence="51"><ellipse cx="1230" cy="799" rx="17" ry="17" stroke-width="1" style="fill:url(#linearGradientFFFF66FFFF96FFFFB6_1787756337);" stroke="999900" /></g><g sequence="51"><polygon points=" 1216 792 1231 792 1231 785 1246 800 1231 815 1231 808 1216 808" style="stroke:none; fill:#999900" /></g><rect x="820" y="210" width="105" height="55" ry="5" rx="5" style="stroke:none; fill:#FFFFE0" /><g componentSequence="24"><text x="830" y="233" text-anchor="left" style="font-weight:bold;font-size:10px;stroke:none; fill:#000000"><tspan dy="14" x="830">Férias não</tspan><tspan dy="14" x="830">autorizadas</tspan></text></g><path style="fill:none; stroke-width:1; stroke:#000000;" d="M840.0 210.0 L820.0 210.0 L820.0 265.0 L840.0 265.0" /><g sequence="54"><rect x="330" y="346" width="105" height="56" ry="5" rx="5" style="fill:url(#linearGradientF8FBFEEDF5FCDEEDFAD4E7F8E2E5E9_1415677468);" stroke="191970" /></g><g componentSequence="54"><text x="382" y="363" text-anchor="middle" style="font-weight:bold;font-size:10px;stroke:none; fill:#333399"><tspan dy="14" x="382">Diretoria</tspan></text></g><g sequence="56"><polygon points=" 610 353 640 323 670 353 640 383 610 353" style="fill:url(#linearGradientFAFBFCFFFFCC_622949859);" stroke="000000" /></g><g componentSequence="56"><text x="640" y="393" text-anchor="middle" style="font-weight:bold;font-size:10px;stroke:none; fill:#333399"><tspan dy="14" x="640">Exclusiv</tspan><tspan dy="14" x="640">o</tspan></text></g><g sequence="58"><ellipse cx="857" cy="329" rx="17" ry="17" stroke-width="1" style="fill:url(#linearGradientFFFF66FFFF96FFFFB6_531017235);" stroke="999900" /></g><g sequence="58"><polygon points=" 843 322 858 322 858 315 873 330 858 345 858 338 843 338" style="stroke:none; fill:#999900" /></g><g sequence="59"><ellipse cx="857" cy="407" rx="17" ry="17" stroke-width="1" style="fill:url(#linearGradientFFFF66FFFF96FFFFB6_46968225);" stroke="999900" /></g><g sequence="59"><polygon points=" 843 400 858 400 858 393 873 408 858 423 858 416 843 416" style="stroke:none; fill:#999900" /></g><g sequence="62"><ellipse cx="237" cy="373" rx="17" ry="17" stroke-width="1" style="fill:url(#linearGradientFFFF66FFFF96FFFFB6_1514510978);" stroke="999900" /></g><g sequence="62"><polygon points=" 223 366 238 366 238 359 253 374 238 389 238 382 223 382" style="stroke:#999900; fill:none" /></g><g componentSequence="12"><text x="332" y="109" style="font-size:10px;font-weight:none;stroke:none; fill:#333399" text-anchor="left" /></g><g componentSequence="14"><text x="177" y="107" style="font-size:10px;font-weight:none;stroke:none; fill:#333399" text-anchor="left" /></g><g componentSequence="16"><text x="438" y="227" style="font-size:10px;font-weight:none;stroke:none; fill:#333399" text-anchor="left" /></g><g componentSequence="19"><text x="630" y="254" style="font-size:10px;font-weight:none;stroke:none; fill:#333399" text-anchor="left" /></g><g componentSequence="21"><text x="630" y="200" style="font-size:10px;font-weight:none;stroke:none; fill:#333399" text-anchor="left" /></g><g componentSequence="23"><text x="629" y="508" style="font-size:10px;font-weight:none;stroke:none; fill:#333399" text-anchor="left" /></g><g componentSequence="26"><text x="713" y="599" style="font-size:10px;font-weight:none;stroke:none; fill:#333399" text-anchor="left" /></g><g componentSequence="29"><text x="814" y="668" style="font-size:10px;font-weight:none;stroke:none; fill:#333399" text-anchor="left" /></g><g componentSequence="30"><text x="893" y="745" style="font-size:10px;font-weight:none;stroke:none; fill:#333399" text-anchor="left" /></g><g componentSequence="32"><text x="989" y="800" style="font-size:10px;font-weight:none;stroke:none; fill:#333399" text-anchor="left" /></g><g componentSequence="34"><text x="1156" y="825" style="font-size:10px;font-weight:none;stroke:none; fill:#333399" text-anchor="left" /></g><g componentSequence="39"><text x="237" y="226" style="font-size:10px;font-weight:none;stroke:none; fill:#333399" text-anchor="left" /></g><g componentSequence="42"><text x="439" y="507" style="font-size:10px;font-weight:none;stroke:none; fill:#333399" text-anchor="left" /></g><g componentSequence="43"><text x="624" y="667" style="font-size:10px;font-weight:none;stroke:none; fill:#333399" text-anchor="left" /></g><g componentSequence="44"><text x="806" y="486" style="font-size:10px;font-weight:none;stroke:none; fill:#333399" text-anchor="left" /></g><g componentSequence="45"><text x="978" y="636" style="font-size:10px;font-weight:none;stroke:none; fill:#333399" text-anchor="left" /></g><g componentSequence="46"><text x="1156" y="771" style="font-size:10px;font-weight:none;stroke:none; fill:#333399" text-anchor="left" /></g><g componentSequence="48"><text x="806" y="529" style="font-size:10px;font-weight:none;stroke:none; fill:#333399" text-anchor="left" /></g><g componentSequence="50"><text x="981" y="684" style="font-size:10px;font-weight:none;stroke:none; fill:#333399" text-anchor="left" /></g><g componentSequence="52"><text x="1158" y="799" style="font-size:10px;font-weight:none;stroke:none; fill:#333399" text-anchor="left" /></g><g componentSequence="25"><text x="787" y="262" style="font-size:10px;font-weight:none;stroke:none; fill:#333399" text-anchor="left" /></g><g componentSequence="55"><text x="453" y="304" style="font-size:10px;font-weight:none;stroke:none; fill:#333399" text-anchor="left" /></g><g componentSequence="57"><text x="532" y="374" style="font-size:10px;font-weight:none;stroke:none; fill:#333399" text-anchor="left" /></g><g componentSequence="60"><text x="765" y="391" style="font-size:10px;font-weight:none;stroke:none; fill:#333399" text-anchor="left" /></g><g componentSequence="61"><text x="765" y="350" style="font-size:10px;font-weight:none;stroke:none; fill:#333399" text-anchor="left" /></g><g componentSequence="63"><text x="302" y="373" style="font-size:10px;font-weight:none;stroke:none; fill:#333399" text-anchor="left" /></g><path style="fill:none; stroke:#000000;stroke-width:1" d="M236.0 106.0 L322.0 107.0 L321.0 197.0" /><polygon style="fill:#000000; stroke:#000000;" points=" 326 187 321 197 316 187 321 189" /><path style="fill:none; stroke:#000000;stroke-width:1" d="M136.0 106.0 L198.0 106.0" /><polygon style="fill:#000000; stroke:#000000;" points=" 188 101 198 106 188 111 190 106" /><path style="fill:none; stroke:#000000;stroke-width:1" d="M376.0 226.0 L478.0 226.0" /><polygon style="fill:#000000; stroke:#000000;" points=" 468 221 478 226 468 231 470 226" /><path style="fill:none; stroke:#000000;stroke-width:1" d="M184.0 225.0 L268.0 226.0" /><polygon style="fill:#000000; stroke:#000000;" points=" 258 221 268 226 258 231 260 226" /><path style="fill:none; stroke:#000000;stroke-width:1" d="M566.0 508.0 L672.0 508.0" /><polygon style="fill:#000000; stroke:#000000;" points=" 662 503 672 508 662 513 664 508" /><path style="fill:none; stroke:#000000;stroke-width:1" d="M397.0 506.0 L458.0 506.0" /><polygon style="fill:#000000; stroke:#000000;" points=" 448 501 458 506 448 511 450 506" /><path style="fill:none; stroke:#000000;stroke-width:1" d="M756.0 668.0 L852.0 668.0" /><polygon style="fill:#000000; stroke:#000000;" points=" 842 663 852 668 842 673 844 668" /><path style="fill:none; stroke:#000000;stroke-width:1" d="M702.0 560.0 L702.0 638.0" /><polygon style="fill:#000000; stroke:#000000;" points=" 707 628 702 638 697 628 702 630" /><path style="fill:none; stroke:#000000;stroke-width:1" d="M577.0 666.0 L648.0 666.0" /><polygon style="fill:#000000; stroke:#000000;" points=" 638 661 648 666 638 671 640 666" /><path style="fill:none; stroke:#000000;stroke-width:1" d="M936.0 800.0 L1021.0 800.0" /><polygon style="fill:#000000; stroke:#000000;" points=" 1011 795 1021 800 1011 805 1013 800" /><path style="fill:none; stroke:#000000;stroke-width:1" d="M882.0 720.0 L882.0 770.0" /><polygon style="fill:#000000; stroke:#000000;" points=" 887 760 882 770 877 760 882 762" /><path style="fill:none; stroke:#000000;stroke-width:1" d="M540.0 233.0 L700.0 273.0" /><polygon style="fill:#000000; stroke:#000000;" points=" 692 266 700 273 689 275 692 271" /><path style="fill:none; stroke:#000000;stroke-width:1" d="M540.0 218.0 L700.0 181.0" /><polygon style="fill:#000000; stroke:#000000;" points=" 689 178 700 181 691 188 692 183" /><path style="fill:none; stroke:#000000;stroke-width:1" d="M478.0 261.0 L408.0 344.0" /><polygon style="fill:#000000; stroke:#000000;" points=" 418 340 408 344 411 333 413 338" /><path style="fill:none; stroke:#000000;stroke-dasharray:2" d="M818.0 250.0 L734.0 273.0" /><path style="fill:none; stroke:#000000;stroke-width:1" d="M733.0 501.0 L860.0 470.0" /><polygon style="fill:#000000; stroke:#000000;" points=" 849 468 860 470 851 477 852 472" /><path style="fill:none; stroke:#000000;stroke-width:1" d="M733.0 514.0 L860.0 542.0" /><polygon style="fill:#000000; stroke:#000000;" points=" 851 535 860 542 849 545 852 540" /><path style="fill:none; stroke:#000000;stroke-width:1" d="M913.0 656.0 L1022.0 613.0" /><polygon style="fill:#000000; stroke:#000000;" points=" 1011 612 1022 613 1015 621 1015 616" /><path style="fill:none; stroke:#000000;stroke-width:1" d="M913.0 673.0 L1029.0 694.0" /><polygon style="fill:#000000; stroke:#000000;" points=" 1020 687 1029 694 1018 697 1021 693" /><path style="fill:none; stroke:#000000;stroke-width:1" d="M1084.0 808.0 L1209.0 842.0" /><polygon style="fill:#000000; stroke:#000000;" points=" 1201 835 1209 842 1198 844 1201 840" /><path style="fill:none; stroke:#000000;stroke-width:1" d="M1084.0 790.0 L1209.0 752.0" /><polygon style="fill:#000000; stroke:#000000;" points=" 1198 750 1209 752 1201 760 1201 754" /><path style="fill:none; stroke:#000000;stroke-width:1" d="M1084.0 800.0 L1212.0 798.0" /><polygon style="fill:#000000; stroke:#000000;" points=" 1202 793 1212 798 1202 803 1204 798" /><path style="fill:none; stroke:#000000;stroke-width:1" d="M436.0 373.0 L608.0 373.0" /><polygon style="fill:#000000; stroke:#000000;" points=" 598 368 608 373 598 378 600 373" /><path style="fill:none; stroke:#000000;stroke-width:1" d="M256.0 373.0 L328.0 373.0" /><polygon style="fill:#000000; stroke:#000000;" points=" 318 368 328 373 318 378 320 373" /><path style="fill:none; stroke:#000000;stroke-width:1" d="M670.0 378.0 L840.0 404.0" /><polygon style="fill:#000000; stroke:#000000;" points=" 831 398 840 404 829 407 832 403" /><path style="fill:none; stroke:#000000;stroke-width:1" d="M670.0 366.0 L840.0 332.0" /><polygon style="fill:#000000; stroke:#000000;" points=" 829 329 840 332 831 339 832 334" /><defs><linearGradient xmlns:xlink="http://www.w3.org/1999/xlink" xlink:href="#linearGradient66FF6696FF96B6FFB6" id="linearGradient66FF6696FF96B6FFB6_355167060" x1="0" y1="90.0" x2="0" y2="125.0" gradientUnits="userSpaceOnUse" xlink:type="simple" xlink:actuate="onLoad" xlink:show="other" /><linearGradient id="linearGradient66FF6696FF96B6FFB6"><stop style="stop-color:#66FF66;stop-opacity:1;" offset="0.0" id="stop66FF66" /><stop style="stop-color:#96FF96;stop-opacity:1;" offset="0.5" id="stop96FF96" /><stop style="stop-color:#B6FFB6;stop-opacity:1;" offset="1.0" id="stopB6FFB6" /></linearGradient><linearGradient xmlns:xlink="http://www.w3.org/1999/xlink" xlink:href="#linearGradientF8FBFEEDF5FCDEEDFAD4E7F8E2E5E9" id="linearGradientF8FBFEEDF5FCDEEDFAD4E7F8E2E5E9_468490113" x1="0" y1="199.0" x2="0" y2="305.0" gradientUnits="userSpaceOnUse" xlink:type="simple" xlink:actuate="onLoad" xlink:show="other" /><linearGradient id="linearGradientF8FBFEEDF5FCDEEDFAD4E7F8E2E5E9"><stop style="stop-color:#F8FBFE;stop-opacity:1;" offset="0.0" id="stopF8FBFE" /><stop style="stop-color:#EDF5FC;stop-opacity:1;" offset="0.25" id="stopEDF5FC" /><stop style="stop-color:#DEEDFA;stop-opacity:1;" offset="0.5" id="stopDEEDFA" /><stop style="stop-color:#D4E7F8;stop-opacity:1;" offset="0.75" id="stopD4E7F8" /><stop style="stop-color:#E2E5E9;stop-opacity:1;" offset="1.0" id="stopE2E5E9" /></linearGradient><linearGradient xmlns:xlink="http://www.w3.org/1999/xlink" xlink:href="#linearGradientF8FBFEEDF5FCDEEDFAD4E7F8E2E5E9" id="linearGradientF8FBFEEDF5FCDEEDFAD4E7F8E2E5E9_533921828" x1="0" y1="480.0" x2="0" y2="586.0" gradientUnits="userSpaceOnUse" xlink:type="simple" xlink:actuate="onLoad" xlink:show="other" /><linearGradient xmlns:xlink="http://www.w3.org/1999/xlink" xlink:href="#linearGradientF8FBFEEDF5FCDEEDFAD4E7F8E2E5E9" id="linearGradientF8FBFEEDF5FCDEEDFAD4E7F8E2E5E9_1523686842" x1="0" y1="640.0" x2="0" y2="746.0" gradientUnits="userSpaceOnUse" xlink:type="simple" xlink:actuate="onLoad" xlink:show="other" /><linearGradient xmlns:xlink="http://www.w3.org/1999/xlink" xlink:href="#linearGradientF8FBFEEDF5FCDEEDFAD4E7F8E2E5E9" id="linearGradientF8FBFEEDF5FCDEEDFAD4E7F8E2E5E9_351157375" x1="0" y1="772.0" x2="0" y2="878.0" gradientUnits="userSpaceOnUse" xlink:type="simple" xlink:actuate="onLoad" xlink:show="other" /><linearGradient xmlns:xlink="http://www.w3.org/1999/xlink" xlink:href="#linearGradientFFFF66FFFF96FFFFB6" id="linearGradientFFFF66FFFF96FFFFB6_1799479804" x1="0" y1="90.0" x2="0" y2="125.0" gradientUnits="userSpaceOnUse" xlink:type="simple" xlink:actuate="onLoad" xlink:show="other" /><linearGradient id="linearGradientFFFF66FFFF96FFFFB6"><stop style="stop-color:#FFFF66;stop-opacity:1;" offset="0.0" id="stopFFFF66" /><stop style="stop-color:#FFFF96;stop-opacity:1;" offset="0.5" id="stopFFFF96" /><stop style="stop-color:#FFFFB6;stop-opacity:1;" offset="1.0" id="stopFFFFB6" /></linearGradient><linearGradient xmlns:xlink="http://www.w3.org/1999/xlink" xlink:href="#linearGradientFAFBFCFFFFCC" id="linearGradientFAFBFCFFFFCC_1821646480" x1="0" y1="176.0" x2="0" y2="236.0" gradientUnits="userSpaceOnUse" xlink:type="simple" xlink:actuate="onLoad" xlink:show="other" /><linearGradient id="linearGradientFAFBFCFFFFCC"><stop style="stop-color:#FAFBFC;stop-opacity:1;" offset="0.0" id="stopFAFBFC" /><stop style="stop-color:#FFFFCC;stop-opacity:1;" offset="1.0" id="stopFFFFCC" /></linearGradient><linearGradient xmlns:xlink="http://www.w3.org/1999/xlink" xlink:href="#linearGradientFF6666FF9696FFB6B6" id="linearGradientFF6666FF9696FFB6B6_989750005" x1="0" y1="260.0" x2="0" y2="295.0" gradientUnits="userSpaceOnUse" xlink:type="simple" xlink:actuate="onLoad" xlink:show="other" /><linearGradient id="linearGradientFF6666FF9696FFB6B6"><stop style="stop-color:#FF6666;stop-opacity:1;" offset="0.0" id="stopFF6666" /><stop style="stop-color:#FF9696;stop-opacity:1;" offset="0.5" id="stopFF9696" /><stop style="stop-color:#FFB6B6;stop-opacity:1;" offset="1.0" id="stopFFB6B6" /></linearGradient><linearGradient xmlns:xlink="http://www.w3.org/1999/xlink" xlink:href="#linearGradientFFFF66FFFF96FFFFB6" id="linearGradientFFFF66FFFF96FFFFB6_1595321361" x1="0" y1="160.0" x2="0" y2="195.0" gradientUnits="userSpaceOnUse" xlink:type="simple" xlink:actuate="onLoad" xlink:show="other" /><linearGradient xmlns:xlink="http://www.w3.org/1999/xlink" xlink:href="#linearGradientFAFBFCFFFFCC" id="linearGradientFAFBFCFFFFCC_993851406" x1="0" y1="457.0" x2="0" y2="517.0" gradientUnits="userSpaceOnUse" xlink:type="simple" xlink:actuate="onLoad" xlink:show="other" /><linearGradient xmlns:xlink="http://www.w3.org/1999/xlink" xlink:href="#linearGradientFAFBFCFFFFCC" id="linearGradientFAFBFCFFFFCC_2005930343" x1="0" y1="617.0" x2="0" y2="677.0" gradientUnits="userSpaceOnUse" xlink:type="simple" xlink:actuate="onLoad" xlink:show="other" /><linearGradient xmlns:xlink="http://www.w3.org/1999/xlink" xlink:href="#linearGradientFAFBFCFFFFCC" id="linearGradientFAFBFCFFFFCC_1051737258" x1="0" y1="749.0" x2="0" y2="809.0" gradientUnits="userSpaceOnUse" xlink:type="simple" xlink:actuate="onLoad" xlink:show="other" /><linearGradient xmlns:xlink="http://www.w3.org/1999/xlink" xlink:href="#linearGradientFF6666FF9696FFB6B6" id="linearGradientFF6666FF9696FFB6B6_1420589385" x1="0" y1="830.0" x2="0" y2="865.0" gradientUnits="userSpaceOnUse" xlink:type="simple" xlink:actuate="onLoad" xlink:show="other" /><linearGradient xmlns:xlink="http://www.w3.org/1999/xlink" xlink:href="#linearGradientFFFF66FFFF96FFFFB6" id="linearGradientFFFF66FFFF96FFFFB6_135010138" x1="0" y1="591.0" x2="0" y2="626.0" gradientUnits="userSpaceOnUse" xlink:type="simple" xlink:actuate="onLoad" xlink:show="other" /><linearGradient xmlns:xlink="http://www.w3.org/1999/xlink" xlink:href="#linearGradientFFFF66FFFF96FFFFB6" id="linearGradientFFFF66FFFF96FFFFB6_2145399829" x1="0" y1="730.0" x2="0" y2="765.0" gradientUnits="userSpaceOnUse" xlink:type="simple" xlink:actuate="onLoad" xlink:show="other" /><linearGradient xmlns:xlink="http://www.w3.org/1999/xlink" xlink:href="#linearGradientFFFF66FFFF96FFFFB6" id="linearGradientFFFF66FFFF96FFFFB6_1082786351" x1="0" y1="450.0" x2="0" y2="485.0" gradientUnits="userSpaceOnUse" xlink:type="simple" xlink:actuate="onLoad" xlink:show="other" /><linearGradient xmlns:xlink="http://www.w3.org/1999/xlink" xlink:href="#linearGradientFFFF66FFFF96FFFFB6" id="linearGradientFFFF66FFFF96FFFFB6_2002476358" x1="0" y1="209.0" x2="0" y2="244.0" gradientUnits="userSpaceOnUse" xlink:type="simple" xlink:actuate="onLoad" xlink:show="other" /><linearGradient xmlns:xlink="http://www.w3.org/1999/xlink" xlink:href="#linearGradientFFFF66FFFF96FFFFB6" id="linearGradientFFFF66FFFF96FFFFB6_520434224" x1="0" y1="490.0" x2="0" y2="525.0" gradientUnits="userSpaceOnUse" xlink:type="simple" xlink:actuate="onLoad" xlink:show="other" /><linearGradient xmlns:xlink="http://www.w3.org/1999/xlink" xlink:href="#linearGradientFFFF66FFFF96FFFFB6" id="linearGradientFFFF66FFFF96FFFFB6_1631317337" x1="0" y1="650.0" x2="0" y2="685.0" gradientUnits="userSpaceOnUse" xlink:type="simple" xlink:actuate="onLoad" xlink:show="other" /><linearGradient xmlns:xlink="http://www.w3.org/1999/xlink" xlink:href="#linearGradientFFFF66FFFF96FFFFB6" id="linearGradientFFFF66FFFF96FFFFB6_1907359787" x1="0" y1="530.0" x2="0" y2="565.0" gradientUnits="userSpaceOnUse" xlink:type="simple" xlink:actuate="onLoad" xlink:show="other" /><linearGradient xmlns:xlink="http://www.w3.org/1999/xlink" xlink:href="#linearGradientFFFF66FFFF96FFFFB6" id="linearGradientFFFF66FFFF96FFFFB6_1546441270" x1="0" y1="680.0" x2="0" y2="715.0" gradientUnits="userSpaceOnUse" xlink:type="simple" xlink:actuate="onLoad" xlink:show="other" /><linearGradient xmlns:xlink="http://www.w3.org/1999/xlink" xlink:href="#linearGradientFFFF66FFFF96FFFFB6" id="linearGradientFFFF66FFFF96FFFFB6_1787756337" x1="0" y1="782.0" x2="0" y2="817.0" gradientUnits="userSpaceOnUse" xlink:type="simple" xlink:actuate="onLoad" xlink:show="other" /><linearGradient xmlns:xlink="http://www.w3.org/1999/xlink" xlink:href="#linearGradientF8FBFEEDF5FCDEEDFAD4E7F8E2E5E9" id="linearGradientF8FBFEEDF5FCDEEDFAD4E7F8E2E5E9_1415677468" x1="0" y1="346.0" x2="0" y2="451.0" gradientUnits="userSpaceOnUse" xlink:type="simple" xlink:actuate="onLoad" xlink:show="other" /><linearGradient xmlns:xlink="http://www.w3.org/1999/xlink" xlink:href="#linearGradientFAFBFCFFFFCC" id="linearGradientFAFBFCFFFFCC_622949859" x1="0" y1="323.0" x2="0" y2="383.0" gradientUnits="userSpaceOnUse" xlink:type="simple" xlink:actuate="onLoad" xlink:show="other" /><linearGradient xmlns:xlink="http://www.w3.org/1999/xlink" xlink:href="#linearGradientFFFF66FFFF96FFFFB6" id="linearGradientFFFF66FFFF96FFFFB6_531017235" x1="0" y1="312.0" x2="0" y2="347.0" gradientUnits="userSpaceOnUse" xlink:type="simple" xlink:actuate="onLoad" xlink:show="other" /><linearGradient xmlns:xlink="http://www.w3.org/1999/xlink" xlink:href="#linearGradientFFFF66FFFF96FFFFB6" id="linearGradientFFFF66FFFF96FFFFB6_46968225" x1="0" y1="390.0" x2="0" y2="425.0" gradientUnits="userSpaceOnUse" xlink:type="simple" xlink:actuate="onLoad" xlink:show="other" /><linearGradient xmlns:xlink="http://www.w3.org/1999/xlink" xlink:href="#linearGradientFFFF66FFFF96FFFFB6" id="linearGradientFFFF66FFFF96FFFFB6_1514510978" x1="0" y1="356.0" x2="0" y2="391.0" gradientUnits="userSpaceOnUse" xlink:type="simple" xlink:actuate="onLoad" xlink:show="other" /></defs></svg>
