<?xml version="1.0" encoding="UTF-8"?>
<svg xmlns="http://www.w3.org/2000/svg" style="stroke-dasharray:none; shape-rendering:auto; font-family:'Arial'; text-rendering:auto; fill-opacity:1; color-interpolation:auto; color-rendering:auto; font-size:12; fill:black; stroke:black; image-rendering:auto; stroke-miterlimit:10; stroke-linecap:square; stroke-linejoin:miter; font-style:normal; stroke-width:1; stroke-dashoffset:0; font-weight:normal; stroke-opacity:1;" contentScriptType="text/ecmascript" preserveAspectRatio="xMidYMid meet" zoomAndPan="magnify" version="1.0" contentStyleType="text/css" xml:xlink="http://www.w3.org/1999/xlink" width="1361" height="791"><rect x="30" y="20" width="1331" height="771" ry="0" rx="0" style="stroke:#000000; fill:#FFFFFF" /><rect x="60" y="636" width="1301" height="155" ry="0" rx="0" style="stroke:#000000; fill:#C9C3AC" /><g componentSequence="6"><text x="-713" y="67" transform="rotate(270)" text-anchor="middle" style="font-weight:bold;font-size:10px;stroke:none; fill:#434343"><tspan dy="14" x="-713">DP - Admissão</tspan></text></g><rect x="60" y="328" width="1301" height="154" ry="0" rx="0" style="stroke:#000000; fill:#D6E0D0" /><g componentSequence="5"><text x="-405" y="67" transform="rotate(270)" text-anchor="middle" style="font-weight:bold;font-size:10px;stroke:none; fill:#434343"><tspan dy="14" x="-405">TI</tspan></text></g><rect x="60" y="174" width="1301" height="154" ry="0" rx="0" style="stroke:#000000; fill:#D0DAAE" /><g componentSequence="4"><text x="-251" y="67" transform="rotate(270)" text-anchor="middle" style="font-weight:bold;font-size:10px;stroke:none; fill:#434343"><tspan dy="14" x="-251">RH</tspan></text></g><rect x="60" y="482" width="1301" height="154" ry="0" rx="0" style="stroke:#000000; fill:#ADC9AC" /><g componentSequence="3"><text x="-559" y="67" transform="rotate(270)" text-anchor="middle" style="font-weight:bold;font-size:10px;stroke:none; fill:#434343"><tspan dy="14" x="-559">Gerente</tspan></text></g><rect x="60" y="20" width="1301" height="154" ry="0" rx="0" style="stroke:#000000; fill:#82B0B7" /><g componentSequence="2"><text x="-97" y="67" transform="rotate(270)" text-anchor="middle" style="font-weight:bold;font-size:10px;stroke:none; fill:#434343"><tspan dy="14" x="-97">Solicitante</tspan></text></g><g componentSequence="1"><text x="-405" y="37" transform="rotate(270)" text-anchor="middle" style="font-weight:bold;font-size:10px;stroke:none; fill:#434343"><tspan dy="14" x="-405">Recrutamento e Seleção</tspan></text></g><g sequence="1"><ellipse cx="243" cy="98" rx="17" ry="17" stroke-width="1" style="fill:url(#linearGradient66FF6696FF96B6FFB6_952882773);" stroke="336633" /></g><g sequence="2"><rect x="310" y="225" width="106" height="56" ry="5" rx="5" style="fill:url(#linearGradientF8FBFEEDF5FCDEEDFAD4E7F8E2E5E9_906768188);" stroke="191970" /></g><g componentSequence="2"><text x="363" y="242" text-anchor="middle" style="font-weight:bold;font-size:10px;stroke:none; fill:#333399"><tspan dy="14" x="363">Gerente</tspan></text></g><g sequence="3"><rect x="467" y="379" width="106" height="56" ry="5" rx="5" style="fill:url(#linearGradientF8FBFEEDF5FCDEEDFAD4E7F8E2E5E9_842251557);" stroke="191970" /></g><g componentSequence="3"><text x="520" y="396" text-anchor="middle" style="font-weight:bold;font-size:10px;stroke:none; fill:#333399"><tspan dy="14" x="520">RH</tspan></text></g><g sequence="4"><rect x="647" y="533" width="106" height="56" ry="5" rx="5" style="fill:url(#linearGradientF8FBFEEDF5FCDEEDFAD4E7F8E2E5E9_1999709447);" stroke="191970" /></g><g componentSequence="4"><text x="700" y="550" text-anchor="middle" style="font-weight:bold;font-size:10px;stroke:none; fill:#333399"><tspan dy="14" x="700">T.I.</tspan></text></g><g sequence="5"><rect x="807" y="688" width="106" height="56" ry="5" rx="5" style="fill:url(#linearGradientF8FBFEEDF5FCDEEDFAD4E7F8E2E5E9_288242890);" stroke="191970" /></g><g componentSequence="5"><text x="860" y="705" text-anchor="middle" style="font-weight:bold;font-size:10px;stroke:none; fill:#333399"><tspan dy="14" x="860">DP - Admissão</tspan></text></g><g sequence="12"><ellipse cx="127" cy="98" rx="17" ry="17" stroke-width="1" style="fill:url(#linearGradientFFFF66FFFF96FFFFB6_1183618076);" stroke="999900" /></g><g sequence="12"><polygon points=" 113 91 128 91 128 84 143 99 128 114 128 107 113 107" style="stroke:#999900; fill:none" /></g><g sequence="13"><ellipse cx="197" cy="252" rx="17" ry="17" stroke-width="1" style="fill:url(#linearGradientFFFF66FFFF96FFFFB6_1769591677);" stroke="999900" /></g><g sequence="13"><polygon points=" 183 245 198 245 198 238 213 253 198 268 198 261 183 261" style="stroke:#999900; fill:none" /></g><g sequence="15"><ellipse cx="557" cy="560" rx="17" ry="17" stroke-width="1" style="fill:url(#linearGradientFFFF66FFFF96FFFFB6_387897928);" stroke="999900" /></g><g sequence="15"><polygon points=" 543 553 558 553 558 546 573 561 558 576 558 569 543 569" style="stroke:#999900; fill:none" /></g><g sequence="16"><ellipse cx="367" cy="406" rx="17" ry="17" stroke-width="1" style="fill:url(#linearGradientFFFF66FFFF96FFFFB6_2000059405);" stroke="999900" /></g><g sequence="16"><polygon points=" 353 399 368 399 368 392 383 407 368 422 368 415 353 415" style="stroke:#999900; fill:none" /></g><g sequence="20"><polygon points=" 490 232 520 202 550 232 520 262 490 232" style="fill:url(#linearGradientFAFBFCFFFFCC_1429748355);" stroke="000000" /></g><g componentSequence="20"><text x="520" y="272" text-anchor="middle" style="font-weight:bold;font-size:10px;stroke:none; fill:#333399"><tspan dy="14" x="520">Exclusiv</tspan><tspan dy="14" x="520">o</tspan></text></g><g sequence="22"><polygon points=" 670 386 700 356 730 386 700 416 670 386" style="fill:url(#linearGradientFAFBFCFFFFCC_1920858466);" stroke="000000" /></g><g componentSequence="22"><text x="700" y="426" text-anchor="middle" style="font-weight:bold;font-size:10px;stroke:none; fill:#333399"><tspan dy="14" x="700">Exclusiv</tspan><tspan dy="14" x="700">o</tspan></text></g><g sequence="24"><polygon points=" 830 540 860 510 890 540 860 570 830 540" style="fill:url(#linearGradientFAFBFCFFFFCC_324051455);" stroke="000000" /></g><g componentSequence="24"><text x="860" y="580" text-anchor="middle" style="font-weight:bold;font-size:10px;stroke:none; fill:#333399"><tspan dy="14" x="860">Exclusiv</tspan><tspan dy="14" x="860">o</tspan></text></g><g sequence="26"><polygon points=" 990 695 1020 665 1050 695 1020 725 990 695" style="fill:url(#linearGradientFAFBFCFFFFCC_1472360844);" stroke="000000" /></g><g componentSequence="26"><text x="1020" y="735" text-anchor="middle" style="font-weight:bold;font-size:10px;stroke:none; fill:#333399"><tspan dy="14" x="1020">Exclusiv</tspan><tspan dy="14" x="1020">o</tspan></text></g><g sequence="31"><ellipse cx="1177" cy="767" rx="17" ry="17" stroke-width="3" style="fill:url(#linearGradientFF6666FF9696FFB6B6_1127917013);" stroke="993333" /></g><g sequence="33"><ellipse cx="677" cy="207" rx="17" ry="17" stroke-width="1" style="fill:url(#linearGradientFFFF66FFFF96FFFFB6_1578230329);" stroke="999900" /></g><g sequence="33"><polygon points=" 663 200 678 200 678 193 693 208 678 223 678 216 663 216" style="stroke:none; fill:#999900" /></g><g sequence="34"><ellipse cx="807" cy="297" rx="17" ry="17" stroke-width="3" style="fill:url(#linearGradientFF6666FF9696FFB6B6_1213787997);" stroke="993333" /></g><g sequence="40"><ellipse cx="867" cy="357" rx="17" ry="17" stroke-width="1" style="fill:url(#linearGradientFFFF66FFFF96FFFFB6_215136715);" stroke="999900" /></g><g sequence="40"><polygon points=" 853 350 868 350 868 343 883 358 868 373 868 366 853 366" style="stroke:none; fill:#999900" /></g><g sequence="41"><ellipse cx="1037" cy="507" rx="17" ry="17" stroke-width="1" style="fill:url(#linearGradientFFFF66FFFF96FFFFB6_449884553);" stroke="999900" /></g><g sequence="41"><polygon points=" 1023 500 1038 500 1038 493 1053 508 1038 523 1038 516 1023 516" style="stroke:none; fill:#999900" /></g><g sequence="42"><ellipse cx="1177" cy="657" rx="17" ry="17" stroke-width="1" style="fill:url(#linearGradientFFFF66FFFF96FFFFB6_1258391744);" stroke="999900" /></g><g sequence="42"><polygon points=" 1163 650 1178 650 1178 643 1193 658 1178 673 1178 666 1163 666" style="stroke:none; fill:#999900" /></g><g sequence="49"><ellipse cx="1177" cy="715" rx="17" ry="17" stroke-width="1" style="fill:url(#linearGradientFFFF66FFFF96FFFFB6_1152165114);" stroke="999900" /></g><g sequence="49"><polygon points=" 1163 708 1178 708 1178 701 1193 716 1178 731 1178 724 1163 724" style="stroke:none; fill:#999900" /></g><g sequence="50"><ellipse cx="1037" cy="607" rx="17" ry="17" stroke-width="1" style="fill:url(#linearGradientFFFF66FFFF96FFFFB6_1571373381);" stroke="999900" /></g><g sequence="50"><polygon points=" 1023 600 1038 600 1038 593 1053 608 1038 623 1038 616 1023 616" style="stroke:none; fill:#999900" /></g><g sequence="51"><ellipse cx="867" cy="447" rx="17" ry="17" stroke-width="1" style="fill:url(#linearGradientFFFF66FFFF96FFFFB6_1122697088);" stroke="999900" /></g><g sequence="51"><polygon points=" 853 440 868 440 868 433 883 448 868 463 868 456 853 456" style="stroke:none; fill:#999900" /></g><rect x="940" y="251" width="105" height="55" ry="5" rx="5" style="stroke:none; fill:#FFFFE0" /><g componentSequence="47"><text x="950" y="274" text-anchor="left" style="font-weight:bold;font-size:10px;stroke:none; fill:#000000"><tspan dy="14" x="950">Admissão não</tspan><tspan dy="14" x="950">aprovada</tspan></text></g><path style="fill:none; stroke-width:1; stroke:#000000;" d="M960.0 251.0 L940.0 251.0 L940.0 306.0 L960.0 306.0" /><g componentSequence="17"><text x="195" y="98" style="font-size:10px;font-weight:none;stroke:none; fill:#333399" text-anchor="left" /></g><g componentSequence="18"><text x="372" y="111" style="font-size:10px;font-weight:none;stroke:none; fill:#333399" text-anchor="left" /></g><g componentSequence="19"><text x="272" y="252" style="font-size:10px;font-weight:none;stroke:none; fill:#333399" text-anchor="left" /></g><g componentSequence="21"><text x="463" y="253" style="font-size:10px;font-weight:none;stroke:none; fill:#333399" text-anchor="left" /></g><g componentSequence="23"><text x="631" y="407" style="font-size:10px;font-weight:none;stroke:none; fill:#333399" text-anchor="left" /></g><g componentSequence="25"><text x="801" y="561" style="font-size:10px;font-weight:none;stroke:none; fill:#333399" text-anchor="left" /></g><g componentSequence="27"><text x="961" y="716" style="font-size:10px;font-weight:none;stroke:none; fill:#333399" text-anchor="left" /></g><g componentSequence="28"><text x="436" y="406" style="font-size:10px;font-weight:none;stroke:none; fill:#333399" text-anchor="left" /></g><g componentSequence="29"><text x="621" y="560" style="font-size:10px;font-weight:none;stroke:none; fill:#333399" text-anchor="left" /></g><g componentSequence="32"><text x="1115" y="743" style="font-size:10px;font-weight:none;stroke:none; fill:#333399" text-anchor="left" /></g><g componentSequence="35"><text x="615" y="228" style="font-size:10px;font-weight:none;stroke:none; fill:#333399" text-anchor="left" /></g><g componentSequence="36"><text x="680" y="276" style="font-size:10px;font-weight:none;stroke:none; fill:#333399" text-anchor="left" /></g><g componentSequence="37"><text x="530" y="341" style="font-size:10px;font-weight:none;stroke:none; fill:#333399" text-anchor="left" /></g><g componentSequence="38"><text x="710" y="495" style="font-size:10px;font-weight:none;stroke:none; fill:#333399" text-anchor="left" /></g><g componentSequence="39"><text x="870" y="650" style="font-size:10px;font-weight:none;stroke:none; fill:#333399" text-anchor="left" /></g><g componentSequence="43"><text x="1115" y="684" style="font-size:10px;font-weight:none;stroke:none; fill:#333399" text-anchor="left" /></g><g componentSequence="44"><text x="965" y="532" style="font-size:10px;font-weight:none;stroke:none; fill:#333399" text-anchor="left" /></g><g componentSequence="45"><text x="800" y="380" style="font-size:10px;font-weight:none;stroke:none; fill:#333399" text-anchor="left" /></g><g componentSequence="46"><text x="770" y="345" style="font-size:10px;font-weight:none;stroke:none; fill:#333399" text-anchor="left" /></g><g componentSequence="52"><text x="800" y="429" style="font-size:10px;font-weight:none;stroke:none; fill:#333399" text-anchor="left" /></g><g componentSequence="53"><text x="965" y="585" style="font-size:10px;font-weight:none;stroke:none; fill:#333399" text-anchor="left" /></g><g componentSequence="54"><text x="1115" y="715" style="font-size:10px;font-weight:none;stroke:none; fill:#333399" text-anchor="left" /></g><g componentSequence="48"><text x="892" y="289" style="font-size:10px;font-weight:none;stroke:none; fill:#333399" text-anchor="left" /></g><path style="fill:none; stroke:#000000;stroke-width:1" d="M261.0 98.0 L362.0 98.0 L362.0 224.0" /><polygon style="fill:#000000; stroke:#000000;" points=" 367 214 362 224 357 214 362 216" /><path style="fill:none; stroke:#000000;stroke-width:1" d="M145.0 98.0 L225.0 98.0" /><polygon style="fill:#000000; stroke:#000000;" points=" 215 93 225 98 215 103 217 98" /><path style="fill:none; stroke:#000000;stroke-width:1" d="M416.0 253.0 L489.0 253.0" /><polygon style="fill:#000000; stroke:#000000;" points=" 479 248 489 253 479 258 481 253" /><path style="fill:none; stroke:#000000;stroke-width:1" d="M214.0 252.0 L309.0 252.0" /><polygon style="fill:#000000; stroke:#000000;" points=" 299 247 309 252 299 257 301 252" /><path style="fill:none; stroke:#000000;stroke-width:1" d="M573.0 407.0 L669.0 407.0" /><polygon style="fill:#000000; stroke:#000000;" points=" 659 402 669 407 659 412 661 407" /><path style="fill:none; stroke:#000000;stroke-width:1" d="M384.0 406.0 L466.0 406.0" /><polygon style="fill:#000000; stroke:#000000;" points=" 456 401 466 406 456 411 458 406" /><path style="fill:none; stroke:#000000;stroke-width:1" d="M520.0 304.0 L520.0 378.0" /><polygon style="fill:#000000; stroke:#000000;" points=" 525 368 520 378 515 368 520 370" /><path style="fill:none; stroke:#000000;stroke-width:1" d="M753.0 561.0 L829.0 561.0" /><polygon style="fill:#000000; stroke:#000000;" points=" 819 556 829 561 819 566 821 561" /><path style="fill:none; stroke:#000000;stroke-width:1" d="M574.0 560.0 L646.0 560.0" /><polygon style="fill:#000000; stroke:#000000;" points=" 636 555 646 560 636 565 638 560" /><path style="fill:none; stroke:#000000;stroke-width:1" d="M700.0 458.0 L700.0 532.0" /><polygon style="fill:#000000; stroke:#000000;" points=" 705 522 700 532 695 522 700 524" /><path style="fill:none; stroke:#000000;stroke-width:1" d="M913.0 716.0 L989.0 716.0" /><polygon style="fill:#000000; stroke:#000000;" points=" 979 711 989 716 979 721 981 716" /><path style="fill:none; stroke:#000000;stroke-width:1" d="M860.0 612.0 L860.0 687.0" /><polygon style="fill:#000000; stroke:#000000;" points=" 865 677 860 687 855 677 860 679" /><path style="fill:none; stroke:#000000;stroke-width:1" d="M550.0 244.0 L660.0 212.0" /><polygon style="fill:#000000; stroke:#000000;" points=" 649 210 660 212 652 220 652 214" /><path style="fill:none; stroke:#000000;stroke-width:1" d="M550.0 257.0 L790.0 295.0" /><polygon style="fill:#000000; stroke:#000000;" points=" 781 288 790 295 779 298 782 294" /><path style="fill:none; stroke:#000000;stroke-width:1" d="M730.0 397.0 L850.0 362.0" /><polygon style="fill:#000000; stroke:#000000;" points=" 839 360 850 362 842 370 842 364" /><path style="fill:none; stroke:#000000;stroke-width:1" d="M730.0 375.0 L795.0 309.0" /><polygon style="fill:#000000; stroke:#000000;" points=" 784 313 795 309 792 320 789 315" /><path style="fill:none; stroke:#000000;stroke-width:1" d="M730.0 414.0 L850.0 443.0" /><polygon style="fill:#000000; stroke:#000000;" points=" 841 436 850 443 839 446 842 441" /><path style="fill:none; stroke:#000000;stroke-width:1" d="M890.0 551.0 L1020.0 512.0" /><polygon style="fill:#000000; stroke:#000000;" points=" 1009 510 1020 512 1012 520 1012 514" /><path style="fill:none; stroke:#000000;stroke-width:1" d="M890.0 568.0 L1020.0 603.0" /><polygon style="fill:#000000; stroke:#000000;" points=" 1012 596 1020 603 1009 605 1012 601" /><path style="fill:none; stroke:#000000;stroke-width:1" d="M1050.0 725.0 L1160.0 762.0" /><polygon style="fill:#000000; stroke:#000000;" points=" 1152 754 1160 762 1149 764 1152 759" /><path style="fill:none; stroke:#000000;stroke-width:1" d="M1050.0 704.0 L1161.0 663.0" /><polygon style="fill:#000000; stroke:#000000;" points=" 1150 662 1161 663 1153 671 1153 666" /><path style="fill:none; stroke:#000000;stroke-width:1" d="M1050.0 715.0 L1160.0 715.0" /><polygon style="fill:#000000; stroke:#000000;" points=" 1150 710 1160 715 1150 720 1152 715" /><path style="fill:none; stroke:#000000;stroke-dasharray:2" d="M939.0 283.0 L824.0 296.0" /><defs><linearGradient xmlns:xlink="http://www.w3.org/1999/xlink" xlink:href="#linearGradient66FF6696FF96B6FFB6" id="linearGradient66FF6696FF96B6FFB6_952882773" x1="0" y1="81.0" x2="0" y2="116.0" gradientUnits="userSpaceOnUse" xlink:type="simple" xlink:actuate="onLoad" xlink:show="other" /><linearGradient id="linearGradient66FF6696FF96B6FFB6"><stop style="stop-color:#66FF66;stop-opacity:1;" offset="0.0" id="stop66FF66" /><stop style="stop-color:#96FF96;stop-opacity:1;" offset="0.5" id="stop96FF96" /><stop style="stop-color:#B6FFB6;stop-opacity:1;" offset="1.0" id="stopB6FFB6" /></linearGradient><linearGradient xmlns:xlink="http://www.w3.org/1999/xlink" xlink:href="#linearGradientF8FBFEEDF5FCDEEDFAD4E7F8E2E5E9" id="linearGradientF8FBFEEDF5FCDEEDFAD4E7F8E2E5E9_906768188" x1="0" y1="225.0" x2="0" y2="331.0" gradientUnits="userSpaceOnUse" xlink:type="simple" xlink:actuate="onLoad" xlink:show="other" /><linearGradient id="linearGradientF8FBFEEDF5FCDEEDFAD4E7F8E2E5E9"><stop style="stop-color:#F8FBFE;stop-opacity:1;" offset="0.0" id="stopF8FBFE" /><stop style="stop-color:#EDF5FC;stop-opacity:1;" offset="0.25" id="stopEDF5FC" /><stop style="stop-color:#DEEDFA;stop-opacity:1;" offset="0.5" id="stopDEEDFA" /><stop style="stop-color:#D4E7F8;stop-opacity:1;" offset="0.75" id="stopD4E7F8" /><stop style="stop-color:#E2E5E9;stop-opacity:1;" offset="1.0" id="stopE2E5E9" /></linearGradient><linearGradient xmlns:xlink="http://www.w3.org/1999/xlink" xlink:href="#linearGradientF8FBFEEDF5FCDEEDFAD4E7F8E2E5E9" id="linearGradientF8FBFEEDF5FCDEEDFAD4E7F8E2E5E9_842251557" x1="0" y1="379.0" x2="0" y2="485.0" gradientUnits="userSpaceOnUse" xlink:type="simple" xlink:actuate="onLoad" xlink:show="other" /><linearGradient xmlns:xlink="http://www.w3.org/1999/xlink" xlink:href="#linearGradientF8FBFEEDF5FCDEEDFAD4E7F8E2E5E9" id="linearGradientF8FBFEEDF5FCDEEDFAD4E7F8E2E5E9_1999709447" x1="0" y1="533.0" x2="0" y2="639.0" gradientUnits="userSpaceOnUse" xlink:type="simple" xlink:actuate="onLoad" xlink:show="other" /><linearGradient xmlns:xlink="http://www.w3.org/1999/xlink" xlink:href="#linearGradientF8FBFEEDF5FCDEEDFAD4E7F8E2E5E9" id="linearGradientF8FBFEEDF5FCDEEDFAD4E7F8E2E5E9_288242890" x1="0" y1="688.0" x2="0" y2="794.0" gradientUnits="userSpaceOnUse" xlink:type="simple" xlink:actuate="onLoad" xlink:show="other" /><linearGradient xmlns:xlink="http://www.w3.org/1999/xlink" xlink:href="#linearGradientFFFF66FFFF96FFFFB6" id="linearGradientFFFF66FFFF96FFFFB6_1183618076" x1="0" y1="81.0" x2="0" y2="116.0" gradientUnits="userSpaceOnUse" xlink:type="simple" xlink:actuate="onLoad" xlink:show="other" /><linearGradient id="linearGradientFFFF66FFFF96FFFFB6"><stop style="stop-color:#FFFF66;stop-opacity:1;" offset="0.0" id="stopFFFF66" /><stop style="stop-color:#FFFF96;stop-opacity:1;" offset="0.5" id="stopFFFF96" /><stop style="stop-color:#FFFFB6;stop-opacity:1;" offset="1.0" id="stopFFFFB6" /></linearGradient><linearGradient xmlns:xlink="http://www.w3.org/1999/xlink" xlink:href="#linearGradientFFFF66FFFF96FFFFB6" id="linearGradientFFFF66FFFF96FFFFB6_1769591677" x1="0" y1="235.0" x2="0" y2="270.0" gradientUnits="userSpaceOnUse" xlink:type="simple" xlink:actuate="onLoad" xlink:show="other" /><linearGradient xmlns:xlink="http://www.w3.org/1999/xlink" xlink:href="#linearGradientFFFF66FFFF96FFFFB6" id="linearGradientFFFF66FFFF96FFFFB6_387897928" x1="0" y1="543.0" x2="0" y2="578.0" gradientUnits="userSpaceOnUse" xlink:type="simple" xlink:actuate="onLoad" xlink:show="other" /><linearGradient xmlns:xlink="http://www.w3.org/1999/xlink" xlink:href="#linearGradientFFFF66FFFF96FFFFB6" id="linearGradientFFFF66FFFF96FFFFB6_2000059405" x1="0" y1="389.0" x2="0" y2="424.0" gradientUnits="userSpaceOnUse" xlink:type="simple" xlink:actuate="onLoad" xlink:show="other" /><linearGradient xmlns:xlink="http://www.w3.org/1999/xlink" xlink:href="#linearGradientFAFBFCFFFFCC" id="linearGradientFAFBFCFFFFCC_1429748355" x1="0" y1="202.0" x2="0" y2="262.0" gradientUnits="userSpaceOnUse" xlink:type="simple" xlink:actuate="onLoad" xlink:show="other" /><linearGradient id="linearGradientFAFBFCFFFFCC"><stop style="stop-color:#FAFBFC;stop-opacity:1;" offset="0.0" id="stopFAFBFC" /><stop style="stop-color:#FFFFCC;stop-opacity:1;" offset="1.0" id="stopFFFFCC" /></linearGradient><linearGradient xmlns:xlink="http://www.w3.org/1999/xlink" xlink:href="#linearGradientFAFBFCFFFFCC" id="linearGradientFAFBFCFFFFCC_1920858466" x1="0" y1="356.0" x2="0" y2="416.0" gradientUnits="userSpaceOnUse" xlink:type="simple" xlink:actuate="onLoad" xlink:show="other" /><linearGradient xmlns:xlink="http://www.w3.org/1999/xlink" xlink:href="#linearGradientFAFBFCFFFFCC" id="linearGradientFAFBFCFFFFCC_324051455" x1="0" y1="510.0" x2="0" y2="570.0" gradientUnits="userSpaceOnUse" xlink:type="simple" xlink:actuate="onLoad" xlink:show="other" /><linearGradient xmlns:xlink="http://www.w3.org/1999/xlink" xlink:href="#linearGradientFAFBFCFFFFCC" id="linearGradientFAFBFCFFFFCC_1472360844" x1="0" y1="665.0" x2="0" y2="725.0" gradientUnits="userSpaceOnUse" xlink:type="simple" xlink:actuate="onLoad" xlink:show="other" /><linearGradient xmlns:xlink="http://www.w3.org/1999/xlink" xlink:href="#linearGradientFF6666FF9696FFB6B6" id="linearGradientFF6666FF9696FFB6B6_1127917013" x1="0" y1="750.0" x2="0" y2="785.0" gradientUnits="userSpaceOnUse" xlink:type="simple" xlink:actuate="onLoad" xlink:show="other" /><linearGradient id="linearGradientFF6666FF9696FFB6B6"><stop style="stop-color:#FF6666;stop-opacity:1;" offset="0.0" id="stopFF6666" /><stop style="stop-color:#FF9696;stop-opacity:1;" offset="0.5" id="stopFF9696" /><stop style="stop-color:#FFB6B6;stop-opacity:1;" offset="1.0" id="stopFFB6B6" /></linearGradient><linearGradient xmlns:xlink="http://www.w3.org/1999/xlink" xlink:href="#linearGradientFFFF66FFFF96FFFFB6" id="linearGradientFFFF66FFFF96FFFFB6_1578230329" x1="0" y1="190.0" x2="0" y2="225.0" gradientUnits="userSpaceOnUse" xlink:type="simple" xlink:actuate="onLoad" xlink:show="other" /><linearGradient xmlns:xlink="http://www.w3.org/1999/xlink" xlink:href="#linearGradientFF6666FF9696FFB6B6" id="linearGradientFF6666FF9696FFB6B6_1213787997" x1="0" y1="280.0" x2="0" y2="315.0" gradientUnits="userSpaceOnUse" xlink:type="simple" xlink:actuate="onLoad" xlink:show="other" /><linearGradient xmlns:xlink="http://www.w3.org/1999/xlink" xlink:href="#linearGradientFFFF66FFFF96FFFFB6" id="linearGradientFFFF66FFFF96FFFFB6_215136715" x1="0" y1="340.0" x2="0" y2="375.0" gradientUnits="userSpaceOnUse" xlink:type="simple" xlink:actuate="onLoad" xlink:show="other" /><linearGradient xmlns:xlink="http://www.w3.org/1999/xlink" xlink:href="#linearGradientFFFF66FFFF96FFFFB6" id="linearGradientFFFF66FFFF96FFFFB6_449884553" x1="0" y1="490.0" x2="0" y2="525.0" gradientUnits="userSpaceOnUse" xlink:type="simple" xlink:actuate="onLoad" xlink:show="other" /><linearGradient xmlns:xlink="http://www.w3.org/1999/xlink" xlink:href="#linearGradientFFFF66FFFF96FFFFB6" id="linearGradientFFFF66FFFF96FFFFB6_1258391744" x1="0" y1="640.0" x2="0" y2="675.0" gradientUnits="userSpaceOnUse" xlink:type="simple" xlink:actuate="onLoad" xlink:show="other" /><linearGradient xmlns:xlink="http://www.w3.org/1999/xlink" xlink:href="#linearGradientFFFF66FFFF96FFFFB6" id="linearGradientFFFF66FFFF96FFFFB6_1152165114" x1="0" y1="698.0" x2="0" y2="733.0" gradientUnits="userSpaceOnUse" xlink:type="simple" xlink:actuate="onLoad" xlink:show="other" /><linearGradient xmlns:xlink="http://www.w3.org/1999/xlink" xlink:href="#linearGradientFFFF66FFFF96FFFFB6" id="linearGradientFFFF66FFFF96FFFFB6_1571373381" x1="0" y1="590.0" x2="0" y2="625.0" gradientUnits="userSpaceOnUse" xlink:type="simple" xlink:actuate="onLoad" xlink:show="other" /><linearGradient xmlns:xlink="http://www.w3.org/1999/xlink" xlink:href="#linearGradientFFFF66FFFF96FFFFB6" id="linearGradientFFFF66FFFF96FFFFB6_1122697088" x1="0" y1="430.0" x2="0" y2="465.0" gradientUnits="userSpaceOnUse" xlink:type="simple" xlink:actuate="onLoad" xlink:show="other" /></defs></svg>
