<?xml version="1.0" encoding="UTF-8"?>
<svg xmlns="http://www.w3.org/2000/svg" style="stroke-dasharray:none; shape-rendering:auto; font-family:'Arial'; text-rendering:auto; fill-opacity:1; color-interpolation:auto; color-rendering:auto; font-size:12; fill:black; stroke:black; image-rendering:auto; stroke-miterlimit:10; stroke-linecap:square; stroke-linejoin:miter; font-style:normal; stroke-width:1; stroke-dashoffset:0; font-weight:normal; stroke-opacity:1;" contentScriptType="text/ecmascript" preserveAspectRatio="xMidYMid meet" zoomAndPan="magnify" version="1.0" contentStyleType="text/css" xml:xlink="http://www.w3.org/1999/xlink" width="1101" height="1004"><rect x="22" y="144" width="1079" height="145" ry="0" rx="0" style="stroke:#000000; fill:#C9C3AC" /><g componentSequence="103"><text x="-216" y="29" transform="rotate(270)" text-anchor="middle" style="font-weight:bold;font-size:10px;stroke:none; fill:#434343"><tspan dy="14" x="-216">Custos</tspan></text></g><rect x="22" y="859" width="1079" height="145" ry="0" rx="0" style="stroke:#000000; fill:#C9C3AC" /><g componentSequence="4"><text x="-931" y="29" transform="rotate(270)" text-anchor="middle" style="font-weight:bold;font-size:10px;stroke:none; fill:#434343"><tspan dy="14" x="-931">Custos</tspan></text></g><rect x="22" y="570" width="1079" height="145" ry="0" rx="0" style="stroke:#000000; fill:#D0DAAE" /><g componentSequence="3"><text x="-642" y="29" transform="rotate(270)" text-anchor="middle" style="font-weight:bold;font-size:10px;stroke:none; fill:#434343"><tspan dy="14" x="-642">Faturamento</tspan></text></g><rect x="22" y="427" width="1079" height="145" ry="0" rx="0" style="stroke:#000000; fill:#ADC9AC" /><g componentSequence="6"><text x="-499" y="29" transform="rotate(270)" text-anchor="middle" style="font-weight:bold;font-size:10px;stroke:none; fill:#434343"><tspan dy="14" x="-499">Fiscal</tspan></text></g><rect x="22" y="281" width="1079" height="145" ry="0" rx="0" style="stroke:#000000; fill:#9FC1C6" /><g componentSequence="2"><text x="-353" y="29" transform="rotate(270)" text-anchor="middle" style="font-weight:bold;font-size:10px;stroke:none; fill:#434343"><tspan dy="14" x="-353">Logística</tspan></text></g><rect x="22" y="715" width="1079" height="145" ry="0" rx="0" style="stroke:#000000; fill:#D6E0D0" /><g componentSequence="1"><text x="-787" y="29" transform="rotate(270)" text-anchor="middle" style="font-weight:bold;font-size:10px;stroke:none; fill:#434343"><tspan dy="14" x="-787">Financeiro</tspan></text></g><rect x="22" y="0" width="1079" height="145" ry="0" rx="0" style="stroke:#000000; fill:#82B0B7" /><g componentSequence="5"><text x="-72" y="29" transform="rotate(270)" text-anchor="middle" style="font-weight:bold;font-size:10px;stroke:none; fill:#434343"><tspan dy="14" x="-72">Solicitante</tspan></text></g><g sequence="1"><ellipse cx="262" cy="73" rx="17" ry="17" stroke-width="1" style="fill:url(#linearGradient66FF6696FF96B6FFB6_441760482);" stroke="336633" /></g><g sequence="3"><rect x="210" y="472" width="106" height="56" ry="5" rx="5" style="fill:url(#linearGradientF8FBFEEDF5FCDEEDFAD4E7F8E2E5E9_345200600);" stroke="191970" /></g><g componentSequence="3"><text x="263" y="489" text-anchor="middle" style="font-weight:bold;font-size:10px;stroke:none; fill:#333399"><tspan dy="14" x="263">Fiscal</tspan></text></g><g sequence="4"><rect x="210" y="616" width="106" height="56" ry="5" rx="5" style="fill:url(#linearGradientF8FBFEEDF5FCDEEDFAD4E7F8E2E5E9_279761298);" stroke="191970" /></g><g componentSequence="4"><text x="263" y="633" text-anchor="middle" style="font-weight:bold;font-size:10px;stroke:none; fill:#333399"><tspan dy="14" x="263">Faturamentos</tspan></text></g><g sequence="5"><rect x="210" y="761" width="106" height="56" ry="5" rx="5" style="fill:url(#linearGradientF8FBFEEDF5FCDEEDFAD4E7F8E2E5E9_1437490659);" stroke="191970" /></g><g componentSequence="5"><text x="263" y="778" text-anchor="middle" style="font-weight:bold;font-size:10px;stroke:none; fill:#333399"><tspan dy="14" x="263">Financeiro</tspan></text></g><g sequence="6"><ellipse cx="717" cy="932" rx="17" ry="17" stroke-width="3" style="fill:url(#linearGradientFF6666FF9696FFB6B6_1779596830);" stroke="993333" /></g><g sequence="27"><ellipse cx="127" cy="73" rx="17" ry="17" stroke-width="1" style="fill:url(#linearGradientFFFF66FFFF96FFFFB6_1689372947);" stroke="999900" /></g><g sequence="27"><polygon points=" 113 66 128 66 128 59 143 74 128 89 128 82 113 82" style="stroke:#999900; fill:none" /></g><g sequence="29"><ellipse cx="127" cy="500" rx="17" ry="17" stroke-width="1" style="fill:url(#linearGradientFFFF66FFFF96FFFFB6_317174870);" stroke="999900" /></g><g sequence="29"><polygon points=" 113 493 128 493 128 486 143 501 128 516 128 509 113 509" style="stroke:#999900; fill:none" /></g><g sequence="31"><ellipse cx="127" cy="643" rx="17" ry="17" stroke-width="1" style="fill:url(#linearGradientFFFF66FFFF96FFFFB6_897688236);" stroke="999900" /></g><g sequence="31"><polygon points=" 113 636 128 636 128 629 143 644 128 659 128 652 113 652" style="stroke:#999900; fill:none" /></g><g sequence="35"><ellipse cx="727" cy="500" rx="17" ry="17" stroke-width="3" style="fill:url(#linearGradientFF6666FF9696FFB6B6_1285216396);" stroke="993333" /></g><g sequence="38"><polygon points=" 370 486 400 456 430 486 400 516 370 486" style="fill:url(#linearGradientFAFBFCFFFFCC_638155101);" stroke="000000" /></g><g componentSequence="38"><text x="400" y="519" text-anchor="middle" style="font-weight:bold;font-size:10px;stroke:none; fill:#333399"><tspan dy="14" x="400">Valida</tspan></text></g><g sequence="39"><polygon points=" 380 630 410 600 440 630 410 660 380 630" style="fill:url(#linearGradientFAFBFCFFFFCC_165887182);" stroke="000000" /></g><g componentSequence="39"><text x="410" y="663" text-anchor="middle" style="font-weight:bold;font-size:10px;stroke:none; fill:#333399"><tspan dy="14" x="410">Valida</tspan></text></g><g sequence="40"><polygon points=" 400 775 430 745 460 775 430 805 400 775" style="fill:url(#linearGradientFAFBFCFFFFCC_835681180);" stroke="000000" /></g><g componentSequence="40"><text x="430" y="808" text-anchor="middle" style="font-weight:bold;font-size:10px;stroke:none; fill:#333399"><tspan dy="14" x="430">Valida</tspan></text></g><g sequence="51"><ellipse cx="597" cy="836" rx="17" ry="17" stroke-width="1" style="fill:url(#linearGradientFFFF66FFFF96FFFFB6_722181009);" stroke="999900" /></g><g sequence="51"><polygon points=" 583 829 598 829 598 822 613 837 598 852 598 845 583 845" style="stroke:none; fill:#999900" /></g><g sequence="52"><ellipse cx="627" cy="701" rx="17" ry="17" stroke-width="1" style="fill:url(#linearGradientFFFF66FFFF96FFFFB6_1185274940);" stroke="999900" /></g><g sequence="52"><polygon points=" 613 694 628 694 628 687 643 702 628 717 628 710 613 710" style="stroke:none; fill:#999900" /></g><g sequence="53"><ellipse cx="527" cy="451" rx="17" ry="17" stroke-width="1" style="fill:url(#linearGradientFFFF66FFFF96FFFFB6_1446022506);" stroke="999900" /></g><g sequence="53"><polygon points=" 513 444 528 444 528 437 543 452 528 467 528 460 513 460" style="stroke:none; fill:#999900" /></g><g sequence="57"><ellipse cx="627" cy="591" rx="17" ry="17" stroke-width="1" style="fill:url(#linearGradientFFFF66FFFF96FFFFB6_476647339);" stroke="999900" /></g><g sequence="57"><polygon points=" 613 584 628 584 628 577 643 592 628 607 628 600 613 600" style="stroke:none; fill:#999900" /></g><g sequence="59"><ellipse cx="597" cy="736" rx="17" ry="17" stroke-width="1" style="fill:url(#linearGradientFFFF66FFFF96FFFFB6_1799997604);" stroke="999900" /></g><g sequence="59"><polygon points=" 583 729 598 729 598 722 613 737 598 752 598 745 583 745" style="stroke:none; fill:#999900" /></g><g sequence="69"><rect x="210" y="327" width="106" height="56" ry="5" rx="5" style="fill:url(#linearGradientF8FBFEEDF5FCDEEDFAD4E7F8E2E5E9_65383885);" stroke="191970" /></g><g componentSequence="69"><text x="263" y="344" text-anchor="middle" style="font-weight:bold;font-size:10px;stroke:none; fill:#333399"><tspan dy="14" x="263">Logística</tspan></text></g><g sequence="70"><rect x="210" y="905" width="106" height="56" ry="5" rx="5" style="fill:url(#linearGradientF8FBFEEDF5FCDEEDFAD4E7F8E2E5E9_1366043398);" stroke="191970" /></g><g componentSequence="70"><text x="263" y="922" text-anchor="middle" style="font-weight:bold;font-size:10px;stroke:none; fill:#333399"><tspan dy="14" x="263">Custos</tspan></text></g><g sequence="71"><ellipse cx="127" cy="354" rx="17" ry="17" stroke-width="1" style="fill:url(#linearGradientFFFF66FFFF96FFFFB6_86799063);" stroke="999900" /></g><g sequence="71"><polygon points=" 113 347 128 347 128 340 143 355 128 370 128 363 113 363" style="stroke:#999900; fill:none" /></g><g sequence="72"><ellipse cx="127" cy="788" rx="17" ry="17" stroke-width="1" style="fill:url(#linearGradientFFFF66FFFF96FFFFB6_545621566);" stroke="999900" /></g><g sequence="72"><polygon points=" 113 781 128 781 128 774 143 789 128 804 128 797 113 797" style="stroke:#999900; fill:none" /></g><g sequence="75"><polygon points=" 390 341 420 311 450 341 420 371 390 341" style="fill:url(#linearGradientFAFBFCFFFFCC_237030438);" stroke="000000" /></g><g componentSequence="75"><text x="420" y="374" text-anchor="middle" style="font-weight:bold;font-size:10px;stroke:none; fill:#333399"><tspan dy="14" x="420">Valida</tspan></text></g><g sequence="77"><ellipse cx="607" cy="301" rx="17" ry="17" stroke-width="1" style="fill:url(#linearGradientFFFF66FFFF96FFFFB6_1050993407);" stroke="999900" /></g><g sequence="77"><polygon points=" 593 294 608 294 608 287 623 302 608 317 608 310 593 310" style="stroke:none; fill:#999900" /></g><g sequence="78"><ellipse cx="527" cy="541" rx="17" ry="17" stroke-width="1" style="fill:url(#linearGradientFFFF66FFFF96FFFFB6_1492682038);" stroke="999900" /></g><g sequence="78"><polygon points=" 513 534 528 534 528 527 543 542 528 557 528 550 513 550" style="stroke:none; fill:#999900" /></g><g sequence="80"><polygon points=" 390 919 420 889 450 919 420 949 390 919" style="fill:url(#linearGradientFAFBFCFFFFCC_1413500001);" stroke="000000" /></g><g componentSequence="80"><text x="420" y="952" text-anchor="middle" style="font-weight:bold;font-size:10px;stroke:none; fill:#333399"><tspan dy="14" x="420">Valida</tspan></text></g><g sequence="83"><ellipse cx="617" cy="891" rx="17" ry="17" stroke-width="1" style="fill:url(#linearGradientFFFF66FFFF96FFFFB6_1544158003);" stroke="999900" /></g><g sequence="83"><polygon points=" 603 884 618 884 618 877 633 892 618 907 618 900 603 900" style="stroke:none; fill:#999900" /></g><g sequence="84"><ellipse cx="617" cy="981" rx="17" ry="17" stroke-width="1" style="fill:url(#linearGradientFFFF66FFFF96FFFFB6_1159944535);" stroke="999900" /></g><g sequence="84"><polygon points=" 603 974 618 974 618 967 633 982 618 997 618 990 603 990" style="stroke:none; fill:#999900" /></g><g sequence="92"><ellipse cx="737" cy="788" rx="17" ry="17" stroke-width="3" style="fill:url(#linearGradientFF6666FF9696FFB6B6_1500423664);" stroke="993333" /></g><g sequence="97"><ellipse cx="607" cy="401" rx="17" ry="17" stroke-width="1" style="fill:url(#linearGradientFFFF66FFFF96FFFFB6_253479416);" stroke="999900" /></g><g sequence="97"><polygon points=" 593 394 608 394 608 387 623 402 608 417 608 410 593 410" style="stroke:none; fill:#999900" /></g><g sequence="99"><ellipse cx="717" cy="643" rx="17" ry="17" stroke-width="1" style="fill:url(#linearGradientFFFF66FFFF96FFFFB6_483949387);" stroke="999900" /></g><g sequence="99"><polygon points=" 703 636 718 636 718 629 733 644 718 659 718 652 703 652" style="stroke:none; fill:#999900" /></g><g sequence="101"><ellipse cx="547" cy="981" rx="17" ry="17" stroke-width="1" style="fill:url(#linearGradientFFFF66FFFF96FFFFB6_1139699814);" stroke="999900" /></g><g sequence="101"><polygon points=" 533 974 548 974 548 967 563 982 548 997 548 990 533 990" style="stroke:none; fill:#999900" /></g><rect x="330" y="46" width="105" height="55" ry="5" rx="5" style="stroke:none; fill:#FFFFE0" /><g componentSequence="1"><text x="340" y="59" text-anchor="left" style="font-weight:bold;font-size:10px;stroke:none; fill:#000000"><tspan dy="14" x="340">Início</tspan></text></g><path style="fill:none; stroke-width:1; stroke:#000000;" d="M350.0 46.0 L330.0 46.0 L330.0 101.0 L350.0 101.0" /><rect x="790" y="905" width="105" height="55" ry="5" rx="5" style="stroke:none; fill:#FFFFE0" /><g componentSequence="2"><text x="800" y="928" text-anchor="left" style="font-weight:bold;font-size:10px;stroke:none; fill:#000000"><tspan dy="14" x="800">Devolução</tspan><tspan dy="14" x="800">Concluída</tspan></text></g><path style="fill:none; stroke-width:1; stroke:#000000;" d="M810.0 905.0 L790.0 905.0 L790.0 960.0 L810.0 960.0" /><rect x="800" y="473" width="105" height="55" ry="5" rx="5" style="stroke:none; fill:#FFFFE0" /><g componentSequence="36"><text x="810" y="496" text-anchor="left" style="font-weight:bold;font-size:10px;stroke:none; fill:#000000"><tspan dy="14" x="810">Devolução</tspan><tspan dy="14" x="810">Negada</tspan></text></g><path style="fill:none; stroke-width:1; stroke:#000000;" d="M820.0 473.0 L800.0 473.0 L800.0 528.0 L820.0 528.0" /><rect x="820" y="761" width="105" height="55" ry="5" rx="5" style="stroke:none; fill:#FFFFE0" /><g componentSequence="93"><text x="830" y="784" text-anchor="left" style="font-weight:bold;font-size:10px;stroke:none; fill:#000000"><tspan dy="14" x="830">Devolução</tspan><tspan dy="14" x="830">Negada</tspan></text></g><path style="fill:none; stroke-width:1; stroke:#000000;" d="M840.0 761.0 L820.0 761.0 L820.0 816.0 L840.0 816.0" /><g sequence="104"><rect x="210" y="190" width="106" height="56" ry="5" rx="5" style="fill:url(#linearGradientF8FBFEEDF5FCDEEDFAD4E7F8E2E5E9_1870859470);" stroke="191970" /></g><g componentSequence="104"><text x="263" y="207" text-anchor="middle" style="font-weight:bold;font-size:10px;stroke:none; fill:#333399"><tspan dy="14" x="263">Custos</tspan></text></g><g sequence="106"><polygon points=" 410 197 440 167 470 197 440 227 410 197" style="fill:url(#linearGradientFAFBFCFFFFCC_1040600271);" stroke="000000" /></g><g componentSequence="106"><text x="440" y="237" text-anchor="middle" style="font-weight:bold;font-size:10px;stroke:none; fill:#333399"><tspan dy="14" x="440">Exclusiv</tspan><tspan dy="14" x="440">o</tspan></text></g><g sequence="108"><ellipse cx="657" cy="354" rx="17" ry="17" stroke-width="1" style="fill:url(#linearGradientFFFF66FFFF96FFFFB6_1641769575);" stroke="999900" /></g><g sequence="108"><polygon points=" 643 347 658 347 658 340 673 355 658 370 658 363 643 363" style="stroke:none; fill:#999900" /></g><g sequence="109"><ellipse cx="127" cy="217" rx="17" ry="17" stroke-width="1" style="fill:url(#linearGradientFFFF66FFFF96FFFFB6_1359371130);" stroke="999900" /></g><g sequence="109"><polygon points=" 113 210 128 210 128 203 143 218 128 233 128 226 113 226" style="stroke:#999900; fill:none" /></g><g sequence="111"><ellipse cx="597" cy="217" rx="17" ry="17" stroke-width="1" style="fill:url(#linearGradientFFFF66FFFF96FFFFB6_638896360);" stroke="999900" /></g><g sequence="111"><polygon points=" 583 210 598 210 598 203 613 218 598 233 598 226 583 226" style="stroke:none; fill:#999900" /></g><g componentSequence="28"><text x="205" y="73" style="font-size:10px;font-weight:none;stroke:none; fill:#333399" text-anchor="left" /></g><g componentSequence="30"><text x="187" y="500" style="font-size:10px;font-weight:none;stroke:none; fill:#333399" text-anchor="left" /></g><g componentSequence="32"><text x="187" y="643" style="font-size:10px;font-weight:none;stroke:none; fill:#333399" text-anchor="left" /></g><g componentSequence="42"><text x="353" y="500" style="font-size:10px;font-weight:none;stroke:none; fill:#333399" text-anchor="left" /></g><g componentSequence="43"><text x="340" y="574" style="font-size:10px;font-weight:none;stroke:none; fill:#333399" text-anchor="left" /></g><g componentSequence="44"><text x="580" y="500" style="font-size:10px;font-weight:none;stroke:none; fill:#333399" text-anchor="left" /></g><g componentSequence="45"><text x="358" y="644" style="font-size:10px;font-weight:none;stroke:none; fill:#333399" text-anchor="left" /></g><g componentSequence="46"><text x="345" y="717" style="font-size:10px;font-weight:none;stroke:none; fill:#333399" text-anchor="left" /></g><g componentSequence="47"><text x="585" y="569" style="font-size:10px;font-weight:none;stroke:none; fill:#333399" text-anchor="left" /></g><g componentSequence="49"><text x="368" y="789" style="font-size:10px;font-weight:none;stroke:none; fill:#333399" text-anchor="left" /></g><g componentSequence="54"><text x="480" y="473" style="font-size:10px;font-weight:none;stroke:none; fill:#333399" text-anchor="left" /></g><g componentSequence="55"><text x="564" y="643" style="font-size:10px;font-weight:none;stroke:none; fill:#333399" text-anchor="left" /></g><g componentSequence="56"><text x="554" y="787" style="font-size:10px;font-weight:none;stroke:none; fill:#333399" text-anchor="left" /></g><g componentSequence="58"><text x="561" y="643" style="font-size:10px;font-weight:none;stroke:none; fill:#333399" text-anchor="left" /></g><g componentSequence="60"><text x="555" y="787" style="font-size:10px;font-weight:none;stroke:none; fill:#333399" text-anchor="left" /></g><g componentSequence="73"><text x="187" y="354" style="font-size:10px;font-weight:none;stroke:none; fill:#333399" text-anchor="left" /></g><g componentSequence="74"><text x="187" y="788" style="font-size:10px;font-weight:none;stroke:none; fill:#333399" text-anchor="left" /></g><g componentSequence="76"><text x="363" y="355" style="font-size:10px;font-weight:none;stroke:none; fill:#333399" text-anchor="left" /></g><g componentSequence="79"><text x="590" y="430" style="font-size:10px;font-weight:none;stroke:none; fill:#333399" text-anchor="left" /></g><g componentSequence="81"><text x="585" y="932" style="font-size:10px;font-weight:none;stroke:none; fill:#333399" text-anchor="left" /></g><g componentSequence="82"><text x="363" y="933" style="font-size:10px;font-weight:none;stroke:none; fill:#333399" text-anchor="left" /></g><g componentSequence="85"><text x="351" y="427" style="font-size:10px;font-weight:none;stroke:none; fill:#333399" text-anchor="left" /></g><g componentSequence="86"><text x="358" y="860" style="font-size:10px;font-weight:none;stroke:none; fill:#333399" text-anchor="left" /></g><g componentSequence="87"><text x="559" y="933" style="font-size:10px;font-weight:none;stroke:none; fill:#333399" text-anchor="left" /></g><g componentSequence="88"><text x="480" y="522" style="font-size:10px;font-weight:none;stroke:none; fill:#333399" text-anchor="left" /></g><g componentSequence="89"><text x="556" y="933" style="font-size:10px;font-weight:none;stroke:none; fill:#333399" text-anchor="left" /></g><g componentSequence="91"><text x="557" y="355" style="font-size:10px;font-weight:none;stroke:none; fill:#333399" text-anchor="left" /></g><g componentSequence="95"><text x="595" y="858" style="font-size:10px;font-weight:none;stroke:none; fill:#333399" text-anchor="left" /></g><g componentSequence="96"><text x="600" y="788" style="font-size:10px;font-weight:none;stroke:none; fill:#333399" text-anchor="left" /></g><g componentSequence="98"><text x="553" y="355" style="font-size:10px;font-weight:none;stroke:none; fill:#333399" text-anchor="left" /></g><g componentSequence="100"><text x="580" y="643" style="font-size:10px;font-weight:none;stroke:none; fill:#333399" text-anchor="left" /></g><g componentSequence="102"><text x="525" y="932" style="font-size:10px;font-weight:none;stroke:none; fill:#333399" text-anchor="left" /></g><g componentSequence="1"><text x="315" y="73" style="font-size:10px;font-weight:none;stroke:none; fill:#333399" text-anchor="left" /></g><g componentSequence="2"><text x="772" y="932" style="font-size:10px;font-weight:none;stroke:none; fill:#333399" text-anchor="left" /></g><g componentSequence="37"><text x="782" y="500" style="font-size:10px;font-weight:none;stroke:none; fill:#333399" text-anchor="left" /></g><g componentSequence="94"><text x="797" y="788" style="font-size:10px;font-weight:none;stroke:none; fill:#333399" text-anchor="left" /></g><g componentSequence="105"><text x="272" y="140" style="font-size:10px;font-weight:none;stroke:none; fill:#333399" text-anchor="left" /></g><g componentSequence="107"><text x="373" y="218" style="font-size:10px;font-weight:none;stroke:none; fill:#333399" text-anchor="left" /></g><g componentSequence="110"><text x="364" y="284" style="font-size:10px;font-weight:none;stroke:none; fill:#333399" text-anchor="left" /></g><g componentSequence="112"><text x="535" y="217" style="font-size:10px;font-weight:none;stroke:none; fill:#333399" text-anchor="left" /></g><g componentSequence="113"><text x="187" y="217" style="font-size:10px;font-weight:none;stroke:none; fill:#333399" text-anchor="left" /></g><g componentSequence="114"><text x="555" y="354" style="font-size:10px;font-weight:none;stroke:none; fill:#333399" text-anchor="left" /></g><path style="fill:none; stroke:#000000;stroke-width:1" d="M262.0 90.0 L262.0 189.0" /><polygon style="fill:#000000; stroke:#000000;" points=" 267 179 262 189 257 179 262 181" /><path style="fill:none; stroke:#000000;stroke-width:1" d="M145.0 73.0 L244.0 73.0" /><polygon style="fill:#000000; stroke:#000000;" points=" 234 68 244 73 234 78 236 73" /><path style="fill:none; stroke:#000000;stroke-dasharray:2" d="M329.0 73.0 L280.0 73.0" /><path style="fill:none; stroke:#000000;stroke-width:1" d="M316.0 500.0 L369.0 500.0" /><polygon style="fill:#000000; stroke:#000000;" points=" 359 495 369 500 359 505 361 500" /><path style="fill:none; stroke:#000000;stroke-width:1" d="M145.0 500.0 L209.0 500.0" /><polygon style="fill:#000000; stroke:#000000;" points=" 199 495 209 500 199 505 201 500" /><path style="fill:none; stroke:#000000;stroke-width:1" d="M389.0 383.0 L294.0 471.0" /><polygon style="fill:#000000; stroke:#000000;" points=" 305 468 294 471 298 461 300 466" /><path style="fill:none; stroke:#000000;stroke-width:1" d="M316.0 644.0 L379.0 644.0" /><polygon style="fill:#000000; stroke:#000000;" points=" 369 639 379 644 369 649 371 644" /><path style="fill:none; stroke:#000000;stroke-width:1" d="M144.0 643.0 L209.0 643.0" /><polygon style="fill:#000000; stroke:#000000;" points=" 199 638 209 643 199 648 201 643" /><path style="fill:none; stroke:#000000;stroke-width:1" d="M369.0 532.0 L290.0 615.0" /><polygon style="fill:#000000; stroke:#000000;" points=" 301 611 290 615 293 604 296 609" /><path style="fill:none; stroke:#000000;stroke-width:1" d="M316.0 789.0 L399.0 789.0" /><polygon style="fill:#000000; stroke:#000000;" points=" 389 784 399 789 389 794 391 789" /><path style="fill:none; stroke:#000000;stroke-width:1" d="M379.0 674.0 L292.0 760.0" /><polygon style="fill:#000000; stroke:#000000;" points=" 303 757 292 760 296 749 298 754" /><path style="fill:none; stroke:#000000;stroke-width:1" d="M144.0 788.0 L209.0 788.0" /><polygon style="fill:#000000; stroke:#000000;" points=" 199 783 209 788 199 793 201 788" /><path style="fill:none; stroke:#000000;stroke-width:1" d="M450.0 932.0 L700.0 932.0" /><polygon style="fill:#000000; stroke:#000000;" points=" 690 927 700 932 690 937 692 932" /><path style="fill:none; stroke:#000000;stroke-dasharray:2" d="M789.0 932.0 L735.0 932.0" /><path style="fill:none; stroke:#000000;stroke-width:1" d="M430.0 500.0 L709.0 500.0" /><polygon style="fill:#000000; stroke:#000000;" points=" 699 495 709 500 699 505 701 500" /><path style="fill:none; stroke:#000000;stroke-width:1" d="M440.0 630.0 L711.0 507.0" /><polygon style="fill:#000000; stroke:#000000;" points=" 700 507 711 507 704 516 704 510" /><path style="fill:none; stroke:#000000;stroke-width:1" d="M450.0 369.0 L711.0 493.0" /><polygon style="fill:#000000; stroke:#000000;" points=" 704 484 711 493 700 493 704 490" /><path style="fill:none; stroke:#000000;stroke-dasharray:2" d="M799.0 500.0 L745.0 500.0" /><path style="fill:none; stroke:#000000;stroke-width:1" d="M430.0 488.0 L511.0 457.0" /><polygon style="fill:#000000; stroke:#000000;" points=" 500 456 511 457 503 465 504 460" /><path style="fill:none; stroke:#000000;stroke-width:1" d="M430.0 509.0 L510.0 536.0" /><polygon style="fill:#000000; stroke:#000000;" points=" 502 528 510 536 499 538 502 533" /><path style="fill:none; stroke:#000000;stroke-width:1" d="M440.0 643.0 L627.0 643.0 L627.0 683.0" /><polygon style="fill:#000000; stroke:#000000;" points=" 632 673 627 683 622 673 627 675" /><path style="fill:none; stroke:#000000;stroke-width:1" d="M440.0 643.0 L627.0 643.0 L627.0 609.0" /><polygon style="fill:#000000; stroke:#000000;" points=" 622 619 627 609 632 619 627 617" /><path style="fill:none; stroke:#000000;stroke-width:1" d="M440.0 643.0 L700.0 643.0" /><polygon style="fill:#000000; stroke:#000000;" points=" 690 638 700 643 690 648 692 643" /><path style="fill:none; stroke:#000000;stroke-width:1" d="M460.0 788.0 L596.0 787.0 L597.0 819.0" /><polygon style="fill:#000000; stroke:#000000;" points=" 602 809 597 819 592 809 597 811" /><path style="fill:none; stroke:#000000;stroke-width:1" d="M460.0 788.0 L596.0 787.0 L597.0 753.0" /><polygon style="fill:#000000; stroke:#000000;" points=" 592 763 597 753 602 763 597 761" /><path style="fill:none; stroke:#000000;stroke-width:1" d="M399.0 815.0 L296.0 904.0" /><polygon style="fill:#000000; stroke:#000000;" points=" 307 901 296 904 300 894 302 899" /><path style="fill:none; stroke:#000000;stroke-width:1" d="M460.0 788.0 L720.0 788.0" /><polygon style="fill:#000000; stroke:#000000;" points=" 710 783 720 788 710 793 712 788" /><path style="fill:none; stroke:#000000;stroke-width:1" d="M316.0 355.0 L389.0 355.0" /><polygon style="fill:#000000; stroke:#000000;" points=" 379 350 389 355 379 360 381 355" /><path style="fill:none; stroke:#000000;stroke-width:1" d="M144.0 354.0 L209.0 354.0" /><polygon style="fill:#000000; stroke:#000000;" points=" 199 349 209 354 199 359 201 354" /><path style="fill:none; stroke:#000000;stroke-width:1" d="M409.0 241.0 L300.0 326.0" /><polygon style="fill:#000000; stroke:#000000;" points=" 311 324 300 326 305 316 306 321" /><path style="fill:none; stroke:#000000;stroke-width:1" d="M316.0 933.0 L389.0 933.0" /><polygon style="fill:#000000; stroke:#000000;" points=" 379 928 389 933 379 938 381 933" /><path style="fill:none; stroke:#000000;stroke-width:1" d="M450.0 355.0 L607.0 355.0 L607.0 319.0" /><polygon style="fill:#000000; stroke:#000000;" points=" 602 329 607 319 612 329 607 327" /><path style="fill:none; stroke:#000000;stroke-width:1" d="M450.0 355.0 L607.0 355.0 L607.0 383.0" /><polygon style="fill:#000000; stroke:#000000;" points=" 612 373 607 383 602 373 607 375" /><path style="fill:none; stroke:#000000;stroke-width:1" d="M450.0 354.0 L640.0 354.0" /><polygon style="fill:#000000; stroke:#000000;" points=" 630 349 640 354 630 359 632 354" /><path style="fill:none; stroke:#000000;stroke-width:1" d="M450.0 933.0 L617.0 933.0 L617.0 963.0" /><polygon style="fill:#000000; stroke:#000000;" points=" 622 953 617 963 612 953 617 955" /><path style="fill:none; stroke:#000000;stroke-width:1" d="M450.0 933.0 L617.0 933.0 L617.0 909.0" /><polygon style="fill:#000000; stroke:#000000;" points=" 612 919 617 909 622 919 617 917" /><path style="fill:none; stroke:#000000;stroke-width:1" d="M450.0 919.0 L721.0 795.0" /><polygon style="fill:#000000; stroke:#000000;" points=" 710 795 721 795 714 804 714 798" /><path style="fill:none; stroke:#000000;stroke-width:1" d="M450.0 932.0 L548.0 932.0 L547.0 964.0" /><polygon style="fill:#000000; stroke:#000000;" points=" 552 954 547 964 542 954 547 956" /><path style="fill:none; stroke:#000000;stroke-dasharray:2" d="M819.0 788.0 L755.0 788.0" /><path style="fill:none; stroke:#000000;stroke-width:1" d="M316.0 218.0 L409.0 218.0" /><polygon style="fill:#000000; stroke:#000000;" points=" 399 213 409 218 399 223 401 218" /><path style="fill:none; stroke:#000000;stroke-width:1" d="M144.0 217.0 L209.0 217.0" /><polygon style="fill:#000000; stroke:#000000;" points=" 199 212 209 217 199 222 201 217" /><path style="fill:none; stroke:#000000;stroke-width:1" d="M470.0 217.0 L580.0 217.0" /><polygon style="fill:#000000; stroke:#000000;" points=" 570 212 580 217 570 222 572 217" /><defs><linearGradient xmlns:xlink="http://www.w3.org/1999/xlink" xlink:href="#linearGradient66FF6696FF96B6FFB6" id="linearGradient66FF6696FF96B6FFB6_441760482" x1="0" y1="56.0" x2="0" y2="91.0" gradientUnits="userSpaceOnUse" xlink:type="simple" xlink:actuate="onLoad" xlink:show="other" /><linearGradient id="linearGradient66FF6696FF96B6FFB6"><stop style="stop-color:#66FF66;stop-opacity:1;" offset="0.0" id="stop66FF66" /><stop style="stop-color:#96FF96;stop-opacity:1;" offset="0.5" id="stop96FF96" /><stop style="stop-color:#B6FFB6;stop-opacity:1;" offset="1.0" id="stopB6FFB6" /></linearGradient><linearGradient xmlns:xlink="http://www.w3.org/1999/xlink" xlink:href="#linearGradientF8FBFEEDF5FCDEEDFAD4E7F8E2E5E9" id="linearGradientF8FBFEEDF5FCDEEDFAD4E7F8E2E5E9_345200600" x1="0" y1="472.0" x2="0" y2="578.0" gradientUnits="userSpaceOnUse" xlink:type="simple" xlink:actuate="onLoad" xlink:show="other" /><linearGradient id="linearGradientF8FBFEEDF5FCDEEDFAD4E7F8E2E5E9"><stop style="stop-color:#F8FBFE;stop-opacity:1;" offset="0.0" id="stopF8FBFE" /><stop style="stop-color:#EDF5FC;stop-opacity:1;" offset="0.25" id="stopEDF5FC" /><stop style="stop-color:#DEEDFA;stop-opacity:1;" offset="0.5" id="stopDEEDFA" /><stop style="stop-color:#D4E7F8;stop-opacity:1;" offset="0.75" id="stopD4E7F8" /><stop style="stop-color:#E2E5E9;stop-opacity:1;" offset="1.0" id="stopE2E5E9" /></linearGradient><linearGradient xmlns:xlink="http://www.w3.org/1999/xlink" xlink:href="#linearGradientF8FBFEEDF5FCDEEDFAD4E7F8E2E5E9" id="linearGradientF8FBFEEDF5FCDEEDFAD4E7F8E2E5E9_279761298" x1="0" y1="616.0" x2="0" y2="722.0" gradientUnits="userSpaceOnUse" xlink:type="simple" xlink:actuate="onLoad" xlink:show="other" /><linearGradient xmlns:xlink="http://www.w3.org/1999/xlink" xlink:href="#linearGradientF8FBFEEDF5FCDEEDFAD4E7F8E2E5E9" id="linearGradientF8FBFEEDF5FCDEEDFAD4E7F8E2E5E9_1437490659" x1="0" y1="761.0" x2="0" y2="867.0" gradientUnits="userSpaceOnUse" xlink:type="simple" xlink:actuate="onLoad" xlink:show="other" /><linearGradient xmlns:xlink="http://www.w3.org/1999/xlink" xlink:href="#linearGradientFF6666FF9696FFB6B6" id="linearGradientFF6666FF9696FFB6B6_1779596830" x1="0" y1="915.0" x2="0" y2="950.0" gradientUnits="userSpaceOnUse" xlink:type="simple" xlink:actuate="onLoad" xlink:show="other" /><linearGradient id="linearGradientFF6666FF9696FFB6B6"><stop style="stop-color:#FF6666;stop-opacity:1;" offset="0.0" id="stopFF6666" /><stop style="stop-color:#FF9696;stop-opacity:1;" offset="0.5" id="stopFF9696" /><stop style="stop-color:#FFB6B6;stop-opacity:1;" offset="1.0" id="stopFFB6B6" /></linearGradient><linearGradient xmlns:xlink="http://www.w3.org/1999/xlink" xlink:href="#linearGradientFFFF66FFFF96FFFFB6" id="linearGradientFFFF66FFFF96FFFFB6_1689372947" x1="0" y1="56.0" x2="0" y2="91.0" gradientUnits="userSpaceOnUse" xlink:type="simple" xlink:actuate="onLoad" xlink:show="other" /><linearGradient id="linearGradientFFFF66FFFF96FFFFB6"><stop style="stop-color:#FFFF66;stop-opacity:1;" offset="0.0" id="stopFFFF66" /><stop style="stop-color:#FFFF96;stop-opacity:1;" offset="0.5" id="stopFFFF96" /><stop style="stop-color:#FFFFB6;stop-opacity:1;" offset="1.0" id="stopFFFFB6" /></linearGradient><linearGradient xmlns:xlink="http://www.w3.org/1999/xlink" xlink:href="#linearGradientFFFF66FFFF96FFFFB6" id="linearGradientFFFF66FFFF96FFFFB6_317174870" x1="0" y1="483.0" x2="0" y2="518.0" gradientUnits="userSpaceOnUse" xlink:type="simple" xlink:actuate="onLoad" xlink:show="other" /><linearGradient xmlns:xlink="http://www.w3.org/1999/xlink" xlink:href="#linearGradientFFFF66FFFF96FFFFB6" id="linearGradientFFFF66FFFF96FFFFB6_897688236" x1="0" y1="626.0" x2="0" y2="661.0" gradientUnits="userSpaceOnUse" xlink:type="simple" xlink:actuate="onLoad" xlink:show="other" /><linearGradient xmlns:xlink="http://www.w3.org/1999/xlink" xlink:href="#linearGradientFF6666FF9696FFB6B6" id="linearGradientFF6666FF9696FFB6B6_1285216396" x1="0" y1="483.0" x2="0" y2="518.0" gradientUnits="userSpaceOnUse" xlink:type="simple" xlink:actuate="onLoad" xlink:show="other" /><linearGradient xmlns:xlink="http://www.w3.org/1999/xlink" xlink:href="#linearGradientFAFBFCFFFFCC" id="linearGradientFAFBFCFFFFCC_638155101" x1="0" y1="456.0" x2="0" y2="516.0" gradientUnits="userSpaceOnUse" xlink:type="simple" xlink:actuate="onLoad" xlink:show="other" /><linearGradient id="linearGradientFAFBFCFFFFCC"><stop style="stop-color:#FAFBFC;stop-opacity:1;" offset="0.0" id="stopFAFBFC" /><stop style="stop-color:#FFFFCC;stop-opacity:1;" offset="1.0" id="stopFFFFCC" /></linearGradient><linearGradient xmlns:xlink="http://www.w3.org/1999/xlink" xlink:href="#linearGradientFAFBFCFFFFCC" id="linearGradientFAFBFCFFFFCC_165887182" x1="0" y1="600.0" x2="0" y2="660.0" gradientUnits="userSpaceOnUse" xlink:type="simple" xlink:actuate="onLoad" xlink:show="other" /><linearGradient xmlns:xlink="http://www.w3.org/1999/xlink" xlink:href="#linearGradientFAFBFCFFFFCC" id="linearGradientFAFBFCFFFFCC_835681180" x1="0" y1="745.0" x2="0" y2="805.0" gradientUnits="userSpaceOnUse" xlink:type="simple" xlink:actuate="onLoad" xlink:show="other" /><linearGradient xmlns:xlink="http://www.w3.org/1999/xlink" xlink:href="#linearGradientFFFF66FFFF96FFFFB6" id="linearGradientFFFF66FFFF96FFFFB6_722181009" x1="0" y1="819.0" x2="0" y2="854.0" gradientUnits="userSpaceOnUse" xlink:type="simple" xlink:actuate="onLoad" xlink:show="other" /><linearGradient xmlns:xlink="http://www.w3.org/1999/xlink" xlink:href="#linearGradientFFFF66FFFF96FFFFB6" id="linearGradientFFFF66FFFF96FFFFB6_1185274940" x1="0" y1="684.0" x2="0" y2="719.0" gradientUnits="userSpaceOnUse" xlink:type="simple" xlink:actuate="onLoad" xlink:show="other" /><linearGradient xmlns:xlink="http://www.w3.org/1999/xlink" xlink:href="#linearGradientFFFF66FFFF96FFFFB6" id="linearGradientFFFF66FFFF96FFFFB6_1446022506" x1="0" y1="434.0" x2="0" y2="469.0" gradientUnits="userSpaceOnUse" xlink:type="simple" xlink:actuate="onLoad" xlink:show="other" /><linearGradient xmlns:xlink="http://www.w3.org/1999/xlink" xlink:href="#linearGradientFFFF66FFFF96FFFFB6" id="linearGradientFFFF66FFFF96FFFFB6_476647339" x1="0" y1="574.0" x2="0" y2="609.0" gradientUnits="userSpaceOnUse" xlink:type="simple" xlink:actuate="onLoad" xlink:show="other" /><linearGradient xmlns:xlink="http://www.w3.org/1999/xlink" xlink:href="#linearGradientFFFF66FFFF96FFFFB6" id="linearGradientFFFF66FFFF96FFFFB6_1799997604" x1="0" y1="719.0" x2="0" y2="754.0" gradientUnits="userSpaceOnUse" xlink:type="simple" xlink:actuate="onLoad" xlink:show="other" /><linearGradient xmlns:xlink="http://www.w3.org/1999/xlink" xlink:href="#linearGradientF8FBFEEDF5FCDEEDFAD4E7F8E2E5E9" id="linearGradientF8FBFEEDF5FCDEEDFAD4E7F8E2E5E9_65383885" x1="0" y1="327.0" x2="0" y2="433.0" gradientUnits="userSpaceOnUse" xlink:type="simple" xlink:actuate="onLoad" xlink:show="other" /><linearGradient xmlns:xlink="http://www.w3.org/1999/xlink" xlink:href="#linearGradientF8FBFEEDF5FCDEEDFAD4E7F8E2E5E9" id="linearGradientF8FBFEEDF5FCDEEDFAD4E7F8E2E5E9_1366043398" x1="0" y1="905.0" x2="0" y2="1011.0" gradientUnits="userSpaceOnUse" xlink:type="simple" xlink:actuate="onLoad" xlink:show="other" /><linearGradient xmlns:xlink="http://www.w3.org/1999/xlink" xlink:href="#linearGradientFFFF66FFFF96FFFFB6" id="linearGradientFFFF66FFFF96FFFFB6_86799063" x1="0" y1="337.0" x2="0" y2="372.0" gradientUnits="userSpaceOnUse" xlink:type="simple" xlink:actuate="onLoad" xlink:show="other" /><linearGradient xmlns:xlink="http://www.w3.org/1999/xlink" xlink:href="#linearGradientFFFF66FFFF96FFFFB6" id="linearGradientFFFF66FFFF96FFFFB6_545621566" x1="0" y1="771.0" x2="0" y2="806.0" gradientUnits="userSpaceOnUse" xlink:type="simple" xlink:actuate="onLoad" xlink:show="other" /><linearGradient xmlns:xlink="http://www.w3.org/1999/xlink" xlink:href="#linearGradientFAFBFCFFFFCC" id="linearGradientFAFBFCFFFFCC_237030438" x1="0" y1="311.0" x2="0" y2="371.0" gradientUnits="userSpaceOnUse" xlink:type="simple" xlink:actuate="onLoad" xlink:show="other" /><linearGradient xmlns:xlink="http://www.w3.org/1999/xlink" xlink:href="#linearGradientFFFF66FFFF96FFFFB6" id="linearGradientFFFF66FFFF96FFFFB6_1050993407" x1="0" y1="284.0" x2="0" y2="319.0" gradientUnits="userSpaceOnUse" xlink:type="simple" xlink:actuate="onLoad" xlink:show="other" /><linearGradient xmlns:xlink="http://www.w3.org/1999/xlink" xlink:href="#linearGradientFFFF66FFFF96FFFFB6" id="linearGradientFFFF66FFFF96FFFFB6_1492682038" x1="0" y1="524.0" x2="0" y2="559.0" gradientUnits="userSpaceOnUse" xlink:type="simple" xlink:actuate="onLoad" xlink:show="other" /><linearGradient xmlns:xlink="http://www.w3.org/1999/xlink" xlink:href="#linearGradientFAFBFCFFFFCC" id="linearGradientFAFBFCFFFFCC_1413500001" x1="0" y1="889.0" x2="0" y2="949.0" gradientUnits="userSpaceOnUse" xlink:type="simple" xlink:actuate="onLoad" xlink:show="other" /><linearGradient xmlns:xlink="http://www.w3.org/1999/xlink" xlink:href="#linearGradientFFFF66FFFF96FFFFB6" id="linearGradientFFFF66FFFF96FFFFB6_1544158003" x1="0" y1="874.0" x2="0" y2="909.0" gradientUnits="userSpaceOnUse" xlink:type="simple" xlink:actuate="onLoad" xlink:show="other" /><linearGradient xmlns:xlink="http://www.w3.org/1999/xlink" xlink:href="#linearGradientFFFF66FFFF96FFFFB6" id="linearGradientFFFF66FFFF96FFFFB6_1159944535" x1="0" y1="964.0" x2="0" y2="999.0" gradientUnits="userSpaceOnUse" xlink:type="simple" xlink:actuate="onLoad" xlink:show="other" /><linearGradient xmlns:xlink="http://www.w3.org/1999/xlink" xlink:href="#linearGradientFF6666FF9696FFB6B6" id="linearGradientFF6666FF9696FFB6B6_1500423664" x1="0" y1="771.0" x2="0" y2="806.0" gradientUnits="userSpaceOnUse" xlink:type="simple" xlink:actuate="onLoad" xlink:show="other" /><linearGradient xmlns:xlink="http://www.w3.org/1999/xlink" xlink:href="#linearGradientFFFF66FFFF96FFFFB6" id="linearGradientFFFF66FFFF96FFFFB6_253479416" x1="0" y1="384.0" x2="0" y2="419.0" gradientUnits="userSpaceOnUse" xlink:type="simple" xlink:actuate="onLoad" xlink:show="other" /><linearGradient xmlns:xlink="http://www.w3.org/1999/xlink" xlink:href="#linearGradientFFFF66FFFF96FFFFB6" id="linearGradientFFFF66FFFF96FFFFB6_483949387" x1="0" y1="626.0" x2="0" y2="661.0" gradientUnits="userSpaceOnUse" xlink:type="simple" xlink:actuate="onLoad" xlink:show="other" /><linearGradient xmlns:xlink="http://www.w3.org/1999/xlink" xlink:href="#linearGradientFFFF66FFFF96FFFFB6" id="linearGradientFFFF66FFFF96FFFFB6_1139699814" x1="0" y1="964.0" x2="0" y2="999.0" gradientUnits="userSpaceOnUse" xlink:type="simple" xlink:actuate="onLoad" xlink:show="other" /><linearGradient xmlns:xlink="http://www.w3.org/1999/xlink" xlink:href="#linearGradientF8FBFEEDF5FCDEEDFAD4E7F8E2E5E9" id="linearGradientF8FBFEEDF5FCDEEDFAD4E7F8E2E5E9_1870859470" x1="0" y1="190.0" x2="0" y2="296.0" gradientUnits="userSpaceOnUse" xlink:type="simple" xlink:actuate="onLoad" xlink:show="other" /><linearGradient xmlns:xlink="http://www.w3.org/1999/xlink" xlink:href="#linearGradientFAFBFCFFFFCC" id="linearGradientFAFBFCFFFFCC_1040600271" x1="0" y1="167.0" x2="0" y2="227.0" gradientUnits="userSpaceOnUse" xlink:type="simple" xlink:actuate="onLoad" xlink:show="other" /><linearGradient xmlns:xlink="http://www.w3.org/1999/xlink" xlink:href="#linearGradientFFFF66FFFF96FFFFB6" id="linearGradientFFFF66FFFF96FFFFB6_1641769575" x1="0" y1="337.0" x2="0" y2="372.0" gradientUnits="userSpaceOnUse" xlink:type="simple" xlink:actuate="onLoad" xlink:show="other" /><linearGradient xmlns:xlink="http://www.w3.org/1999/xlink" xlink:href="#linearGradientFFFF66FFFF96FFFFB6" id="linearGradientFFFF66FFFF96FFFFB6_1359371130" x1="0" y1="200.0" x2="0" y2="235.0" gradientUnits="userSpaceOnUse" xlink:type="simple" xlink:actuate="onLoad" xlink:show="other" /><linearGradient xmlns:xlink="http://www.w3.org/1999/xlink" xlink:href="#linearGradientFFFF66FFFF96FFFFB6" id="linearGradientFFFF66FFFF96FFFFB6_638896360" x1="0" y1="200.0" x2="0" y2="235.0" gradientUnits="userSpaceOnUse" xlink:type="simple" xlink:actuate="onLoad" xlink:show="other" /></defs></svg>
