<?xml version="1.0" encoding="UTF-8"?>
<svg xmlns="http://www.w3.org/2000/svg" style="stroke-dasharray:none; shape-rendering:auto; font-family:'Arial'; text-rendering:auto; fill-opacity:1; color-interpolation:auto; color-rendering:auto; font-size:12; fill:black; stroke:black; image-rendering:auto; stroke-miterlimit:10; stroke-linecap:square; stroke-linejoin:miter; font-style:normal; stroke-width:1; stroke-dashoffset:0; font-weight:normal; stroke-opacity:1;" contentScriptType="text/ecmascript" preserveAspectRatio="xMidYMid meet" zoomAndPan="magnify" version="1.0" contentStyleType="text/css" xml:xlink="http://www.w3.org/1999/xlink" width="761" height="291"><rect x="494" y="10" width="267" height="281" ry="0" rx="0" style="stroke:#000000; fill:#D6E0D0" /><g componentSequence="3"><text x="-150" y="501" transform="rotate(270)" text-anchor="middle" style="font-weight:bold;font-size:10px;stroke:none; fill:#434343"><tspan dy="14" x="-150">[I] Informados</tspan></text></g><rect x="187" y="10" width="151" height="281" ry="0" rx="0" style="stroke:#000000; fill:#82B0B7" /><g componentSequence="1"><text x="-150" y="194" transform="rotate(270)" text-anchor="middle" style="font-weight:bold;font-size:10px;stroke:none; fill:#434343"><tspan dy="14" x="-150">[R] Responsáveis</tspan></text></g><rect x="340" y="10" width="155" height="281" ry="0" rx="0" style="stroke:#000000; fill:#D0DAAE" /><g componentSequence="2"><text x="-150" y="347" transform="rotate(270)" text-anchor="middle" style="font-weight:bold;font-size:10px;stroke:none; fill:#434343"><tspan dy="14" x="-150">[C] Consultados</tspan></text></g><g sequence="1"><ellipse cx="264" cy="207" rx="17" ry="17" stroke-width="1" style="fill:url(#linearGradient66FF6696FF96B6FFB6_1228742724);" stroke="336633" /></g><g sequence="6"><rect x="367" y="180" width="106" height="84" ry="5" rx="5" style="fill:url(#linearGradientF8FBFEEDF5FCDEEDFAD4E7F8E2E5E9_1207621395);" stroke="191970" /></g><g componentSequence="6"><text x="420" y="195" text-anchor="middle" style="font-weight:bold;font-size:10px;stroke:none; fill:#333399"><tspan dy="14" x="420">Incluir</tspan><tspan dy="14" x="420">informações e</tspan><tspan dy="14" x="420">pareceres</tspan></text></g><g sequence="8"><polygon points=" 390 80 420 50 450 80 420 110 390 80" style="fill:url(#linearGradientFAFBFCFFFFCC_1137003316);" stroke="000000" /></g><path style="fill:none; stroke-width:6; stroke:#000000;" d="M410.0 80.0 L430.0 80.0" /><path style="fill:none; stroke-width:6; stroke:#000000;" d="M420.0 70.0 L420.0 90.0" /><g componentSequence="8"><text x="420" y="113" text-anchor="middle" style="font-weight:bold;font-size:10px;stroke:none; fill:#333399"><tspan dy="14" x="420">Paralelo</tspan></text></g><g sequence="14"><polygon points=" 552 208 582 178 612 208 582 238 552 208" style="fill:url(#linearGradientFAFBFCFFFFCC_113761576);" stroke="000000" /></g><path style="fill:none; stroke-width:6; stroke:#000000;" d="M572.0 208.0 L592.0 208.0" /><path style="fill:none; stroke-width:6; stroke:#000000;" d="M582.0 198.0 L582.0 218.0" /><g componentSequence="14"><text x="582" y="241" text-anchor="middle" style="font-weight:bold;font-size:10px;stroke:none; fill:#333399"><tspan dy="14" x="582">Join</tspan></text></g><g sequence="17"><ellipse cx="737" cy="217" rx="17" ry="17" stroke-width="3" style="fill:url(#linearGradientFF6666FF9696FFB6B6_643363508);" stroke="993333" /></g><g sequence="18"><polygon points=" 640 200 670 170 700 200 670 230 640 200" style="fill:url(#linearGradientFAFBFCFFFFCC_923532067);" stroke="000000" /></g><g componentSequence="18"><text x="670" y="240" text-anchor="middle" style="font-weight:bold;font-size:10px;stroke:none; fill:#333399"><tspan dy="14" x="670">Parecere</tspan><tspan dy="14" x="670">s</tspan><tspan dy="14" x="670">favor...</tspan></text></g><g sequence="29"><rect x="530" y="59" width="106" height="70" ry="5" rx="5" style="fill:url(#linearGradientF8FBFEEDF5FCDEEDFAD4E7F8E2E5E9_1585351197);" stroke="191970" /></g><g componentSequence="29"><text x="583" y="74" text-anchor="middle" style="font-weight:bold;font-size:10px;stroke:none; fill:#333399"><tspan dy="14" x="583">Notifica</tspan><tspan dy="14" x="583">interessados</tspan></text></g><g componentSequence="10"><text x="430" y="159" style="font-size:10px;font-weight:none;stroke:none; fill:#333399" text-anchor="left" /></g><g componentSequence="13"><text x="500" y="94" style="font-size:10px;font-weight:none;stroke:none; fill:#333399" text-anchor="left" /></g><g componentSequence="15"><text x="592" y="153" style="font-size:10px;font-weight:none;stroke:none; fill:#333399" text-anchor="left" /></g><g componentSequence="16"><text x="522" y="222" style="font-size:10px;font-weight:none;stroke:none; fill:#333399" text-anchor="left" /></g><g componentSequence="19"><text x="636" y="225" style="font-size:10px;font-weight:none;stroke:none; fill:#333399" text-anchor="left" /></g><g componentSequence="20"><text x="720" y="222" style="font-size:10px;font-weight:none;stroke:none; fill:#333399" text-anchor="left" /></g><g componentSequence="21"><text x="443" y="268" style="font-size:10px;font-weight:none;stroke:none; fill:#333399" text-anchor="left" /></g><g componentSequence="30"><text x="592" y="153" style="font-size:10px;font-weight:none;stroke:none; fill:#333399" text-anchor="left" /></g><g componentSequence="31"><text x="289" y="94" style="font-size:10px;font-weight:none;stroke:none; fill:#333399" text-anchor="left" /></g><path style="fill:none; stroke:#000000;stroke-width:1" d="M264.0 189.0 L264.0 94.0 L389.0 94.0" /><polygon style="fill:#000000; stroke:#000000;" points=" 379 89 389 94 379 99 381 94" /><path style="fill:none; stroke:#000000;stroke-width:1" d="M639.0 251.0 L618.0 268.0 L264.0 268.0 L264.0 225.0" /><polygon style="fill:#000000; stroke:#000000;" points=" 259 235 264 225 269 235 264 233" /><path style="fill:none; stroke:#000000;stroke-width:1" d="M473.0 222.0 L551.0 222.0" /><polygon style="fill:#000000; stroke:#000000;" points=" 541 217 551 222 541 227 543 222" /><path style="fill:none; stroke:#000000;stroke-width:1" d="M420.0 138.0 L420.0 179.0" /><polygon style="fill:#000000; stroke:#000000;" points=" 425 169 420 179 415 169 420 171" /><path style="fill:none; stroke:#000000;stroke-width:1" d="M450.0 94.0 L529.0 94.0" /><polygon style="fill:#000000; stroke:#000000;" points=" 519 89 529 94 519 99 521 94" /><path style="fill:none; stroke:#000000;stroke-width:1" d="M612.0 224.0 L639.0 226.0" /><polygon style="fill:#000000; stroke:#000000;" points=" 629 220 639 226 629 230 631 225" /><path style="fill:none; stroke:#000000;stroke-width:1" d="M582.0 129.0 L582.0 177.0" /><polygon style="fill:#000000; stroke:#000000;" points=" 587 167 582 177 577 167 582 169" /><path style="fill:none; stroke:#009600;stroke-width:1" d="M582.0 129.0 L582.0 177.0" /><polygon style="fill:#009600; stroke:#009600;" points=" 587 167 582 177 577 167 582 169" /><path style="fill:none; stroke:#000000;stroke-width:1" d="M700.0 223.0 L720.0 219.0" /><polygon style="fill:#000000; stroke:#000000;" points=" 709 216 720 219 711 226 712 221" /><defs><linearGradient xmlns:xlink="http://www.w3.org/1999/xlink" xlink:href="#linearGradient66FF6696FF96B6FFB6" id="linearGradient66FF6696FF96B6FFB6_1228742724" x1="0" y1="190.0" x2="0" y2="225.0" gradientUnits="userSpaceOnUse" xlink:type="simple" xlink:actuate="onLoad" xlink:show="other" /><linearGradient id="linearGradient66FF6696FF96B6FFB6"><stop style="stop-color:#66FF66;stop-opacity:1;" offset="0.0" id="stop66FF66" /><stop style="stop-color:#96FF96;stop-opacity:1;" offset="0.5" id="stop96FF96" /><stop style="stop-color:#B6FFB6;stop-opacity:1;" offset="1.0" id="stopB6FFB6" /></linearGradient><linearGradient xmlns:xlink="http://www.w3.org/1999/xlink" xlink:href="#linearGradientF8FBFEEDF5FCDEEDFAD4E7F8E2E5E9" id="linearGradientF8FBFEEDF5FCDEEDFAD4E7F8E2E5E9_1207621395" x1="0" y1="180.0" x2="0" y2="286.0" gradientUnits="userSpaceOnUse" xlink:type="simple" xlink:actuate="onLoad" xlink:show="other" /><linearGradient id="linearGradientF8FBFEEDF5FCDEEDFAD4E7F8E2E5E9"><stop style="stop-color:#F8FBFE;stop-opacity:1;" offset="0.0" id="stopF8FBFE" /><stop style="stop-color:#EDF5FC;stop-opacity:1;" offset="0.25" id="stopEDF5FC" /><stop style="stop-color:#DEEDFA;stop-opacity:1;" offset="0.5" id="stopDEEDFA" /><stop style="stop-color:#D4E7F8;stop-opacity:1;" offset="0.75" id="stopD4E7F8" /><stop style="stop-color:#E2E5E9;stop-opacity:1;" offset="1.0" id="stopE2E5E9" /></linearGradient><linearGradient xmlns:xlink="http://www.w3.org/1999/xlink" xlink:href="#linearGradientFAFBFCFFFFCC" id="linearGradientFAFBFCFFFFCC_1137003316" x1="0" y1="50.0" x2="0" y2="110.0" gradientUnits="userSpaceOnUse" xlink:type="simple" xlink:actuate="onLoad" xlink:show="other" /><linearGradient id="linearGradientFAFBFCFFFFCC"><stop style="stop-color:#FAFBFC;stop-opacity:1;" offset="0.0" id="stopFAFBFC" /><stop style="stop-color:#FFFFCC;stop-opacity:1;" offset="1.0" id="stopFFFFCC" /></linearGradient><linearGradient xmlns:xlink="http://www.w3.org/1999/xlink" xlink:href="#linearGradientFAFBFCFFFFCC" id="linearGradientFAFBFCFFFFCC_113761576" x1="0" y1="178.0" x2="0" y2="238.0" gradientUnits="userSpaceOnUse" xlink:type="simple" xlink:actuate="onLoad" xlink:show="other" /><linearGradient xmlns:xlink="http://www.w3.org/1999/xlink" xlink:href="#linearGradientFF6666FF9696FFB6B6" id="linearGradientFF6666FF9696FFB6B6_643363508" x1="0" y1="200.0" x2="0" y2="235.0" gradientUnits="userSpaceOnUse" xlink:type="simple" xlink:actuate="onLoad" xlink:show="other" /><linearGradient id="linearGradientFF6666FF9696FFB6B6"><stop style="stop-color:#FF6666;stop-opacity:1;" offset="0.0" id="stopFF6666" /><stop style="stop-color:#FF9696;stop-opacity:1;" offset="0.5" id="stopFF9696" /><stop style="stop-color:#FFB6B6;stop-opacity:1;" offset="1.0" id="stopFFB6B6" /></linearGradient><linearGradient xmlns:xlink="http://www.w3.org/1999/xlink" xlink:href="#linearGradientFAFBFCFFFFCC" id="linearGradientFAFBFCFFFFCC_923532067" x1="0" y1="170.0" x2="0" y2="230.0" gradientUnits="userSpaceOnUse" xlink:type="simple" xlink:actuate="onLoad" xlink:show="other" /><linearGradient xmlns:xlink="http://www.w3.org/1999/xlink" xlink:href="#linearGradientF8FBFEEDF5FCDEEDFAD4E7F8E2E5E9" id="linearGradientF8FBFEEDF5FCDEEDFAD4E7F8E2E5E9_1585351197" x1="0" y1="59.0" x2="0" y2="165.0" gradientUnits="userSpaceOnUse" xlink:type="simple" xlink:actuate="onLoad" xlink:show="other" /></defs></svg>
