<?xml version="1.0" encoding="UTF-8"?>
<svg xmlns="http://www.w3.org/2000/svg" style="stroke-dasharray:none; shape-rendering:auto; font-family:'Arial'; text-rendering:auto; fill-opacity:1; color-interpolation:auto; color-rendering:auto; font-size:12; fill:black; stroke:black; image-rendering:auto; stroke-miterlimit:10; stroke-linecap:square; stroke-linejoin:miter; font-style:normal; stroke-width:1; stroke-dashoffset:0; font-weight:normal; stroke-opacity:1;" contentScriptType="text/ecmascript" preserveAspectRatio="xMidYMid meet" zoomAndPan="magnify" version="1.0" contentStyleType="text/css" xml:xlink="http://www.w3.org/1999/xlink" width="1481" height="1581"><rect x="20" y="930" width="1461" height="651" ry="0" rx="0" style="stroke:#000000; fill:#FFFFFF" /><rect x="50" y="1450" width="1431" height="131" ry="0" rx="0" style="stroke:#000000; fill:#C9C3AC" /><g componentSequence="64"><text x="-1515" y="57" transform="rotate(270)" text-anchor="middle" style="font-weight:bold;font-size:10px;stroke:none; fill:#434343"><tspan dy="14" x="-1515">Balança</tspan></text></g><rect x="50" y="1320" width="1431" height="130" ry="0" rx="0" style="stroke:#000000; fill:#D6E0D0" /><g componentSequence="63"><text x="-1385" y="57" transform="rotate(270)" text-anchor="middle" style="font-weight:bold;font-size:10px;stroke:none; fill:#434343"><tspan dy="14" x="-1385">Industrial</tspan></text></g><rect x="50" y="1190" width="1431" height="130" ry="0" rx="0" style="stroke:#000000; fill:#D0DAAE" /><g componentSequence="62"><text x="-1255" y="57" transform="rotate(270)" text-anchor="middle" style="font-weight:bold;font-size:10px;stroke:none; fill:#434343"><tspan dy="14" x="-1255">Laboratório</tspan></text></g><rect x="50" y="1060" width="1431" height="130" ry="0" rx="0" style="stroke:#000000; fill:#ADC9AC" /><g componentSequence="61"><text x="-1125" y="57" transform="rotate(270)" text-anchor="middle" style="font-weight:bold;font-size:10px;stroke:none; fill:#434343"><tspan dy="14" x="-1125">Fiscal</tspan></text></g><rect x="50" y="930" width="1431" height="130" ry="0" rx="0" style="stroke:#000000; fill:#82B0B7" /><g componentSequence="60"><text x="-995" y="57" transform="rotate(270)" text-anchor="middle" style="font-weight:bold;font-size:10px;stroke:none; fill:#434343"><tspan dy="14" x="-995">Balança</tspan></text></g><g componentSequence="59"><text x="-1255" y="27" transform="rotate(270)" text-anchor="middle" style="font-weight:bold;font-size:10px;stroke:none; fill:#434343"><tspan dy="14" x="-1255">Caso "Transferência?" seja' Sim"</tspan></text></g><rect x="20" y="21" width="1461" height="850" ry="0" rx="0" style="stroke:#000000; fill:#FFFFFF" /><rect x="50" y="726" width="1431" height="145" ry="0" rx="0" style="stroke:#000000; fill:#9FC1C6" /><g componentSequence="18"><text x="-798" y="57" transform="rotate(270)" text-anchor="middle" style="font-weight:bold;font-size:10px;stroke:none; fill:#434343"><tspan dy="14" x="-798">Balança</tspan></text></g><rect x="50" y="585" width="1431" height="141" ry="0" rx="0" style="stroke:#000000; fill:#C9C3AC" /><g componentSequence="17"><text x="-655" y="57" transform="rotate(270)" text-anchor="middle" style="font-weight:bold;font-size:10px;stroke:none; fill:#434343"><tspan dy="14" x="-655">Industrial</tspan></text></g><rect x="50" y="444" width="1431" height="141" ry="0" rx="0" style="stroke:#000000; fill:#D6E0D0" /><g componentSequence="16"><text x="-514" y="57" transform="rotate(270)" text-anchor="middle" style="font-weight:bold;font-size:10px;stroke:none; fill:#434343"><tspan dy="14" x="-514">Laboratório</tspan></text></g><rect x="50" y="303" width="1431" height="141" ry="0" rx="0" style="stroke:#000000; fill:#D0DAAE" /><g componentSequence="15"><text x="-373" y="57" transform="rotate(270)" text-anchor="middle" style="font-weight:bold;font-size:10px;stroke:none; fill:#434343"><tspan dy="14" x="-373">Fiscal</tspan></text></g><rect x="50" y="162" width="1431" height="141" ry="0" rx="0" style="stroke:#000000; fill:#ADC9AC" /><g componentSequence="14"><text x="-232" y="57" transform="rotate(270)" text-anchor="middle" style="font-weight:bold;font-size:10px;stroke:none; fill:#434343"><tspan dy="14" x="-232">Balança</tspan></text></g><rect x="50" y="21" width="1431" height="141" ry="0" rx="0" style="stroke:#000000; fill:#82B0B7" /><g componentSequence="13"><text x="-91" y="57" transform="rotate(270)" text-anchor="middle" style="font-weight:bold;font-size:10px;stroke:none; fill:#434343"><tspan dy="14" x="-91">Logística</tspan></text></g><g componentSequence="12"><text x="-446" y="27" transform="rotate(270)" text-anchor="middle" style="font-weight:bold;font-size:10px;stroke:none; fill:#434343"><tspan dy="14" x="-446">Troca de Notas</tspan></text></g><g sequence="1"><ellipse cx="267" cy="92" rx="17" ry="17" stroke-width="1" style="fill:url(#linearGradient66FF6696FF96B6FFB6_140640996);" stroke="336633" /></g><g sequence="2"><rect x="270" y="206" width="106" height="56" ry="5" rx="5" style="fill:url(#linearGradientF8FBFEEDF5FCDEEDFAD4E7F8E2E5E9_111537560);" stroke="191970" /></g><g componentSequence="2"><text x="323" y="223" text-anchor="middle" style="font-weight:bold;font-size:10px;stroke:none; fill:#333399"><tspan dy="14" x="323">Balança</tspan></text></g><g sequence="3"><rect x="410" y="347" width="106" height="56" ry="5" rx="5" style="fill:url(#linearGradientF8FBFEEDF5FCDEEDFAD4E7F8E2E5E9_43674004);" stroke="191970" /></g><g componentSequence="3"><text x="463" y="364" text-anchor="middle" style="font-weight:bold;font-size:10px;stroke:none; fill:#333399"><tspan dy="14" x="463">Fiscal</tspan></text></g><g sequence="4"><rect x="680" y="488" width="106" height="56" ry="5" rx="5" style="fill:url(#linearGradientF8FBFEEDF5FCDEEDFAD4E7F8E2E5E9_1201203107);" stroke="191970" /></g><g componentSequence="4"><text x="733" y="505" text-anchor="middle" style="font-weight:bold;font-size:10px;stroke:none; fill:#333399"><tspan dy="14" x="733">Laboratório</tspan></text></g><g sequence="5"><rect x="890" y="629" width="106" height="56" ry="5" rx="5" style="fill:url(#linearGradientF8FBFEEDF5FCDEEDFAD4E7F8E2E5E9_1601550486);" stroke="191970" /></g><g componentSequence="5"><text x="943" y="646" text-anchor="middle" style="font-weight:bold;font-size:10px;stroke:none; fill:#333399"><tspan dy="14" x="943">Industrial</tspan></text></g><g sequence="6"><rect x="1090" y="772" width="106" height="56" ry="5" rx="5" style="fill:url(#linearGradientF8FBFEEDF5FCDEEDFAD4E7F8E2E5E9_1989494733);" stroke="191970" /></g><g componentSequence="6"><text x="1143" y="789" text-anchor="middle" style="font-weight:bold;font-size:10px;stroke:none; fill:#333399"><tspan dy="14" x="1143">Balança</tspan></text></g><g sequence="20"><polygon points=" 432 213 462 183 492 213 462 243 432 213" style="fill:url(#linearGradientFAFBFCFFFFCC_663897666);" stroke="000000" /></g><g componentSequence="20"><text x="462" y="253" text-anchor="middle" style="font-weight:bold;font-size:10px;stroke:none; fill:#333399"><tspan dy="14" x="462">Exclusiv</tspan><tspan dy="14" x="462">o</tspan></text></g><g sequence="24"><polygon points=" 580 354 610 324 640 354 610 384 580 354" style="fill:url(#linearGradientFAFBFCFFFFCC_666310892);" stroke="000000" /></g><g componentSequence="24"><text x="610" y="394" text-anchor="middle" style="font-weight:bold;font-size:10px;stroke:none; fill:#333399"><tspan dy="14" x="610">Exclusiv</tspan><tspan dy="14" x="610">o</tspan></text></g><g sequence="27"><ellipse cx="157" cy="92" rx="17" ry="17" stroke-width="1" style="fill:url(#linearGradientFFFF66FFFF96FFFFB6_1433712004);" stroke="999900" /></g><g sequence="27"><polygon points=" 143 85 158 85 158 78 173 93 158 108 158 101 143 101" style="stroke:#999900; fill:none" /></g><g sequence="28"><ellipse cx="167" cy="233" rx="17" ry="17" stroke-width="1" style="fill:url(#linearGradientFFFF66FFFF96FFFFB6_159591368);" stroke="999900" /></g><g sequence="28"><polygon points=" 153 226 168 226 168 219 183 234 168 249 168 242 153 242" style="stroke:#999900; fill:none" /></g><g sequence="29"><ellipse cx="297" cy="374" rx="17" ry="17" stroke-width="1" style="fill:url(#linearGradientFFFF66FFFF96FFFFB6_1016515820);" stroke="999900" /></g><g sequence="29"><polygon points=" 283 367 298 367 298 360 313 375 298 390 298 383 283 383" style="stroke:#999900; fill:none" /></g><g sequence="30"><ellipse cx="557" cy="515" rx="17" ry="17" stroke-width="1" style="fill:url(#linearGradientFFFF66FFFF96FFFFB6_603571178);" stroke="999900" /></g><g sequence="30"><polygon points=" 543 508 558 508 558 501 573 516 558 531 558 524 543 524" style="stroke:#999900; fill:none" /></g><g sequence="36"><ellipse cx="817" cy="233" rx="17" ry="17" stroke-width="1" style="fill:url(#linearGradientFFFF66FFFF96FFFFB6_1397852804);" stroke="999900" /></g><g sequence="36"><polygon points=" 803 226 818 226 818 219 833 234 818 249 818 242 803 242" style="stroke:none; fill:#999900" /></g><g sequence="40"><ellipse cx="877" cy="374" rx="17" ry="17" stroke-width="1" style="fill:url(#linearGradientFFFF66FFFF96FFFFB6_1125922381);" stroke="999900" /></g><g sequence="40"><polygon points=" 863 367 878 367 878 360 893 375 878 390 878 383 863 383" style="stroke:none; fill:#999900" /></g><g sequence="44"><polygon points=" 820 495 850 465 880 495 850 525 820 495" style="fill:url(#linearGradientFAFBFCFFFFCC_1231516526);" stroke="000000" /></g><g componentSequence="44"><text x="850" y="535" text-anchor="middle" style="font-weight:bold;font-size:10px;stroke:none; fill:#333399"><tspan dy="14" x="850">Exclusiv</tspan><tspan dy="14" x="850">o</tspan></text></g><g sequence="48"><ellipse cx="1227" cy="515" rx="17" ry="17" stroke-width="1" style="fill:url(#linearGradientFFFF66FFFF96FFFFB6_611061563);" stroke="999900" /></g><g sequence="48"><polygon points=" 1213 508 1228 508 1228 501 1243 516 1228 531 1228 524 1213 524" style="stroke:none; fill:#999900" /></g><g sequence="49"><ellipse cx="1237" cy="656" rx="17" ry="17" stroke-width="1" style="fill:url(#linearGradientFFFF66FFFF96FFFFB6_2075571352);" stroke="999900" /></g><g sequence="49"><polygon points=" 1223 649 1238 649 1238 642 1253 657 1238 672 1238 665 1223 665" style="stroke:none; fill:#999900" /></g><g sequence="50"><polygon points=" 1030 636 1060 606 1090 636 1060 666 1030 636" style="fill:url(#linearGradientFAFBFCFFFFCC_1496992765);" stroke="000000" /></g><g componentSequence="50"><text x="1060" y="676" text-anchor="middle" style="font-weight:bold;font-size:10px;stroke:none; fill:#333399"><tspan dy="14" x="1060">Exclusiv</tspan><tspan dy="14" x="1060">o</tspan></text></g><g sequence="65"><polygon points=" 1240 779 1270 749 1300 779 1270 809 1240 779" style="fill:url(#linearGradientFAFBFCFFFFCC_733265847);" stroke="000000" /></g><g componentSequence="65"><text x="1270" y="819" text-anchor="middle" style="font-weight:bold;font-size:10px;stroke:none; fill:#333399"><tspan dy="14" x="1270">Exclusiv</tspan><tspan dy="14" x="1270">o</tspan></text></g><g sequence="67"><ellipse cx="1417" cy="837" rx="17" ry="17" stroke-width="3" style="fill:url(#linearGradientFF6666FF9696FFB6B6_1868920877);" stroke="993333" /></g><g sequence="69"><ellipse cx="1417" cy="757" rx="17" ry="17" stroke-width="1" style="fill:url(#linearGradientFFFF66FFFF96FFFFB6_565773101);" stroke="999900" /></g><g sequence="69"><polygon points=" 1403 750 1418 750 1418 743 1433 758 1418 773 1418 766 1403 766" style="stroke:none; fill:#999900" /></g><g sequence="71"><ellipse cx="157" cy="996" rx="17" ry="17" stroke-width="1" style="fill:url(#linearGradientFFFF66FFFF96FFFFB6_710394180);" stroke="999900" /></g><g sequence="71"><polygon points=" 143 989 158 989 158 982 173 997 158 1012 158 1005 143 1005" style="stroke:#999900; fill:none" /></g><g sequence="72"><rect x="270" y="969" width="106" height="56" ry="5" rx="5" style="fill:url(#linearGradientF8FBFEEDF5FCDEEDFAD4E7F8E2E5E9_613456574);" stroke="191970" /></g><g componentSequence="72"><text x="323" y="986" text-anchor="middle" style="font-weight:bold;font-size:10px;stroke:none; fill:#333399"><tspan dy="14" x="323">Balança</tspan></text></g><g sequence="73"><rect x="400" y="1099" width="106" height="56" ry="5" rx="5" style="fill:url(#linearGradientF8FBFEEDF5FCDEEDFAD4E7F8E2E5E9_1626352145);" stroke="191970" /></g><g componentSequence="73"><text x="453" y="1116" text-anchor="middle" style="font-weight:bold;font-size:10px;stroke:none; fill:#333399"><tspan dy="14" x="453">Fiscal</tspan></text></g><g sequence="74"><rect x="600" y="1229" width="106" height="56" ry="5" rx="5" style="fill:url(#linearGradientF8FBFEEDF5FCDEEDFAD4E7F8E2E5E9_163183945);" stroke="191970" /></g><g componentSequence="74"><text x="653" y="1246" text-anchor="middle" style="font-weight:bold;font-size:10px;stroke:none; fill:#333399"><tspan dy="14" x="653">Laboratório</tspan></text></g><g sequence="75"><rect x="830" y="1359" width="106" height="56" ry="5" rx="5" style="fill:url(#linearGradientF8FBFEEDF5FCDEEDFAD4E7F8E2E5E9_502284507);" stroke="191970" /></g><g componentSequence="75"><text x="883" y="1376" text-anchor="middle" style="font-weight:bold;font-size:10px;stroke:none; fill:#333399"><tspan dy="14" x="883">Industrial</tspan></text></g><g sequence="76"><rect x="1070" y="1489" width="106" height="56" ry="5" rx="5" style="fill:url(#linearGradientF8FBFEEDF5FCDEEDFAD4E7F8E2E5E9_1024814257);" stroke="191970" /></g><g componentSequence="76"><text x="1123" y="1506" text-anchor="middle" style="font-weight:bold;font-size:10px;stroke:none; fill:#333399"><tspan dy="14" x="1123">Balança</tspan></text></g><g sequence="78"><polygon points=" 422 976 452 946 482 976 452 1006 422 976" style="fill:url(#linearGradientFAFBFCFFFFCC_1557428640);" stroke="000000" /></g><g componentSequence="78"><text x="452" y="1016" text-anchor="middle" style="font-weight:bold;font-size:10px;stroke:none; fill:#333399"><tspan dy="14" x="452">Exclusiv</tspan><tspan dy="14" x="452">o</tspan></text></g><g sequence="82"><polygon points=" 540 1106 570 1076 600 1106 570 1136 540 1106" style="fill:url(#linearGradientFAFBFCFFFFCC_440501446);" stroke="000000" /></g><g componentSequence="82"><text x="570" y="1146" text-anchor="middle" style="font-weight:bold;font-size:10px;stroke:none; fill:#333399"><tspan dy="14" x="570">Exclusiv</tspan><tspan dy="14" x="570">o</tspan></text></g><g sequence="85"><polygon points=" 750 1236 780 1206 810 1236 780 1266 750 1236" style="fill:url(#linearGradientFAFBFCFFFFCC_86567373);" stroke="000000" /></g><g componentSequence="85"><text x="780" y="1276" text-anchor="middle" style="font-weight:bold;font-size:10px;stroke:none; fill:#333399"><tspan dy="14" x="780">Exclusiv</tspan><tspan dy="14" x="780">o</tspan></text></g><g sequence="87"><polygon points=" 990 1366 1020 1336 1050 1366 1020 1396 990 1366" style="fill:url(#linearGradientFAFBFCFFFFCC_323906877);" stroke="000000" /></g><g componentSequence="87"><text x="1020" y="1406" text-anchor="middle" style="font-weight:bold;font-size:10px;stroke:none; fill:#333399"><tspan dy="14" x="1020">Exclusiv</tspan><tspan dy="14" x="1020">o</tspan></text></g><g sequence="91"><ellipse cx="322" cy="1126" rx="17" ry="17" stroke-width="1" style="fill:url(#linearGradientFFFF66FFFF96FFFFB6_1814568845);" stroke="999900" /></g><g sequence="91"><polygon points=" 308 1119 323 1119 323 1112 338 1127 323 1142 323 1135 308 1135" style="stroke:#999900; fill:none" /></g><g sequence="92"><ellipse cx="508" cy="1257" rx="17" ry="17" stroke-width="1" style="fill:url(#linearGradientFFFF66FFFF96FFFFB6_2052706682);" stroke="999900" /></g><g sequence="92"><polygon points=" 494 1250 509 1250 509 1243 524 1258 509 1273 509 1266 494 1266" style="stroke:#999900; fill:none" /></g><g sequence="97"><ellipse cx="1267" cy="1516" rx="17" ry="17" stroke-width="3" style="fill:url(#linearGradientFF6666FF9696FFB6B6_956115325);" stroke="993333" /></g><g sequence="99"><ellipse cx="1217" cy="1256" rx="17" ry="17" stroke-width="1" style="fill:url(#linearGradientFFFF66FFFF96FFFFB6_1480232154);" stroke="999900" /></g><g sequence="99"><polygon points=" 1203 1249 1218 1249 1218 1242 1233 1257 1218 1272 1218 1265 1203 1265" style="stroke:none; fill:#999900" /></g><g sequence="101"><ellipse cx="1177" cy="1386" rx="17" ry="17" stroke-width="1" style="fill:url(#linearGradientFFFF66FFFF96FFFFB6_1950495783);" stroke="999900" /></g><g sequence="101"><polygon points=" 1163 1379 1178 1379 1178 1372 1193 1387 1178 1402 1178 1395 1163 1395" style="stroke:none; fill:#999900" /></g><g sequence="104"><ellipse cx="777" cy="1126" rx="17" ry="17" stroke-width="1" style="fill:url(#linearGradientFFFF66FFFF96FFFFB6_1084549588);" stroke="999900" /></g><g sequence="104"><polygon points=" 763 1119 778 1119 778 1112 793 1127 778 1142 778 1135 763 1135" style="stroke:none; fill:#999900" /></g><g componentSequence="21"><text x="414" y="234" style="font-size:10px;font-weight:none;stroke:none; fill:#333399" text-anchor="left" /></g><g componentSequence="25"><text x="558" y="375" style="font-size:10px;font-weight:none;stroke:none; fill:#333399" text-anchor="left" /></g><g componentSequence="37"><text x="656" y="233" style="font-size:10px;font-weight:none;stroke:none; fill:#333399" text-anchor="left" /></g><g componentSequence="41"><text x="760" y="374" style="font-size:10px;font-weight:none;stroke:none; fill:#333399" text-anchor="left" /></g><g componentSequence="45"><text x="813" y="516" style="font-size:10px;font-weight:none;stroke:none; fill:#333399" text-anchor="left" /></g><g componentSequence="51"><text x="1023" y="657" style="font-size:10px;font-weight:none;stroke:none; fill:#333399" text-anchor="left" /></g><g componentSequence="53"><text x="1165" y="656" style="font-size:10px;font-weight:none;stroke:none; fill:#333399" text-anchor="left" /></g><g componentSequence="58"><text x="1055" y="515" style="font-size:10px;font-weight:none;stroke:none; fill:#333399" text-anchor="left" /></g><g componentSequence="66"><text x="1228" y="800" style="font-size:10px;font-weight:none;stroke:none; fill:#333399" text-anchor="left" /></g><g componentSequence="68"><text x="1360" y="820" style="font-size:10px;font-weight:none;stroke:none; fill:#333399" text-anchor="left" /></g><g componentSequence="70"><text x="1360" y="777" style="font-size:10px;font-weight:none;stroke:none; fill:#333399" text-anchor="left" /></g><g componentSequence="79"><text x="409" y="997" style="font-size:10px;font-weight:none;stroke:none; fill:#333399" text-anchor="left" /></g><g componentSequence="83"><text x="533" y="1127" style="font-size:10px;font-weight:none;stroke:none; fill:#333399" text-anchor="left" /></g><g componentSequence="86"><text x="738" y="1257" style="font-size:10px;font-weight:none;stroke:none; fill:#333399" text-anchor="left" /></g><g componentSequence="88"><text x="973" y="1387" style="font-size:10px;font-weight:none;stroke:none; fill:#333399" text-anchor="left" /></g><g componentSequence="98"><text x="1223" y="1516" style="font-size:10px;font-weight:none;stroke:none; fill:#333399" text-anchor="left" /></g><g componentSequence="100"><text x="1015" y="1256" style="font-size:10px;font-weight:none;stroke:none; fill:#333399" text-anchor="left" /></g><g componentSequence="102"><text x="1115" y="1386" style="font-size:10px;font-weight:none;stroke:none; fill:#333399" text-anchor="left" /></g><g componentSequence="105"><text x="690" y="1126" style="font-size:10px;font-weight:none;stroke:none; fill:#333399" text-anchor="left" /></g><g componentSequence="148"><text x="332" y="130" style="font-size:10px;font-weight:none;stroke:none; fill:#333399" text-anchor="left" /></g><g componentSequence="149"><text x="237" y="233" style="font-size:10px;font-weight:none;stroke:none; fill:#333399" text-anchor="left" /></g><g componentSequence="150"><text x="222" y="92" style="font-size:10px;font-weight:none;stroke:none; fill:#333399" text-anchor="left" /></g><g componentSequence="151"><text x="472" y="316" style="font-size:10px;font-weight:none;stroke:none; fill:#333399" text-anchor="left" /></g><g componentSequence="152"><text x="372" y="374" style="font-size:10px;font-weight:none;stroke:none; fill:#333399" text-anchor="left" /></g><g componentSequence="153"><text x="743" y="240" style="font-size:10px;font-weight:none;stroke:none; fill:#333399" text-anchor="left" /></g><g componentSequence="154"><text x="718" y="400" style="font-size:10px;font-weight:none;stroke:none; fill:#333399" text-anchor="left" /></g><g componentSequence="155"><text x="637" y="515" style="font-size:10px;font-weight:none;stroke:none; fill:#333399" text-anchor="left" /></g><g componentSequence="156"><text x="953" y="540" style="font-size:10px;font-weight:none;stroke:none; fill:#333399" text-anchor="left" /></g><g componentSequence="157"><text x="1153" y="688" style="font-size:10px;font-weight:none;stroke:none; fill:#333399" text-anchor="left" /></g><g componentSequence="158"><text x="1149" y="516" style="font-size:10px;font-weight:none;stroke:none; fill:#333399" text-anchor="left" /></g><g componentSequence="159"><text x="232" y="996" style="font-size:10px;font-weight:none;stroke:none; fill:#333399" text-anchor="left" /></g><g componentSequence="160"><text x="462" y="1073" style="font-size:10px;font-weight:none;stroke:none; fill:#333399" text-anchor="left" /></g><g componentSequence="161"><text x="380" y="1126" style="font-size:10px;font-weight:none;stroke:none; fill:#333399" text-anchor="left" /></g><g componentSequence="162"><text x="573" y="1257" style="font-size:10px;font-weight:none;stroke:none; fill:#333399" text-anchor="left" /></g><g componentSequence="163"><text x="648" y="1161" style="font-size:10px;font-weight:none;stroke:none; fill:#333399" text-anchor="left" /></g><g componentSequence="164"><text x="662" y="1028" style="font-size:10px;font-weight:none;stroke:none; fill:#333399" text-anchor="left" /></g><g componentSequence="165"><text x="892" y="1271" style="font-size:10px;font-weight:none;stroke:none; fill:#333399" text-anchor="left" /></g><g componentSequence="166"><text x="1108" y="1418" style="font-size:10px;font-weight:none;stroke:none; fill:#333399" text-anchor="left" /></g><g componentSequence="167"><text x="1093" y="1256" style="font-size:10px;font-weight:none;stroke:none; fill:#333399" text-anchor="left" /></g><path style="fill:none; stroke:#000000;stroke-width:1" d="M285.0 92.0 L322.0 92.0 L322.0 205.0" /><polygon style="fill:#000000; stroke:#000000;" points=" 327 195 322 205 317 195 322 197" /><path style="fill:none; stroke:#000000;stroke-width:1" d="M175.0 92.0 L249.0 92.0" /><polygon style="fill:#000000; stroke:#000000;" points=" 239 87 249 92 239 97 241 92" /><path style="fill:none; stroke:#000000;stroke-width:1" d="M376.0 234.0 L431.0 234.0" /><polygon style="fill:#000000; stroke:#000000;" points=" 421 229 431 234 421 239 423 234" /><path style="fill:none; stroke:#000000;stroke-width:1" d="M184.0 233.0 L269.0 233.0" /><polygon style="fill:#000000; stroke:#000000;" points=" 259 228 269 233 259 238 261 233" /><path style="fill:none; stroke:#000000;stroke-width:1" d="M516.0 375.0 L579.0 375.0" /><polygon style="fill:#000000; stroke:#000000;" points=" 569 370 579 375 569 380 571 375" /><path style="fill:none; stroke:#000000;stroke-width:1" d="M462.0 285.0 L462.0 346.0" /><polygon style="fill:#000000; stroke:#000000;" points=" 467 336 462 346 457 336 462 338" /><path style="fill:none; stroke:#000000;stroke-width:1" d="M314.0 374.0 L409.0 374.0" /><polygon style="fill:#000000; stroke:#000000;" points=" 399 369 409 374 399 379 401 374" /><path style="fill:none; stroke:#000000;stroke-width:1" d="M786.0 516.0 L819.0 516.0" /><polygon style="fill:#000000; stroke:#000000;" points=" 809 511 819 516 809 521 811 516" /><path style="fill:none; stroke:#000000;stroke-width:1" d="M492.0 233.0 L733.0 233.0 L733.0 487.0" /><polygon style="fill:#000000; stroke:#000000;" points=" 738 477 733 487 728 477 733 479" /><path style="fill:none; stroke:#000000;stroke-width:1" d="M640.0 374.0 L702.0 374.0 L726.0 487.0" /><polygon style="fill:#000000; stroke:#000000;" points=" 729 476 726 487 719 478 724 479" /><path style="fill:none; stroke:#000000;stroke-width:1" d="M574.0 515.0 L679.0 515.0" /><polygon style="fill:#000000; stroke:#000000;" points=" 669 510 679 515 669 520 671 515" /><path style="fill:none; stroke:#000000;stroke-width:1" d="M996.0 657.0 L1029.0 657.0" /><polygon style="fill:#000000; stroke:#000000;" points=" 1019 652 1029 657 1019 662 1021 657" /><path style="fill:none; stroke:#000000;stroke-width:1" d="M880.0 515.0 L943.0 515.0 L943.0 628.0" /><polygon style="fill:#000000; stroke:#000000;" points=" 948 618 943 628 938 618 943 620" /><path style="fill:none; stroke:#000000;stroke-width:1" d="M1196.0 800.0 L1239.0 800.0" /><polygon style="fill:#000000; stroke:#000000;" points=" 1229 795 1239 800 1229 805 1231 800" /><path style="fill:none; stroke:#000000;stroke-width:1" d="M1090.0 657.0 L1143.0 657.0 L1143.0 771.0" /><polygon style="fill:#000000; stroke:#000000;" points=" 1148 761 1143 771 1138 761 1143 763" /><path style="fill:none; stroke:#000000;stroke-width:1" d="M880.0 516.0 L1142.0 516.0 L1142.0 771.0" /><polygon style="fill:#000000; stroke:#000000;" points=" 1147 761 1142 771 1137 761 1142 763" /><path style="fill:none; stroke:#000000;stroke-width:1" d="M492.0 233.0 L800.0 233.0" /><polygon style="fill:#000000; stroke:#000000;" points=" 790 228 800 233 790 238 792 233" /><path style="fill:none; stroke:#000000;stroke-width:1" d="M640.0 374.0 L860.0 374.0" /><polygon style="fill:#000000; stroke:#000000;" points=" 850 369 860 374 850 379 852 374" /><path style="fill:none; stroke:#000000;stroke-width:1" d="M880.0 515.0 L1210.0 515.0" /><polygon style="fill:#000000; stroke:#000000;" points=" 1200 510 1210 515 1200 520 1202 515" /><path style="fill:none; stroke:#000000;stroke-width:1" d="M1090.0 656.0 L1220.0 656.0" /><polygon style="fill:#000000; stroke:#000000;" points=" 1210 651 1220 656 1210 661 1212 656" /><path style="fill:none; stroke:#000000;stroke-width:1" d="M1300.0 807.0 L1400.0 833.0" /><polygon style="fill:#000000; stroke:#000000;" points=" 1392 826 1400 833 1389 835 1392 831" /><path style="fill:none; stroke:#000000;stroke-width:1" d="M1300.0 791.0 L1400.0 762.0" /><polygon style="fill:#000000; stroke:#000000;" points=" 1389 760 1400 762 1392 770 1392 764" /><path style="fill:none; stroke:#000000;stroke-width:1" d="M174.0 996.0 L269.0 996.0" /><polygon style="fill:#000000; stroke:#000000;" points=" 259 991 269 996 259 1001 261 996" /><path style="fill:none; stroke:#000000;stroke-width:1" d="M376.0 997.0 L421.0 997.0" /><polygon style="fill:#000000; stroke:#000000;" points=" 411 992 421 997 411 1002 413 997" /><path style="fill:none; stroke:#000000;stroke-width:1" d="M506.0 1127.0 L539.0 1127.0" /><polygon style="fill:#000000; stroke:#000000;" points=" 529 1122 539 1127 529 1132 531 1127" /><path style="fill:none; stroke:#000000;stroke-width:1" d="M452.0 1048.0 L452.0 1098.0" /><polygon style="fill:#000000; stroke:#000000;" points=" 457 1088 452 1098 447 1088 452 1090" /><path style="fill:none; stroke:#000000;stroke-width:1" d="M339.0 1126.0 L399.0 1126.0" /><polygon style="fill:#000000; stroke:#000000;" points=" 389 1121 399 1126 389 1131 391 1126" /><path style="fill:none; stroke:#000000;stroke-width:1" d="M706.0 1257.0 L749.0 1257.0" /><polygon style="fill:#000000; stroke:#000000;" points=" 739 1252 749 1257 739 1262 741 1257" /><path style="fill:none; stroke:#000000;stroke-width:1" d="M526.0 1257.0 L599.0 1257.0" /><polygon style="fill:#000000; stroke:#000000;" points=" 589 1252 599 1257 589 1262 591 1257" /><path style="fill:none; stroke:#000000;stroke-width:1" d="M600.0 1126.0 L633.0 1126.0 L648.0 1228.0" /><polygon style="fill:#000000; stroke:#000000;" points=" 651 1217 648 1228 642 1219 647 1220" /><path style="fill:none; stroke:#000000;stroke-width:1" d="M482.0 997.0 L652.0 997.0 L652.0 1228.0" /><polygon style="fill:#000000; stroke:#000000;" points=" 657 1218 652 1228 647 1218 652 1220" /><path style="fill:none; stroke:#000000;stroke-width:1" d="M936.0 1387.0 L989.0 1387.0" /><polygon style="fill:#000000; stroke:#000000;" points=" 979 1382 989 1387 979 1392 981 1387" /><path style="fill:none; stroke:#000000;stroke-width:1" d="M810.0 1256.0 L882.0 1256.0 L882.0 1358.0" /><polygon style="fill:#000000; stroke:#000000;" points=" 887 1348 882 1358 877 1348 882 1350" /><path style="fill:none; stroke:#000000;stroke-width:1" d="M1176.0 1516.0 L1250.0 1516.0" /><polygon style="fill:#000000; stroke:#000000;" points=" 1240 1511 1250 1516 1240 1521 1242 1516" /><path style="fill:none; stroke:#000000;stroke-width:1" d="M1050.0 1386.0 L1090.0 1386.0 L1115.0 1488.0" /><polygon style="fill:#000000; stroke:#000000;" points=" 1117 1477 1115 1488 1108 1479 1113 1480" /><path style="fill:none; stroke:#000000;stroke-width:1" d="M810.0 1256.0 L1123.0 1256.0 L1123.0 1488.0" /><polygon style="fill:#000000; stroke:#000000;" points=" 1128 1478 1123 1488 1118 1478 1123 1480" /><path style="fill:none; stroke:#000000;stroke-width:1" d="M600.0 1126.0 L760.0 1126.0" /><polygon style="fill:#000000; stroke:#000000;" points=" 750 1121 760 1126 750 1131 752 1126" /><path style="fill:none; stroke:#000000;stroke-width:1" d="M810.0 1256.0 L1200.0 1256.0" /><polygon style="fill:#000000; stroke:#000000;" points=" 1190 1251 1200 1256 1190 1261 1192 1256" /><path style="fill:none; stroke:#000000;stroke-width:1" d="M1050.0 1386.0 L1160.0 1386.0" /><polygon style="fill:#000000; stroke:#000000;" points=" 1150 1381 1160 1386 1150 1391 1152 1386" /><defs><linearGradient xmlns:xlink="http://www.w3.org/1999/xlink" xlink:href="#linearGradient66FF6696FF96B6FFB6" id="linearGradient66FF6696FF96B6FFB6_140640996" x1="0" y1="75.0" x2="0" y2="110.0" gradientUnits="userSpaceOnUse" xlink:type="simple" xlink:actuate="onLoad" xlink:show="other" /><linearGradient id="linearGradient66FF6696FF96B6FFB6"><stop style="stop-color:#66FF66;stop-opacity:1;" offset="0.0" id="stop66FF66" /><stop style="stop-color:#96FF96;stop-opacity:1;" offset="0.5" id="stop96FF96" /><stop style="stop-color:#B6FFB6;stop-opacity:1;" offset="1.0" id="stopB6FFB6" /></linearGradient><linearGradient xmlns:xlink="http://www.w3.org/1999/xlink" xlink:href="#linearGradientF8FBFEEDF5FCDEEDFAD4E7F8E2E5E9" id="linearGradientF8FBFEEDF5FCDEEDFAD4E7F8E2E5E9_111537560" x1="0" y1="206.0" x2="0" y2="312.0" gradientUnits="userSpaceOnUse" xlink:type="simple" xlink:actuate="onLoad" xlink:show="other" /><linearGradient id="linearGradientF8FBFEEDF5FCDEEDFAD4E7F8E2E5E9"><stop style="stop-color:#F8FBFE;stop-opacity:1;" offset="0.0" id="stopF8FBFE" /><stop style="stop-color:#EDF5FC;stop-opacity:1;" offset="0.25" id="stopEDF5FC" /><stop style="stop-color:#DEEDFA;stop-opacity:1;" offset="0.5" id="stopDEEDFA" /><stop style="stop-color:#D4E7F8;stop-opacity:1;" offset="0.75" id="stopD4E7F8" /><stop style="stop-color:#E2E5E9;stop-opacity:1;" offset="1.0" id="stopE2E5E9" /></linearGradient><linearGradient xmlns:xlink="http://www.w3.org/1999/xlink" xlink:href="#linearGradientF8FBFEEDF5FCDEEDFAD4E7F8E2E5E9" id="linearGradientF8FBFEEDF5FCDEEDFAD4E7F8E2E5E9_43674004" x1="0" y1="347.0" x2="0" y2="453.0" gradientUnits="userSpaceOnUse" xlink:type="simple" xlink:actuate="onLoad" xlink:show="other" /><linearGradient xmlns:xlink="http://www.w3.org/1999/xlink" xlink:href="#linearGradientF8FBFEEDF5FCDEEDFAD4E7F8E2E5E9" id="linearGradientF8FBFEEDF5FCDEEDFAD4E7F8E2E5E9_1201203107" x1="0" y1="488.0" x2="0" y2="594.0" gradientUnits="userSpaceOnUse" xlink:type="simple" xlink:actuate="onLoad" xlink:show="other" /><linearGradient xmlns:xlink="http://www.w3.org/1999/xlink" xlink:href="#linearGradientF8FBFEEDF5FCDEEDFAD4E7F8E2E5E9" id="linearGradientF8FBFEEDF5FCDEEDFAD4E7F8E2E5E9_1601550486" x1="0" y1="629.0" x2="0" y2="735.0" gradientUnits="userSpaceOnUse" xlink:type="simple" xlink:actuate="onLoad" xlink:show="other" /><linearGradient xmlns:xlink="http://www.w3.org/1999/xlink" xlink:href="#linearGradientF8FBFEEDF5FCDEEDFAD4E7F8E2E5E9" id="linearGradientF8FBFEEDF5FCDEEDFAD4E7F8E2E5E9_1989494733" x1="0" y1="772.0" x2="0" y2="878.0" gradientUnits="userSpaceOnUse" xlink:type="simple" xlink:actuate="onLoad" xlink:show="other" /><linearGradient xmlns:xlink="http://www.w3.org/1999/xlink" xlink:href="#linearGradientFAFBFCFFFFCC" id="linearGradientFAFBFCFFFFCC_663897666" x1="0" y1="183.0" x2="0" y2="243.0" gradientUnits="userSpaceOnUse" xlink:type="simple" xlink:actuate="onLoad" xlink:show="other" /><linearGradient id="linearGradientFAFBFCFFFFCC"><stop style="stop-color:#FAFBFC;stop-opacity:1;" offset="0.0" id="stopFAFBFC" /><stop style="stop-color:#FFFFCC;stop-opacity:1;" offset="1.0" id="stopFFFFCC" /></linearGradient><linearGradient xmlns:xlink="http://www.w3.org/1999/xlink" xlink:href="#linearGradientFAFBFCFFFFCC" id="linearGradientFAFBFCFFFFCC_666310892" x1="0" y1="324.0" x2="0" y2="384.0" gradientUnits="userSpaceOnUse" xlink:type="simple" xlink:actuate="onLoad" xlink:show="other" /><linearGradient xmlns:xlink="http://www.w3.org/1999/xlink" xlink:href="#linearGradientFFFF66FFFF96FFFFB6" id="linearGradientFFFF66FFFF96FFFFB6_1433712004" x1="0" y1="75.0" x2="0" y2="110.0" gradientUnits="userSpaceOnUse" xlink:type="simple" xlink:actuate="onLoad" xlink:show="other" /><linearGradient id="linearGradientFFFF66FFFF96FFFFB6"><stop style="stop-color:#FFFF66;stop-opacity:1;" offset="0.0" id="stopFFFF66" /><stop style="stop-color:#FFFF96;stop-opacity:1;" offset="0.5" id="stopFFFF96" /><stop style="stop-color:#FFFFB6;stop-opacity:1;" offset="1.0" id="stopFFFFB6" /></linearGradient><linearGradient xmlns:xlink="http://www.w3.org/1999/xlink" xlink:href="#linearGradientFFFF66FFFF96FFFFB6" id="linearGradientFFFF66FFFF96FFFFB6_159591368" x1="0" y1="216.0" x2="0" y2="251.0" gradientUnits="userSpaceOnUse" xlink:type="simple" xlink:actuate="onLoad" xlink:show="other" /><linearGradient xmlns:xlink="http://www.w3.org/1999/xlink" xlink:href="#linearGradientFFFF66FFFF96FFFFB6" id="linearGradientFFFF66FFFF96FFFFB6_1016515820" x1="0" y1="357.0" x2="0" y2="392.0" gradientUnits="userSpaceOnUse" xlink:type="simple" xlink:actuate="onLoad" xlink:show="other" /><linearGradient xmlns:xlink="http://www.w3.org/1999/xlink" xlink:href="#linearGradientFFFF66FFFF96FFFFB6" id="linearGradientFFFF66FFFF96FFFFB6_603571178" x1="0" y1="498.0" x2="0" y2="533.0" gradientUnits="userSpaceOnUse" xlink:type="simple" xlink:actuate="onLoad" xlink:show="other" /><linearGradient xmlns:xlink="http://www.w3.org/1999/xlink" xlink:href="#linearGradientFFFF66FFFF96FFFFB6" id="linearGradientFFFF66FFFF96FFFFB6_1397852804" x1="0" y1="216.0" x2="0" y2="251.0" gradientUnits="userSpaceOnUse" xlink:type="simple" xlink:actuate="onLoad" xlink:show="other" /><linearGradient xmlns:xlink="http://www.w3.org/1999/xlink" xlink:href="#linearGradientFFFF66FFFF96FFFFB6" id="linearGradientFFFF66FFFF96FFFFB6_1125922381" x1="0" y1="357.0" x2="0" y2="392.0" gradientUnits="userSpaceOnUse" xlink:type="simple" xlink:actuate="onLoad" xlink:show="other" /><linearGradient xmlns:xlink="http://www.w3.org/1999/xlink" xlink:href="#linearGradientFAFBFCFFFFCC" id="linearGradientFAFBFCFFFFCC_1231516526" x1="0" y1="465.0" x2="0" y2="525.0" gradientUnits="userSpaceOnUse" xlink:type="simple" xlink:actuate="onLoad" xlink:show="other" /><linearGradient xmlns:xlink="http://www.w3.org/1999/xlink" xlink:href="#linearGradientFFFF66FFFF96FFFFB6" id="linearGradientFFFF66FFFF96FFFFB6_611061563" x1="0" y1="498.0" x2="0" y2="533.0" gradientUnits="userSpaceOnUse" xlink:type="simple" xlink:actuate="onLoad" xlink:show="other" /><linearGradient xmlns:xlink="http://www.w3.org/1999/xlink" xlink:href="#linearGradientFFFF66FFFF96FFFFB6" id="linearGradientFFFF66FFFF96FFFFB6_2075571352" x1="0" y1="639.0" x2="0" y2="674.0" gradientUnits="userSpaceOnUse" xlink:type="simple" xlink:actuate="onLoad" xlink:show="other" /><linearGradient xmlns:xlink="http://www.w3.org/1999/xlink" xlink:href="#linearGradientFAFBFCFFFFCC" id="linearGradientFAFBFCFFFFCC_1496992765" x1="0" y1="606.0" x2="0" y2="666.0" gradientUnits="userSpaceOnUse" xlink:type="simple" xlink:actuate="onLoad" xlink:show="other" /><linearGradient xmlns:xlink="http://www.w3.org/1999/xlink" xlink:href="#linearGradientFAFBFCFFFFCC" id="linearGradientFAFBFCFFFFCC_733265847" x1="0" y1="749.0" x2="0" y2="809.0" gradientUnits="userSpaceOnUse" xlink:type="simple" xlink:actuate="onLoad" xlink:show="other" /><linearGradient xmlns:xlink="http://www.w3.org/1999/xlink" xlink:href="#linearGradientFF6666FF9696FFB6B6" id="linearGradientFF6666FF9696FFB6B6_1868920877" x1="0" y1="820.0" x2="0" y2="855.0" gradientUnits="userSpaceOnUse" xlink:type="simple" xlink:actuate="onLoad" xlink:show="other" /><linearGradient id="linearGradientFF6666FF9696FFB6B6"><stop style="stop-color:#FF6666;stop-opacity:1;" offset="0.0" id="stopFF6666" /><stop style="stop-color:#FF9696;stop-opacity:1;" offset="0.5" id="stopFF9696" /><stop style="stop-color:#FFB6B6;stop-opacity:1;" offset="1.0" id="stopFFB6B6" /></linearGradient><linearGradient xmlns:xlink="http://www.w3.org/1999/xlink" xlink:href="#linearGradientFFFF66FFFF96FFFFB6" id="linearGradientFFFF66FFFF96FFFFB6_565773101" x1="0" y1="740.0" x2="0" y2="775.0" gradientUnits="userSpaceOnUse" xlink:type="simple" xlink:actuate="onLoad" xlink:show="other" /><linearGradient xmlns:xlink="http://www.w3.org/1999/xlink" xlink:href="#linearGradientFFFF66FFFF96FFFFB6" id="linearGradientFFFF66FFFF96FFFFB6_710394180" x1="0" y1="979.0" x2="0" y2="1014.0" gradientUnits="userSpaceOnUse" xlink:type="simple" xlink:actuate="onLoad" xlink:show="other" /><linearGradient xmlns:xlink="http://www.w3.org/1999/xlink" xlink:href="#linearGradientF8FBFEEDF5FCDEEDFAD4E7F8E2E5E9" id="linearGradientF8FBFEEDF5FCDEEDFAD4E7F8E2E5E9_613456574" x1="0" y1="969.0" x2="0" y2="1075.0" gradientUnits="userSpaceOnUse" xlink:type="simple" xlink:actuate="onLoad" xlink:show="other" /><linearGradient xmlns:xlink="http://www.w3.org/1999/xlink" xlink:href="#linearGradientF8FBFEEDF5FCDEEDFAD4E7F8E2E5E9" id="linearGradientF8FBFEEDF5FCDEEDFAD4E7F8E2E5E9_1626352145" x1="0" y1="1099.0" x2="0" y2="1205.0" gradientUnits="userSpaceOnUse" xlink:type="simple" xlink:actuate="onLoad" xlink:show="other" /><linearGradient xmlns:xlink="http://www.w3.org/1999/xlink" xlink:href="#linearGradientF8FBFEEDF5FCDEEDFAD4E7F8E2E5E9" id="linearGradientF8FBFEEDF5FCDEEDFAD4E7F8E2E5E9_163183945" x1="0" y1="1229.0" x2="0" y2="1335.0" gradientUnits="userSpaceOnUse" xlink:type="simple" xlink:actuate="onLoad" xlink:show="other" /><linearGradient xmlns:xlink="http://www.w3.org/1999/xlink" xlink:href="#linearGradientF8FBFEEDF5FCDEEDFAD4E7F8E2E5E9" id="linearGradientF8FBFEEDF5FCDEEDFAD4E7F8E2E5E9_502284507" x1="0" y1="1359.0" x2="0" y2="1465.0" gradientUnits="userSpaceOnUse" xlink:type="simple" xlink:actuate="onLoad" xlink:show="other" /><linearGradient xmlns:xlink="http://www.w3.org/1999/xlink" xlink:href="#linearGradientF8FBFEEDF5FCDEEDFAD4E7F8E2E5E9" id="linearGradientF8FBFEEDF5FCDEEDFAD4E7F8E2E5E9_1024814257" x1="0" y1="1489.0" x2="0" y2="1595.0" gradientUnits="userSpaceOnUse" xlink:type="simple" xlink:actuate="onLoad" xlink:show="other" /><linearGradient xmlns:xlink="http://www.w3.org/1999/xlink" xlink:href="#linearGradientFAFBFCFFFFCC" id="linearGradientFAFBFCFFFFCC_1557428640" x1="0" y1="946.0" x2="0" y2="1006.0" gradientUnits="userSpaceOnUse" xlink:type="simple" xlink:actuate="onLoad" xlink:show="other" /><linearGradient xmlns:xlink="http://www.w3.org/1999/xlink" xlink:href="#linearGradientFAFBFCFFFFCC" id="linearGradientFAFBFCFFFFCC_440501446" x1="0" y1="1076.0" x2="0" y2="1136.0" gradientUnits="userSpaceOnUse" xlink:type="simple" xlink:actuate="onLoad" xlink:show="other" /><linearGradient xmlns:xlink="http://www.w3.org/1999/xlink" xlink:href="#linearGradientFAFBFCFFFFCC" id="linearGradientFAFBFCFFFFCC_86567373" x1="0" y1="1206.0" x2="0" y2="1266.0" gradientUnits="userSpaceOnUse" xlink:type="simple" xlink:actuate="onLoad" xlink:show="other" /><linearGradient xmlns:xlink="http://www.w3.org/1999/xlink" xlink:href="#linearGradientFAFBFCFFFFCC" id="linearGradientFAFBFCFFFFCC_323906877" x1="0" y1="1336.0" x2="0" y2="1396.0" gradientUnits="userSpaceOnUse" xlink:type="simple" xlink:actuate="onLoad" xlink:show="other" /><linearGradient xmlns:xlink="http://www.w3.org/1999/xlink" xlink:href="#linearGradientFFFF66FFFF96FFFFB6" id="linearGradientFFFF66FFFF96FFFFB6_1814568845" x1="0" y1="1109.0" x2="0" y2="1144.0" gradientUnits="userSpaceOnUse" xlink:type="simple" xlink:actuate="onLoad" xlink:show="other" /><linearGradient xmlns:xlink="http://www.w3.org/1999/xlink" xlink:href="#linearGradientFFFF66FFFF96FFFFB6" id="linearGradientFFFF66FFFF96FFFFB6_2052706682" x1="0" y1="1240.0" x2="0" y2="1275.0" gradientUnits="userSpaceOnUse" xlink:type="simple" xlink:actuate="onLoad" xlink:show="other" /><linearGradient xmlns:xlink="http://www.w3.org/1999/xlink" xlink:href="#linearGradientFF6666FF9696FFB6B6" id="linearGradientFF6666FF9696FFB6B6_956115325" x1="0" y1="1499.0" x2="0" y2="1534.0" gradientUnits="userSpaceOnUse" xlink:type="simple" xlink:actuate="onLoad" xlink:show="other" /><linearGradient xmlns:xlink="http://www.w3.org/1999/xlink" xlink:href="#linearGradientFFFF66FFFF96FFFFB6" id="linearGradientFFFF66FFFF96FFFFB6_1480232154" x1="0" y1="1239.0" x2="0" y2="1274.0" gradientUnits="userSpaceOnUse" xlink:type="simple" xlink:actuate="onLoad" xlink:show="other" /><linearGradient xmlns:xlink="http://www.w3.org/1999/xlink" xlink:href="#linearGradientFFFF66FFFF96FFFFB6" id="linearGradientFFFF66FFFF96FFFFB6_1950495783" x1="0" y1="1369.0" x2="0" y2="1404.0" gradientUnits="userSpaceOnUse" xlink:type="simple" xlink:actuate="onLoad" xlink:show="other" /><linearGradient xmlns:xlink="http://www.w3.org/1999/xlink" xlink:href="#linearGradientFFFF66FFFF96FFFFB6" id="linearGradientFFFF66FFFF96FFFFB6_1084549588" x1="0" y1="1109.0" x2="0" y2="1144.0" gradientUnits="userSpaceOnUse" xlink:type="simple" xlink:actuate="onLoad" xlink:show="other" /></defs></svg>
