<?xml version="1.0" encoding="UTF-8"?>
<svg xmlns="http://www.w3.org/2000/svg" style="stroke-dasharray:none; shape-rendering:auto; font-family:'Arial'; text-rendering:auto; fill-opacity:1; color-interpolation:auto; color-rendering:auto; font-size:12; fill:black; stroke:black; image-rendering:auto; stroke-miterlimit:10; stroke-linecap:square; stroke-linejoin:miter; font-style:normal; stroke-width:1; stroke-dashoffset:0; font-weight:normal; stroke-opacity:1;" contentScriptType="text/ecmascript" preserveAspectRatio="xMidYMid meet" zoomAndPan="magnify" version="1.0" contentStyleType="text/css" xml:xlink="http://www.w3.org/1999/xlink" width="1101" height="1147"><rect x="22" y="144" width="1079" height="145" ry="0" rx="0" style="stroke:#000000; fill:#D0DAAE" /><g componentSequence="5"><text x="-216" y="29" transform="rotate(270)" text-anchor="middle" style="font-weight:bold;font-size:10px;stroke:none; fill:#434343"><tspan dy="14" x="-216">Industrial</tspan></text></g><rect x="22" y="715" width="1079" height="145" ry="0" rx="0" style="stroke:#000000; fill:#D0DAAE" /><g componentSequence="117"><text x="-787" y="29" transform="rotate(270)" text-anchor="middle" style="font-weight:bold;font-size:10px;stroke:none; fill:#434343"><tspan dy="14" x="-787">Faturamento</tspan></text></g><rect x="22" y="0" width="1079" height="145" ry="0" rx="0" style="stroke:#000000; fill:#82B0B7" /><g componentSequence="1"><text x="-72" y="29" transform="rotate(270)" text-anchor="middle" style="font-weight:bold;font-size:10px;stroke:none; fill:#434343"><tspan dy="14" x="-72">Solicitante</tspan></text></g><rect x="22" y="287" width="1079" height="145" ry="0" rx="0" style="stroke:#000000; fill:#C9C3AC" /><g componentSequence="7"><text x="-359" y="29" transform="rotate(270)" text-anchor="middle" style="font-weight:bold;font-size:10px;stroke:none; fill:#434343"><tspan dy="14" x="-359">Custos</tspan></text></g><rect x="22" y="424" width="1079" height="145" ry="0" rx="0" style="stroke:#000000; fill:#9FC1C6" /><g componentSequence="3"><text x="-496" y="29" transform="rotate(270)" text-anchor="middle" style="font-weight:bold;font-size:10px;stroke:none; fill:#434343"><tspan dy="14" x="-496">Logística</tspan></text></g><rect x="22" y="570" width="1079" height="145" ry="0" rx="0" style="stroke:#000000; fill:#ADC9AC" /><g componentSequence="4"><text x="-642" y="29" transform="rotate(270)" text-anchor="middle" style="font-weight:bold;font-size:10px;stroke:none; fill:#434343"><tspan dy="14" x="-642">Fiscal</tspan></text></g><rect x="22" y="858" width="1079" height="145" ry="0" rx="0" style="stroke:#000000; fill:#D6E0D0" /><g componentSequence="2"><text x="-930" y="29" transform="rotate(270)" text-anchor="middle" style="font-weight:bold;font-size:10px;stroke:none; fill:#434343"><tspan dy="14" x="-930">Financeiro</tspan></text></g><rect x="22" y="1002" width="1079" height="145" ry="0" rx="0" style="stroke:#000000; fill:#C9C3AC" /><g componentSequence="6"><text x="-1074" y="29" transform="rotate(270)" text-anchor="middle" style="font-weight:bold;font-size:10px;stroke:none; fill:#434343"><tspan dy="14" x="-1074">Custos</tspan></text></g><g sequence="1"><ellipse cx="262" cy="73" rx="17" ry="17" stroke-width="1" style="fill:url(#linearGradient66FF6696FF96B6FFB6_1559238406);" stroke="336633" /></g><g sequence="3"><rect x="210" y="615" width="106" height="56" ry="5" rx="5" style="fill:url(#linearGradientF8FBFEEDF5FCDEEDFAD4E7F8E2E5E9_1379394280);" stroke="191970" /></g><g componentSequence="3"><text x="263" y="632" text-anchor="middle" style="font-weight:bold;font-size:10px;stroke:none; fill:#333399"><tspan dy="14" x="263">Fiscal</tspan></text></g><g sequence="4"><rect x="210" y="759" width="106" height="56" ry="5" rx="5" style="fill:url(#linearGradientF8FBFEEDF5FCDEEDFAD4E7F8E2E5E9_1443396726);" stroke="191970" /></g><g componentSequence="4"><text x="263" y="776" text-anchor="middle" style="font-weight:bold;font-size:10px;stroke:none; fill:#333399"><tspan dy="14" x="263">Faturamentos</tspan></text></g><g sequence="5"><rect x="210" y="904" width="106" height="56" ry="5" rx="5" style="fill:url(#linearGradientF8FBFEEDF5FCDEEDFAD4E7F8E2E5E9_319482067);" stroke="191970" /></g><g componentSequence="5"><text x="263" y="921" text-anchor="middle" style="font-weight:bold;font-size:10px;stroke:none; fill:#333399"><tspan dy="14" x="263">Financeiro</tspan></text></g><g sequence="6"><ellipse cx="717" cy="1075" rx="17" ry="17" stroke-width="3" style="fill:url(#linearGradientFF6666FF9696FFB6B6_1335793043);" stroke="993333" /></g><g sequence="27"><ellipse cx="117" cy="73" rx="17" ry="17" stroke-width="1" style="fill:url(#linearGradientFFFF66FFFF96FFFFB6_584261162);" stroke="999900" /></g><g sequence="27"><polygon points=" 103 66 118 66 118 59 133 74 118 89 118 82 103 82" style="stroke:#999900; fill:none" /></g><g sequence="29"><ellipse cx="127" cy="643" rx="17" ry="17" stroke-width="1" style="fill:url(#linearGradientFFFF66FFFF96FFFFB6_934100426);" stroke="999900" /></g><g sequence="29"><polygon points=" 113 636 128 636 128 629 143 644 128 659 128 652 113 652" style="stroke:#999900; fill:none" /></g><g sequence="31"><ellipse cx="127" cy="786" rx="17" ry="17" stroke-width="1" style="fill:url(#linearGradientFFFF66FFFF96FFFFB6_1931810716);" stroke="999900" /></g><g sequence="31"><polygon points=" 113 779 128 779 128 772 143 787 128 802 128 795 113 795" style="stroke:#999900; fill:none" /></g><g sequence="35"><ellipse cx="727" cy="643" rx="17" ry="17" stroke-width="3" style="fill:url(#linearGradientFF6666FF9696FFB6B6_1219241574);" stroke="993333" /></g><g sequence="38"><polygon points=" 370 629 400 599 430 629 400 659 370 629" style="fill:url(#linearGradientFAFBFCFFFFCC_1916031767);" stroke="000000" /></g><g componentSequence="38"><text x="400" y="662" text-anchor="middle" style="font-weight:bold;font-size:10px;stroke:none; fill:#333399"><tspan dy="14" x="400">Valida</tspan></text></g><g sequence="39"><polygon points=" 380 773 410 743 440 773 410 803 380 773" style="fill:url(#linearGradientFAFBFCFFFFCC_749302774);" stroke="000000" /></g><g componentSequence="39"><text x="410" y="806" text-anchor="middle" style="font-weight:bold;font-size:10px;stroke:none; fill:#333399"><tspan dy="14" x="410">Valida</tspan></text></g><g sequence="40"><polygon points=" 400 918 430 888 460 918 430 948 400 918" style="fill:url(#linearGradientFAFBFCFFFFCC_2003503112);" stroke="000000" /></g><g componentSequence="40"><text x="430" y="951" text-anchor="middle" style="font-weight:bold;font-size:10px;stroke:none; fill:#333399"><tspan dy="14" x="430">Valida</tspan></text></g><g sequence="51"><ellipse cx="597" cy="979" rx="17" ry="17" stroke-width="1" style="fill:url(#linearGradientFFFF66FFFF96FFFFB6_1583194005);" stroke="999900" /></g><g sequence="51"><polygon points=" 583 972 598 972 598 965 613 980 598 995 598 988 583 988" style="stroke:none; fill:#999900" /></g><g sequence="52"><ellipse cx="627" cy="844" rx="17" ry="17" stroke-width="1" style="fill:url(#linearGradientFFFF66FFFF96FFFFB6_237097890);" stroke="999900" /></g><g sequence="52"><polygon points=" 613 837 628 837 628 830 643 845 628 860 628 853 613 853" style="stroke:none; fill:#999900" /></g><g sequence="53"><ellipse cx="527" cy="594" rx="17" ry="17" stroke-width="1" style="fill:url(#linearGradientFFFF66FFFF96FFFFB6_1777350483);" stroke="999900" /></g><g sequence="53"><polygon points=" 513 587 528 587 528 580 543 595 528 610 528 603 513 603" style="stroke:none; fill:#999900" /></g><g sequence="57"><ellipse cx="627" cy="734" rx="17" ry="17" stroke-width="1" style="fill:url(#linearGradientFFFF66FFFF96FFFFB6_1182030125);" stroke="999900" /></g><g sequence="57"><polygon points=" 613 727 628 727 628 720 643 735 628 750 628 743 613 743" style="stroke:none; fill:#999900" /></g><g sequence="59"><ellipse cx="597" cy="879" rx="17" ry="17" stroke-width="1" style="fill:url(#linearGradientFFFF66FFFF96FFFFB6_1952962369);" stroke="999900" /></g><g sequence="59"><polygon points=" 583 872 598 872 598 865 613 880 598 895 598 888 583 888" style="stroke:none; fill:#999900" /></g><g sequence="69"><rect x="210" y="470" width="106" height="56" ry="5" rx="5" style="fill:url(#linearGradientF8FBFEEDF5FCDEEDFAD4E7F8E2E5E9_1952163500);" stroke="191970" /></g><g componentSequence="69"><text x="263" y="487" text-anchor="middle" style="font-weight:bold;font-size:10px;stroke:none; fill:#333399"><tspan dy="14" x="263">Logística</tspan></text></g><g sequence="70"><rect x="210" y="1048" width="106" height="56" ry="5" rx="5" style="fill:url(#linearGradientF8FBFEEDF5FCDEEDFAD4E7F8E2E5E9_486104539);" stroke="191970" /></g><g componentSequence="70"><text x="263" y="1065" text-anchor="middle" style="font-weight:bold;font-size:10px;stroke:none; fill:#333399"><tspan dy="14" x="263">Custos</tspan></text></g><g sequence="71"><ellipse cx="127" cy="497" rx="17" ry="17" stroke-width="1" style="fill:url(#linearGradientFFFF66FFFF96FFFFB6_2015416920);" stroke="999900" /></g><g sequence="71"><polygon points=" 113 490 128 490 128 483 143 498 128 513 128 506 113 506" style="stroke:#999900; fill:none" /></g><g sequence="72"><ellipse cx="127" cy="931" rx="17" ry="17" stroke-width="1" style="fill:url(#linearGradientFFFF66FFFF96FFFFB6_850911170);" stroke="999900" /></g><g sequence="72"><polygon points=" 113 924 128 924 128 917 143 932 128 947 128 940 113 940" style="stroke:#999900; fill:none" /></g><g sequence="75"><polygon points=" 390 484 420 454 450 484 420 514 390 484" style="fill:url(#linearGradientFAFBFCFFFFCC_468742654);" stroke="000000" /></g><g componentSequence="75"><text x="420" y="517" text-anchor="middle" style="font-weight:bold;font-size:10px;stroke:none; fill:#333399"><tspan dy="14" x="420">Valida</tspan></text></g><g sequence="77"><ellipse cx="607" cy="444" rx="17" ry="17" stroke-width="1" style="fill:url(#linearGradientFFFF66FFFF96FFFFB6_1295114462);" stroke="999900" /></g><g sequence="77"><polygon points=" 593 437 608 437 608 430 623 445 608 460 608 453 593 453" style="stroke:none; fill:#999900" /></g><g sequence="78"><ellipse cx="527" cy="684" rx="17" ry="17" stroke-width="1" style="fill:url(#linearGradientFFFF66FFFF96FFFFB6_872241458);" stroke="999900" /></g><g sequence="78"><polygon points=" 513 677 528 677 528 670 543 685 528 700 528 693 513 693" style="stroke:none; fill:#999900" /></g><g sequence="80"><polygon points=" 390 1062 420 1032 450 1062 420 1092 390 1062" style="fill:url(#linearGradientFAFBFCFFFFCC_1060686144);" stroke="000000" /></g><g componentSequence="80"><text x="420" y="1095" text-anchor="middle" style="font-weight:bold;font-size:10px;stroke:none; fill:#333399"><tspan dy="14" x="420">Valida</tspan></text></g><g sequence="83"><ellipse cx="617" cy="1034" rx="17" ry="17" stroke-width="1" style="fill:url(#linearGradientFFFF66FFFF96FFFFB6_668938456);" stroke="999900" /></g><g sequence="83"><polygon points=" 603 1027 618 1027 618 1020 633 1035 618 1050 618 1043 603 1043" style="stroke:none; fill:#999900" /></g><g sequence="84"><ellipse cx="617" cy="1124" rx="17" ry="17" stroke-width="1" style="fill:url(#linearGradientFFFF66FFFF96FFFFB6_1705640941);" stroke="999900" /></g><g sequence="84"><polygon points=" 603 1117 618 1117 618 1110 633 1125 618 1140 618 1133 603 1133" style="stroke:none; fill:#999900" /></g><g sequence="92"><ellipse cx="737" cy="931" rx="17" ry="17" stroke-width="3" style="fill:url(#linearGradientFF6666FF9696FFB6B6_1019732643);" stroke="993333" /></g><g sequence="97"><ellipse cx="607" cy="544" rx="17" ry="17" stroke-width="1" style="fill:url(#linearGradientFFFF66FFFF96FFFFB6_1162628786);" stroke="999900" /></g><g sequence="97"><polygon points=" 593 537 608 537 608 530 623 545 608 560 608 553 593 553" style="stroke:none; fill:#999900" /></g><g sequence="99"><ellipse cx="717" cy="786" rx="17" ry="17" stroke-width="1" style="fill:url(#linearGradientFFFF66FFFF96FFFFB6_457961267);" stroke="999900" /></g><g sequence="99"><polygon points=" 703 779 718 779 718 772 733 787 718 802 718 795 703 795" style="stroke:none; fill:#999900" /></g><g sequence="101"><ellipse cx="547" cy="1124" rx="17" ry="17" stroke-width="1" style="fill:url(#linearGradientFFFF66FFFF96FFFFB6_776680156);" stroke="999900" /></g><g sequence="101"><polygon points=" 533 1117 548 1117 548 1110 563 1125 548 1140 548 1133 533 1133" style="stroke:none; fill:#999900" /></g><g sequence="104"><rect x="210" y="333" width="106" height="56" ry="5" rx="5" style="fill:url(#linearGradientF8FBFEEDF5FCDEEDFAD4E7F8E2E5E9_756682572);" stroke="191970" /></g><g componentSequence="104"><text x="263" y="350" text-anchor="middle" style="font-weight:bold;font-size:10px;stroke:none; fill:#333399"><tspan dy="14" x="263">Custos</tspan></text></g><g sequence="106"><polygon points=" 410 340 440 310 470 340 440 370 410 340" style="fill:url(#linearGradientFAFBFCFFFFCC_168095107);" stroke="000000" /></g><g componentSequence="106"><text x="440" y="380" text-anchor="middle" style="font-weight:bold;font-size:10px;stroke:none; fill:#333399"><tspan dy="14" x="440">Exclusiv</tspan><tspan dy="14" x="440">o</tspan></text></g><g sequence="108"><ellipse cx="657" cy="497" rx="17" ry="17" stroke-width="1" style="fill:url(#linearGradientFFFF66FFFF96FFFFB6_1316137351);" stroke="999900" /></g><g sequence="108"><polygon points=" 643 490 658 490 658 483 673 498 658 513 658 506 643 506" style="stroke:none; fill:#999900" /></g><g sequence="109"><ellipse cx="127" cy="360" rx="17" ry="17" stroke-width="1" style="fill:url(#linearGradientFFFF66FFFF96FFFFB6_962113351);" stroke="999900" /></g><g sequence="109"><polygon points=" 113 353 128 353 128 346 143 361 128 376 128 369 113 369" style="stroke:#999900; fill:none" /></g><g sequence="111"><ellipse cx="597" cy="360" rx="17" ry="17" stroke-width="1" style="fill:url(#linearGradientFFFF66FFFF96FFFFB6_1153808207);" stroke="999900" /></g><g sequence="111"><polygon points=" 583 353 598 353 598 346 613 361 598 376 598 369 583 369" style="stroke:none; fill:#999900" /></g><rect x="360" y="46" width="105" height="55" ry="5" rx="5" style="stroke:none; fill:#FFFFE0" /><g componentSequence="1"><text x="370" y="59" text-anchor="left" style="font-weight:bold;font-size:10px;stroke:none; fill:#000000"><tspan dy="14" x="370">Início</tspan></text></g><path style="fill:none; stroke-width:1; stroke:#000000;" d="M380.0 46.0 L360.0 46.0 L360.0 101.0 L380.0 101.0" /><rect x="790" y="1048" width="105" height="55" ry="5" rx="5" style="stroke:none; fill:#FFFFE0" /><g componentSequence="2"><text x="800" y="1071" text-anchor="left" style="font-weight:bold;font-size:10px;stroke:none; fill:#000000"><tspan dy="14" x="800">Devolução</tspan><tspan dy="14" x="800">Concluída</tspan></text></g><path style="fill:none; stroke-width:1; stroke:#000000;" d="M810.0 1048.0 L790.0 1048.0 L790.0 1103.0 L810.0 1103.0" /><rect x="800" y="616" width="105" height="55" ry="5" rx="5" style="stroke:none; fill:#FFFFE0" /><g componentSequence="36"><text x="810" y="639" text-anchor="left" style="font-weight:bold;font-size:10px;stroke:none; fill:#000000"><tspan dy="14" x="810">Devolução</tspan><tspan dy="14" x="810">Negada</tspan></text></g><path style="fill:none; stroke-width:1; stroke:#000000;" d="M820.0 616.0 L800.0 616.0 L800.0 671.0 L820.0 671.0" /><rect x="820" y="904" width="105" height="55" ry="5" rx="5" style="stroke:none; fill:#FFFFE0" /><g componentSequence="93"><text x="830" y="927" text-anchor="left" style="font-weight:bold;font-size:10px;stroke:none; fill:#000000"><tspan dy="14" x="830">Devolução</tspan><tspan dy="14" x="830">Negada</tspan></text></g><path style="fill:none; stroke-width:1; stroke:#000000;" d="M840.0 904.0 L820.0 904.0 L820.0 959.0 L840.0 959.0" /><g sequence="118"><rect x="210" y="190" width="106" height="56" ry="5" rx="5" style="fill:url(#linearGradientF8FBFEEDF5FCDEEDFAD4E7F8E2E5E9_1770005153);" stroke="191970" /></g><g componentSequence="118"><text x="263" y="207" text-anchor="middle" style="font-weight:bold;font-size:10px;stroke:none; fill:#333399"><tspan dy="14" x="263">Industrial</tspan></text></g><g sequence="120"><polygon points=" 410 197 440 167 470 197 440 227 410 197" style="fill:url(#linearGradientFAFBFCFFFFCC_845512839);" stroke="000000" /></g><g componentSequence="120"><text x="440" y="237" text-anchor="middle" style="font-weight:bold;font-size:10px;stroke:none; fill:#333399"><tspan dy="14" x="440">Exclusiv</tspan><tspan dy="14" x="440">o</tspan></text></g><g sequence="123"><ellipse cx="597" cy="217" rx="17" ry="17" stroke-width="1" style="fill:url(#linearGradientFFFF66FFFF96FFFFB6_1312498459);" stroke="999900" /></g><g sequence="123"><polygon points=" 583 210 598 210 598 203 613 218 598 233 598 226 583 226" style="stroke:none; fill:#999900" /></g><g componentSequence="28"><text x="200" y="73" style="font-size:10px;font-weight:none;stroke:none; fill:#333399" text-anchor="left" /></g><g componentSequence="30"><text x="187" y="643" style="font-size:10px;font-weight:none;stroke:none; fill:#333399" text-anchor="left" /></g><g componentSequence="32"><text x="187" y="786" style="font-size:10px;font-weight:none;stroke:none; fill:#333399" text-anchor="left" /></g><g componentSequence="42"><text x="353" y="643" style="font-size:10px;font-weight:none;stroke:none; fill:#333399" text-anchor="left" /></g><g componentSequence="43"><text x="340" y="717" style="font-size:10px;font-weight:none;stroke:none; fill:#333399" text-anchor="left" /></g><g componentSequence="44"><text x="580" y="643" style="font-size:10px;font-weight:none;stroke:none; fill:#333399" text-anchor="left" /></g><g componentSequence="45"><text x="358" y="787" style="font-size:10px;font-weight:none;stroke:none; fill:#333399" text-anchor="left" /></g><g componentSequence="46"><text x="345" y="860" style="font-size:10px;font-weight:none;stroke:none; fill:#333399" text-anchor="left" /></g><g componentSequence="47"><text x="585" y="712" style="font-size:10px;font-weight:none;stroke:none; fill:#333399" text-anchor="left" /></g><g componentSequence="49"><text x="368" y="932" style="font-size:10px;font-weight:none;stroke:none; fill:#333399" text-anchor="left" /></g><g componentSequence="54"><text x="480" y="616" style="font-size:10px;font-weight:none;stroke:none; fill:#333399" text-anchor="left" /></g><g componentSequence="55"><text x="564" y="786" style="font-size:10px;font-weight:none;stroke:none; fill:#333399" text-anchor="left" /></g><g componentSequence="56"><text x="554" y="930" style="font-size:10px;font-weight:none;stroke:none; fill:#333399" text-anchor="left" /></g><g componentSequence="58"><text x="561" y="786" style="font-size:10px;font-weight:none;stroke:none; fill:#333399" text-anchor="left" /></g><g componentSequence="60"><text x="555" y="930" style="font-size:10px;font-weight:none;stroke:none; fill:#333399" text-anchor="left" /></g><g componentSequence="73"><text x="187" y="497" style="font-size:10px;font-weight:none;stroke:none; fill:#333399" text-anchor="left" /></g><g componentSequence="74"><text x="187" y="931" style="font-size:10px;font-weight:none;stroke:none; fill:#333399" text-anchor="left" /></g><g componentSequence="76"><text x="363" y="498" style="font-size:10px;font-weight:none;stroke:none; fill:#333399" text-anchor="left" /></g><g componentSequence="79"><text x="590" y="573" style="font-size:10px;font-weight:none;stroke:none; fill:#333399" text-anchor="left" /></g><g componentSequence="81"><text x="585" y="1075" style="font-size:10px;font-weight:none;stroke:none; fill:#333399" text-anchor="left" /></g><g componentSequence="82"><text x="363" y="1076" style="font-size:10px;font-weight:none;stroke:none; fill:#333399" text-anchor="left" /></g><g componentSequence="85"><text x="351" y="570" style="font-size:10px;font-weight:none;stroke:none; fill:#333399" text-anchor="left" /></g><g componentSequence="86"><text x="358" y="1003" style="font-size:10px;font-weight:none;stroke:none; fill:#333399" text-anchor="left" /></g><g componentSequence="87"><text x="559" y="1076" style="font-size:10px;font-weight:none;stroke:none; fill:#333399" text-anchor="left" /></g><g componentSequence="88"><text x="480" y="665" style="font-size:10px;font-weight:none;stroke:none; fill:#333399" text-anchor="left" /></g><g componentSequence="89"><text x="556" y="1076" style="font-size:10px;font-weight:none;stroke:none; fill:#333399" text-anchor="left" /></g><g componentSequence="91"><text x="557" y="498" style="font-size:10px;font-weight:none;stroke:none; fill:#333399" text-anchor="left" /></g><g componentSequence="95"><text x="595" y="1001" style="font-size:10px;font-weight:none;stroke:none; fill:#333399" text-anchor="left" /></g><g componentSequence="96"><text x="600" y="931" style="font-size:10px;font-weight:none;stroke:none; fill:#333399" text-anchor="left" /></g><g componentSequence="98"><text x="553" y="498" style="font-size:10px;font-weight:none;stroke:none; fill:#333399" text-anchor="left" /></g><g componentSequence="100"><text x="580" y="786" style="font-size:10px;font-weight:none;stroke:none; fill:#333399" text-anchor="left" /></g><g componentSequence="102"><text x="525" y="1075" style="font-size:10px;font-weight:none;stroke:none; fill:#333399" text-anchor="left" /></g><g componentSequence="107"><text x="373" y="361" style="font-size:10px;font-weight:none;stroke:none; fill:#333399" text-anchor="left" /></g><g componentSequence="110"><text x="364" y="427" style="font-size:10px;font-weight:none;stroke:none; fill:#333399" text-anchor="left" /></g><g componentSequence="112"><text x="535" y="360" style="font-size:10px;font-weight:none;stroke:none; fill:#333399" text-anchor="left" /></g><g componentSequence="113"><text x="187" y="360" style="font-size:10px;font-weight:none;stroke:none; fill:#333399" text-anchor="left" /></g><g componentSequence="114"><text x="555" y="497" style="font-size:10px;font-weight:none;stroke:none; fill:#333399" text-anchor="left" /></g><g componentSequence="1"><text x="330" y="73" style="font-size:10px;font-weight:none;stroke:none; fill:#333399" text-anchor="left" /></g><g componentSequence="2"><text x="772" y="1075" style="font-size:10px;font-weight:none;stroke:none; fill:#333399" text-anchor="left" /></g><g componentSequence="37"><text x="782" y="643" style="font-size:10px;font-weight:none;stroke:none; fill:#333399" text-anchor="left" /></g><g componentSequence="94"><text x="797" y="931" style="font-size:10px;font-weight:none;stroke:none; fill:#333399" text-anchor="left" /></g><g componentSequence="119"><text x="272" y="140" style="font-size:10px;font-weight:none;stroke:none; fill:#333399" text-anchor="left" /></g><g componentSequence="121"><text x="373" y="218" style="font-size:10px;font-weight:none;stroke:none; fill:#333399" text-anchor="left" /></g><g componentSequence="125"><text x="535" y="217" style="font-size:10px;font-weight:none;stroke:none; fill:#333399" text-anchor="left" /></g><g componentSequence="126"><text x="364" y="287" style="font-size:10px;font-weight:none;stroke:none; fill:#333399" text-anchor="left" /></g><path style="fill:none; stroke:#000000;stroke-width:1" d="M262.0 90.0 L262.0 189.0" /><polygon style="fill:#000000; stroke:#000000;" points=" 267 179 262 189 257 179 262 181" /><path style="fill:none; stroke:#000000;stroke-width:1" d="M135.0 73.0 L244.0 73.0" /><polygon style="fill:#000000; stroke:#000000;" points=" 234 68 244 73 234 78 236 73" /><path style="fill:none; stroke:#000000;stroke-dasharray:2" d="M359.0 73.0 L280.0 73.0" /><path style="fill:none; stroke:#000000;stroke-width:1" d="M316.0 643.0 L369.0 643.0" /><polygon style="fill:#000000; stroke:#000000;" points=" 359 638 369 643 359 648 361 643" /><path style="fill:none; stroke:#000000;stroke-width:1" d="M145.0 643.0 L209.0 643.0" /><polygon style="fill:#000000; stroke:#000000;" points=" 199 638 209 643 199 648 201 643" /><path style="fill:none; stroke:#000000;stroke-width:1" d="M389.0 526.0 L294.0 614.0" /><polygon style="fill:#000000; stroke:#000000;" points=" 305 611 294 614 298 604 300 609" /><path style="fill:none; stroke:#000000;stroke-width:1" d="M316.0 787.0 L379.0 787.0" /><polygon style="fill:#000000; stroke:#000000;" points=" 369 782 379 787 369 792 371 787" /><path style="fill:none; stroke:#000000;stroke-width:1" d="M144.0 786.0 L209.0 786.0" /><polygon style="fill:#000000; stroke:#000000;" points=" 199 781 209 786 199 791 201 786" /><path style="fill:none; stroke:#000000;stroke-width:1" d="M369.0 675.0 L290.0 758.0" /><polygon style="fill:#000000; stroke:#000000;" points=" 301 754 290 758 293 747 296 752" /><path style="fill:none; stroke:#000000;stroke-width:1" d="M316.0 932.0 L399.0 932.0" /><polygon style="fill:#000000; stroke:#000000;" points=" 389 927 399 932 389 937 391 932" /><path style="fill:none; stroke:#000000;stroke-width:1" d="M379.0 817.0 L292.0 903.0" /><polygon style="fill:#000000; stroke:#000000;" points=" 303 900 292 903 296 892 298 897" /><path style="fill:none; stroke:#000000;stroke-width:1" d="M144.0 931.0 L209.0 931.0" /><polygon style="fill:#000000; stroke:#000000;" points=" 199 926 209 931 199 936 201 931" /><path style="fill:none; stroke:#000000;stroke-width:1" d="M450.0 1075.0 L700.0 1075.0" /><polygon style="fill:#000000; stroke:#000000;" points=" 690 1070 700 1075 690 1080 692 1075" /><path style="fill:none; stroke:#000000;stroke-dasharray:2" d="M789.0 1075.0 L735.0 1075.0" /><path style="fill:none; stroke:#000000;stroke-width:1" d="M430.0 643.0 L709.0 643.0" /><polygon style="fill:#000000; stroke:#000000;" points=" 699 638 709 643 699 648 701 643" /><path style="fill:none; stroke:#000000;stroke-width:1" d="M440.0 773.0 L711.0 650.0" /><polygon style="fill:#000000; stroke:#000000;" points=" 700 650 711 650 704 659 704 653" /><path style="fill:none; stroke:#000000;stroke-width:1" d="M450.0 512.0 L711.0 636.0" /><polygon style="fill:#000000; stroke:#000000;" points=" 704 627 711 636 700 636 704 633" /><path style="fill:none; stroke:#000000;stroke-dasharray:2" d="M799.0 643.0 L745.0 643.0" /><path style="fill:none; stroke:#000000;stroke-width:1" d="M430.0 631.0 L511.0 600.0" /><polygon style="fill:#000000; stroke:#000000;" points=" 500 599 511 600 503 608 504 603" /><path style="fill:none; stroke:#000000;stroke-width:1" d="M430.0 652.0 L510.0 679.0" /><polygon style="fill:#000000; stroke:#000000;" points=" 502 671 510 679 499 681 502 676" /><path style="fill:none; stroke:#000000;stroke-width:1" d="M440.0 786.0 L627.0 786.0 L627.0 826.0" /><polygon style="fill:#000000; stroke:#000000;" points=" 632 816 627 826 622 816 627 818" /><path style="fill:none; stroke:#000000;stroke-width:1" d="M440.0 786.0 L627.0 786.0 L627.0 752.0" /><polygon style="fill:#000000; stroke:#000000;" points=" 622 762 627 752 632 762 627 760" /><path style="fill:none; stroke:#000000;stroke-width:1" d="M440.0 786.0 L700.0 786.0" /><polygon style="fill:#000000; stroke:#000000;" points=" 690 781 700 786 690 791 692 786" /><path style="fill:none; stroke:#000000;stroke-width:1" d="M460.0 931.0 L596.0 930.0 L597.0 962.0" /><polygon style="fill:#000000; stroke:#000000;" points=" 602 952 597 962 592 952 597 954" /><path style="fill:none; stroke:#000000;stroke-width:1" d="M460.0 931.0 L596.0 930.0 L597.0 896.0" /><polygon style="fill:#000000; stroke:#000000;" points=" 592 906 597 896 602 906 597 904" /><path style="fill:none; stroke:#000000;stroke-width:1" d="M399.0 958.0 L296.0 1047.0" /><polygon style="fill:#000000; stroke:#000000;" points=" 307 1044 296 1047 300 1037 302 1042" /><path style="fill:none; stroke:#000000;stroke-width:1" d="M460.0 931.0 L720.0 931.0" /><polygon style="fill:#000000; stroke:#000000;" points=" 710 926 720 931 710 936 712 931" /><path style="fill:none; stroke:#000000;stroke-width:1" d="M316.0 498.0 L389.0 498.0" /><polygon style="fill:#000000; stroke:#000000;" points=" 379 493 389 498 379 503 381 498" /><path style="fill:none; stroke:#000000;stroke-width:1" d="M144.0 497.0 L209.0 497.0" /><polygon style="fill:#000000; stroke:#000000;" points=" 199 492 209 497 199 502 201 497" /><path style="fill:none; stroke:#000000;stroke-width:1" d="M409.0 384.0 L300.0 469.0" /><polygon style="fill:#000000; stroke:#000000;" points=" 311 467 300 469 305 459 306 464" /><path style="fill:none; stroke:#000000;stroke-width:1" d="M316.0 1076.0 L389.0 1076.0" /><polygon style="fill:#000000; stroke:#000000;" points=" 379 1071 389 1076 379 1081 381 1076" /><path style="fill:none; stroke:#000000;stroke-width:1" d="M450.0 498.0 L607.0 498.0 L607.0 462.0" /><polygon style="fill:#000000; stroke:#000000;" points=" 602 472 607 462 612 472 607 470" /><path style="fill:none; stroke:#000000;stroke-width:1" d="M450.0 498.0 L607.0 498.0 L607.0 526.0" /><polygon style="fill:#000000; stroke:#000000;" points=" 612 516 607 526 602 516 607 518" /><path style="fill:none; stroke:#000000;stroke-width:1" d="M450.0 497.0 L640.0 497.0" /><polygon style="fill:#000000; stroke:#000000;" points=" 630 492 640 497 630 502 632 497" /><path style="fill:none; stroke:#000000;stroke-width:1" d="M450.0 1076.0 L617.0 1076.0 L617.0 1106.0" /><polygon style="fill:#000000; stroke:#000000;" points=" 622 1096 617 1106 612 1096 617 1098" /><path style="fill:none; stroke:#000000;stroke-width:1" d="M450.0 1076.0 L617.0 1076.0 L617.0 1052.0" /><polygon style="fill:#000000; stroke:#000000;" points=" 612 1062 617 1052 622 1062 617 1060" /><path style="fill:none; stroke:#000000;stroke-width:1" d="M450.0 1062.0 L721.0 938.0" /><polygon style="fill:#000000; stroke:#000000;" points=" 710 938 721 938 714 947 714 941" /><path style="fill:none; stroke:#000000;stroke-width:1" d="M450.0 1075.0 L548.0 1075.0 L547.0 1107.0" /><polygon style="fill:#000000; stroke:#000000;" points=" 552 1097 547 1107 542 1097 547 1099" /><path style="fill:none; stroke:#000000;stroke-dasharray:2" d="M819.0 931.0 L755.0 931.0" /><path style="fill:none; stroke:#000000;stroke-width:1" d="M316.0 361.0 L409.0 361.0" /><polygon style="fill:#000000; stroke:#000000;" points=" 399 356 409 361 399 366 401 361" /><path style="fill:none; stroke:#000000;stroke-width:1" d="M144.0 360.0 L209.0 360.0" /><polygon style="fill:#000000; stroke:#000000;" points=" 199 355 209 360 199 365 201 360" /><path style="fill:none; stroke:#000000;stroke-width:1" d="M409.0 242.0 L298.0 332.0" /><polygon style="fill:#000000; stroke:#000000;" points=" 309 330 298 332 303 322 304 327" /><path style="fill:none; stroke:#000000;stroke-width:1" d="M470.0 360.0 L580.0 360.0" /><polygon style="fill:#000000; stroke:#000000;" points=" 570 355 580 360 570 365 572 360" /><path style="fill:none; stroke:#000000;stroke-width:1" d="M316.0 218.0 L409.0 218.0" /><polygon style="fill:#000000; stroke:#000000;" points=" 399 213 409 218 399 223 401 218" /><path style="fill:none; stroke:#000000;stroke-width:1" d="M470.0 217.0 L580.0 217.0" /><polygon style="fill:#000000; stroke:#000000;" points=" 570 212 580 217 570 222 572 217" /><defs><linearGradient xmlns:xlink="http://www.w3.org/1999/xlink" xlink:href="#linearGradient66FF6696FF96B6FFB6" id="linearGradient66FF6696FF96B6FFB6_1559238406" x1="0" y1="56.0" x2="0" y2="91.0" gradientUnits="userSpaceOnUse" xlink:type="simple" xlink:actuate="onLoad" xlink:show="other" /><linearGradient id="linearGradient66FF6696FF96B6FFB6"><stop style="stop-color:#66FF66;stop-opacity:1;" offset="0.0" id="stop66FF66" /><stop style="stop-color:#96FF96;stop-opacity:1;" offset="0.5" id="stop96FF96" /><stop style="stop-color:#B6FFB6;stop-opacity:1;" offset="1.0" id="stopB6FFB6" /></linearGradient><linearGradient xmlns:xlink="http://www.w3.org/1999/xlink" xlink:href="#linearGradientF8FBFEEDF5FCDEEDFAD4E7F8E2E5E9" id="linearGradientF8FBFEEDF5FCDEEDFAD4E7F8E2E5E9_1379394280" x1="0" y1="615.0" x2="0" y2="721.0" gradientUnits="userSpaceOnUse" xlink:type="simple" xlink:actuate="onLoad" xlink:show="other" /><linearGradient id="linearGradientF8FBFEEDF5FCDEEDFAD4E7F8E2E5E9"><stop style="stop-color:#F8FBFE;stop-opacity:1;" offset="0.0" id="stopF8FBFE" /><stop style="stop-color:#EDF5FC;stop-opacity:1;" offset="0.25" id="stopEDF5FC" /><stop style="stop-color:#DEEDFA;stop-opacity:1;" offset="0.5" id="stopDEEDFA" /><stop style="stop-color:#D4E7F8;stop-opacity:1;" offset="0.75" id="stopD4E7F8" /><stop style="stop-color:#E2E5E9;stop-opacity:1;" offset="1.0" id="stopE2E5E9" /></linearGradient><linearGradient xmlns:xlink="http://www.w3.org/1999/xlink" xlink:href="#linearGradientF8FBFEEDF5FCDEEDFAD4E7F8E2E5E9" id="linearGradientF8FBFEEDF5FCDEEDFAD4E7F8E2E5E9_1443396726" x1="0" y1="759.0" x2="0" y2="865.0" gradientUnits="userSpaceOnUse" xlink:type="simple" xlink:actuate="onLoad" xlink:show="other" /><linearGradient xmlns:xlink="http://www.w3.org/1999/xlink" xlink:href="#linearGradientF8FBFEEDF5FCDEEDFAD4E7F8E2E5E9" id="linearGradientF8FBFEEDF5FCDEEDFAD4E7F8E2E5E9_319482067" x1="0" y1="904.0" x2="0" y2="1010.0" gradientUnits="userSpaceOnUse" xlink:type="simple" xlink:actuate="onLoad" xlink:show="other" /><linearGradient xmlns:xlink="http://www.w3.org/1999/xlink" xlink:href="#linearGradientFF6666FF9696FFB6B6" id="linearGradientFF6666FF9696FFB6B6_1335793043" x1="0" y1="1058.0" x2="0" y2="1093.0" gradientUnits="userSpaceOnUse" xlink:type="simple" xlink:actuate="onLoad" xlink:show="other" /><linearGradient id="linearGradientFF6666FF9696FFB6B6"><stop style="stop-color:#FF6666;stop-opacity:1;" offset="0.0" id="stopFF6666" /><stop style="stop-color:#FF9696;stop-opacity:1;" offset="0.5" id="stopFF9696" /><stop style="stop-color:#FFB6B6;stop-opacity:1;" offset="1.0" id="stopFFB6B6" /></linearGradient><linearGradient xmlns:xlink="http://www.w3.org/1999/xlink" xlink:href="#linearGradientFFFF66FFFF96FFFFB6" id="linearGradientFFFF66FFFF96FFFFB6_584261162" x1="0" y1="56.0" x2="0" y2="91.0" gradientUnits="userSpaceOnUse" xlink:type="simple" xlink:actuate="onLoad" xlink:show="other" /><linearGradient id="linearGradientFFFF66FFFF96FFFFB6"><stop style="stop-color:#FFFF66;stop-opacity:1;" offset="0.0" id="stopFFFF66" /><stop style="stop-color:#FFFF96;stop-opacity:1;" offset="0.5" id="stopFFFF96" /><stop style="stop-color:#FFFFB6;stop-opacity:1;" offset="1.0" id="stopFFFFB6" /></linearGradient><linearGradient xmlns:xlink="http://www.w3.org/1999/xlink" xlink:href="#linearGradientFFFF66FFFF96FFFFB6" id="linearGradientFFFF66FFFF96FFFFB6_934100426" x1="0" y1="626.0" x2="0" y2="661.0" gradientUnits="userSpaceOnUse" xlink:type="simple" xlink:actuate="onLoad" xlink:show="other" /><linearGradient xmlns:xlink="http://www.w3.org/1999/xlink" xlink:href="#linearGradientFFFF66FFFF96FFFFB6" id="linearGradientFFFF66FFFF96FFFFB6_1931810716" x1="0" y1="769.0" x2="0" y2="804.0" gradientUnits="userSpaceOnUse" xlink:type="simple" xlink:actuate="onLoad" xlink:show="other" /><linearGradient xmlns:xlink="http://www.w3.org/1999/xlink" xlink:href="#linearGradientFF6666FF9696FFB6B6" id="linearGradientFF6666FF9696FFB6B6_1219241574" x1="0" y1="626.0" x2="0" y2="661.0" gradientUnits="userSpaceOnUse" xlink:type="simple" xlink:actuate="onLoad" xlink:show="other" /><linearGradient xmlns:xlink="http://www.w3.org/1999/xlink" xlink:href="#linearGradientFAFBFCFFFFCC" id="linearGradientFAFBFCFFFFCC_1916031767" x1="0" y1="599.0" x2="0" y2="659.0" gradientUnits="userSpaceOnUse" xlink:type="simple" xlink:actuate="onLoad" xlink:show="other" /><linearGradient id="linearGradientFAFBFCFFFFCC"><stop style="stop-color:#FAFBFC;stop-opacity:1;" offset="0.0" id="stopFAFBFC" /><stop style="stop-color:#FFFFCC;stop-opacity:1;" offset="1.0" id="stopFFFFCC" /></linearGradient><linearGradient xmlns:xlink="http://www.w3.org/1999/xlink" xlink:href="#linearGradientFAFBFCFFFFCC" id="linearGradientFAFBFCFFFFCC_749302774" x1="0" y1="743.0" x2="0" y2="803.0" gradientUnits="userSpaceOnUse" xlink:type="simple" xlink:actuate="onLoad" xlink:show="other" /><linearGradient xmlns:xlink="http://www.w3.org/1999/xlink" xlink:href="#linearGradientFAFBFCFFFFCC" id="linearGradientFAFBFCFFFFCC_2003503112" x1="0" y1="888.0" x2="0" y2="948.0" gradientUnits="userSpaceOnUse" xlink:type="simple" xlink:actuate="onLoad" xlink:show="other" /><linearGradient xmlns:xlink="http://www.w3.org/1999/xlink" xlink:href="#linearGradientFFFF66FFFF96FFFFB6" id="linearGradientFFFF66FFFF96FFFFB6_1583194005" x1="0" y1="962.0" x2="0" y2="997.0" gradientUnits="userSpaceOnUse" xlink:type="simple" xlink:actuate="onLoad" xlink:show="other" /><linearGradient xmlns:xlink="http://www.w3.org/1999/xlink" xlink:href="#linearGradientFFFF66FFFF96FFFFB6" id="linearGradientFFFF66FFFF96FFFFB6_237097890" x1="0" y1="827.0" x2="0" y2="862.0" gradientUnits="userSpaceOnUse" xlink:type="simple" xlink:actuate="onLoad" xlink:show="other" /><linearGradient xmlns:xlink="http://www.w3.org/1999/xlink" xlink:href="#linearGradientFFFF66FFFF96FFFFB6" id="linearGradientFFFF66FFFF96FFFFB6_1777350483" x1="0" y1="577.0" x2="0" y2="612.0" gradientUnits="userSpaceOnUse" xlink:type="simple" xlink:actuate="onLoad" xlink:show="other" /><linearGradient xmlns:xlink="http://www.w3.org/1999/xlink" xlink:href="#linearGradientFFFF66FFFF96FFFFB6" id="linearGradientFFFF66FFFF96FFFFB6_1182030125" x1="0" y1="717.0" x2="0" y2="752.0" gradientUnits="userSpaceOnUse" xlink:type="simple" xlink:actuate="onLoad" xlink:show="other" /><linearGradient xmlns:xlink="http://www.w3.org/1999/xlink" xlink:href="#linearGradientFFFF66FFFF96FFFFB6" id="linearGradientFFFF66FFFF96FFFFB6_1952962369" x1="0" y1="862.0" x2="0" y2="897.0" gradientUnits="userSpaceOnUse" xlink:type="simple" xlink:actuate="onLoad" xlink:show="other" /><linearGradient xmlns:xlink="http://www.w3.org/1999/xlink" xlink:href="#linearGradientF8FBFEEDF5FCDEEDFAD4E7F8E2E5E9" id="linearGradientF8FBFEEDF5FCDEEDFAD4E7F8E2E5E9_1952163500" x1="0" y1="470.0" x2="0" y2="576.0" gradientUnits="userSpaceOnUse" xlink:type="simple" xlink:actuate="onLoad" xlink:show="other" /><linearGradient xmlns:xlink="http://www.w3.org/1999/xlink" xlink:href="#linearGradientF8FBFEEDF5FCDEEDFAD4E7F8E2E5E9" id="linearGradientF8FBFEEDF5FCDEEDFAD4E7F8E2E5E9_486104539" x1="0" y1="1048.0" x2="0" y2="1154.0" gradientUnits="userSpaceOnUse" xlink:type="simple" xlink:actuate="onLoad" xlink:show="other" /><linearGradient xmlns:xlink="http://www.w3.org/1999/xlink" xlink:href="#linearGradientFFFF66FFFF96FFFFB6" id="linearGradientFFFF66FFFF96FFFFB6_2015416920" x1="0" y1="480.0" x2="0" y2="515.0" gradientUnits="userSpaceOnUse" xlink:type="simple" xlink:actuate="onLoad" xlink:show="other" /><linearGradient xmlns:xlink="http://www.w3.org/1999/xlink" xlink:href="#linearGradientFFFF66FFFF96FFFFB6" id="linearGradientFFFF66FFFF96FFFFB6_850911170" x1="0" y1="914.0" x2="0" y2="949.0" gradientUnits="userSpaceOnUse" xlink:type="simple" xlink:actuate="onLoad" xlink:show="other" /><linearGradient xmlns:xlink="http://www.w3.org/1999/xlink" xlink:href="#linearGradientFAFBFCFFFFCC" id="linearGradientFAFBFCFFFFCC_468742654" x1="0" y1="454.0" x2="0" y2="514.0" gradientUnits="userSpaceOnUse" xlink:type="simple" xlink:actuate="onLoad" xlink:show="other" /><linearGradient xmlns:xlink="http://www.w3.org/1999/xlink" xlink:href="#linearGradientFFFF66FFFF96FFFFB6" id="linearGradientFFFF66FFFF96FFFFB6_1295114462" x1="0" y1="427.0" x2="0" y2="462.0" gradientUnits="userSpaceOnUse" xlink:type="simple" xlink:actuate="onLoad" xlink:show="other" /><linearGradient xmlns:xlink="http://www.w3.org/1999/xlink" xlink:href="#linearGradientFFFF66FFFF96FFFFB6" id="linearGradientFFFF66FFFF96FFFFB6_872241458" x1="0" y1="667.0" x2="0" y2="702.0" gradientUnits="userSpaceOnUse" xlink:type="simple" xlink:actuate="onLoad" xlink:show="other" /><linearGradient xmlns:xlink="http://www.w3.org/1999/xlink" xlink:href="#linearGradientFAFBFCFFFFCC" id="linearGradientFAFBFCFFFFCC_1060686144" x1="0" y1="1032.0" x2="0" y2="1092.0" gradientUnits="userSpaceOnUse" xlink:type="simple" xlink:actuate="onLoad" xlink:show="other" /><linearGradient xmlns:xlink="http://www.w3.org/1999/xlink" xlink:href="#linearGradientFFFF66FFFF96FFFFB6" id="linearGradientFFFF66FFFF96FFFFB6_668938456" x1="0" y1="1017.0" x2="0" y2="1052.0" gradientUnits="userSpaceOnUse" xlink:type="simple" xlink:actuate="onLoad" xlink:show="other" /><linearGradient xmlns:xlink="http://www.w3.org/1999/xlink" xlink:href="#linearGradientFFFF66FFFF96FFFFB6" id="linearGradientFFFF66FFFF96FFFFB6_1705640941" x1="0" y1="1107.0" x2="0" y2="1142.0" gradientUnits="userSpaceOnUse" xlink:type="simple" xlink:actuate="onLoad" xlink:show="other" /><linearGradient xmlns:xlink="http://www.w3.org/1999/xlink" xlink:href="#linearGradientFF6666FF9696FFB6B6" id="linearGradientFF6666FF9696FFB6B6_1019732643" x1="0" y1="914.0" x2="0" y2="949.0" gradientUnits="userSpaceOnUse" xlink:type="simple" xlink:actuate="onLoad" xlink:show="other" /><linearGradient xmlns:xlink="http://www.w3.org/1999/xlink" xlink:href="#linearGradientFFFF66FFFF96FFFFB6" id="linearGradientFFFF66FFFF96FFFFB6_1162628786" x1="0" y1="527.0" x2="0" y2="562.0" gradientUnits="userSpaceOnUse" xlink:type="simple" xlink:actuate="onLoad" xlink:show="other" /><linearGradient xmlns:xlink="http://www.w3.org/1999/xlink" xlink:href="#linearGradientFFFF66FFFF96FFFFB6" id="linearGradientFFFF66FFFF96FFFFB6_457961267" x1="0" y1="769.0" x2="0" y2="804.0" gradientUnits="userSpaceOnUse" xlink:type="simple" xlink:actuate="onLoad" xlink:show="other" /><linearGradient xmlns:xlink="http://www.w3.org/1999/xlink" xlink:href="#linearGradientFFFF66FFFF96FFFFB6" id="linearGradientFFFF66FFFF96FFFFB6_776680156" x1="0" y1="1107.0" x2="0" y2="1142.0" gradientUnits="userSpaceOnUse" xlink:type="simple" xlink:actuate="onLoad" xlink:show="other" /><linearGradient xmlns:xlink="http://www.w3.org/1999/xlink" xlink:href="#linearGradientF8FBFEEDF5FCDEEDFAD4E7F8E2E5E9" id="linearGradientF8FBFEEDF5FCDEEDFAD4E7F8E2E5E9_756682572" x1="0" y1="333.0" x2="0" y2="439.0" gradientUnits="userSpaceOnUse" xlink:type="simple" xlink:actuate="onLoad" xlink:show="other" /><linearGradient xmlns:xlink="http://www.w3.org/1999/xlink" xlink:href="#linearGradientFAFBFCFFFFCC" id="linearGradientFAFBFCFFFFCC_168095107" x1="0" y1="310.0" x2="0" y2="370.0" gradientUnits="userSpaceOnUse" xlink:type="simple" xlink:actuate="onLoad" xlink:show="other" /><linearGradient xmlns:xlink="http://www.w3.org/1999/xlink" xlink:href="#linearGradientFFFF66FFFF96FFFFB6" id="linearGradientFFFF66FFFF96FFFFB6_1316137351" x1="0" y1="480.0" x2="0" y2="515.0" gradientUnits="userSpaceOnUse" xlink:type="simple" xlink:actuate="onLoad" xlink:show="other" /><linearGradient xmlns:xlink="http://www.w3.org/1999/xlink" xlink:href="#linearGradientFFFF66FFFF96FFFFB6" id="linearGradientFFFF66FFFF96FFFFB6_962113351" x1="0" y1="343.0" x2="0" y2="378.0" gradientUnits="userSpaceOnUse" xlink:type="simple" xlink:actuate="onLoad" xlink:show="other" /><linearGradient xmlns:xlink="http://www.w3.org/1999/xlink" xlink:href="#linearGradientFFFF66FFFF96FFFFB6" id="linearGradientFFFF66FFFF96FFFFB6_1153808207" x1="0" y1="343.0" x2="0" y2="378.0" gradientUnits="userSpaceOnUse" xlink:type="simple" xlink:actuate="onLoad" xlink:show="other" /><linearGradient xmlns:xlink="http://www.w3.org/1999/xlink" xlink:href="#linearGradientF8FBFEEDF5FCDEEDFAD4E7F8E2E5E9" id="linearGradientF8FBFEEDF5FCDEEDFAD4E7F8E2E5E9_1770005153" x1="0" y1="190.0" x2="0" y2="296.0" gradientUnits="userSpaceOnUse" xlink:type="simple" xlink:actuate="onLoad" xlink:show="other" /><linearGradient xmlns:xlink="http://www.w3.org/1999/xlink" xlink:href="#linearGradientFAFBFCFFFFCC" id="linearGradientFAFBFCFFFFCC_845512839" x1="0" y1="167.0" x2="0" y2="227.0" gradientUnits="userSpaceOnUse" xlink:type="simple" xlink:actuate="onLoad" xlink:show="other" /><linearGradient xmlns:xlink="http://www.w3.org/1999/xlink" xlink:href="#linearGradientFFFF66FFFF96FFFFB6" id="linearGradientFFFF66FFFF96FFFFB6_1312498459" x1="0" y1="200.0" x2="0" y2="235.0" gradientUnits="userSpaceOnUse" xlink:type="simple" xlink:actuate="onLoad" xlink:show="other" /></defs></svg>
